<?xml version="1.0" standalone="no"?>
<!DOCTYPE svg PUBLIC "-//W3C//DTD SVG 1.1//EN" "http://www.w3.org/Graphics/SVG/1.1/DTD/svg11.dtd" >
<svg xmlns="http://www.w3.org/2000/svg">
<metadata></metadata>
<defs>
<font id="BrixSlabMediumItalic" horiz-adv-x="1146" >
<font-face units-per-em="2048" ascent="1475" descent="-573" />
<missing-glyph horiz-adv-x="409" />
<glyph unicode="&#xfb01;" horiz-adv-x="1247" d="M-201 -444l33 168q70 -9 115 -9q60 0 91.5 37t43.5 113l158 901h-172l32 168h168l35 199q11 67 35 121.5t63 99t99 68.5t137 24q89 0 141 -21l-30 -165q-70 8 -115 8q-66 0 -98.5 -36.5t-45.5 -113.5l-30 -184h643l-135 -766h182l-31 -168h-565l29 168h194l105 598h-453 l-160 -916q-29 -164 -107.5 -238.5t-242.5 -74.5q-60 0 -119 19zM926 1239q0 75 42.5 114.5t110.5 39.5q44 0 74.5 -26.5t30.5 -76.5q0 -74 -44.5 -110.5t-105.5 -36.5q-50 0 -79 23.5t-29 72.5z" />
<glyph unicode="&#xfb02;" horiz-adv-x="1144" d="M-203 -444l33 168q70 -9 115 -9q60 0 91.5 37t45.5 113l158 901h-134l31 168h131l27 141q14 81 46 146t86.5 116.5t138.5 80t192 28.5q182 0 340 -70l-195 -1140q-4 -35 12.5 -53.5t49.5 -18.5q50 0 108 10l-31 -176q-91 -14 -139 -14q-225 0 -190 247l180 1022 q-44 14 -72.5 18.5t-79.5 4.5q-120 0 -183.5 -51.5t-82.5 -157.5l-22 -133h233l-31 -168h-233l-154 -916q-29 -164 -108 -238.5t-242 -74.5q-57 0 -121 19z" />
<glyph horiz-adv-x="0" />
<glyph horiz-adv-x="0" />
<glyph horiz-adv-x="2048" />
<glyph unicode=" "  horiz-adv-x="409" />
<glyph unicode="&#x09;" horiz-adv-x="409" />
<glyph unicode="&#xa0;" horiz-adv-x="409" />
<glyph unicode="!" horiz-adv-x="530" d="M47 98q0 66 48 111t116 45q51 0 83 -32.5t32 -80.5q0 -65 -48 -109t-114 -44q-52 0 -84.5 31t-32.5 79zM160 444l131 940h235l-202 -940h-164z" />
<glyph unicode="&#x22;" horiz-adv-x="720" d="M176 885l66 499h192l-112 -499h-146zM506 885l69 499h187l-109 -499h-147z" />
<glyph unicode="#" horiz-adv-x="1286" d="M55 385l54 176h202l92 293h-192l51 176h201l117 354h186l-115 -354h238l115 354h186l-113 -354h205l-55 -176h-209l-94 -293h204l-53 -176h-211l-125 -385h-188l127 385h-238l-127 -385h-186l125 385h-197zM500 561h235l94 293h-237z" />
<glyph unicode="$" d="M59 70l50 370h167l5 -256q50 -28 151 -39l82 465l-49 23q-128 55 -188 134t-60 214q0 67 26.5 134.5t77 128.5t137 104.5t195.5 54.5l27 151h131l-27 -151q182 -11 324 -88l-61 -352h-170l10 241q-60 23 -133 29l-80 -451l59 -22q137 -54 198.5 -138t61.5 -219 q0 -77 -29 -147.5t-84.5 -129.5t-145 -97.5t-202.5 -46.5l-32 -193h-131l32 191q-205 9 -342 90zM438 1001q0 -112 115 -167l70 389q-85 -21 -135 -83.5t-50 -138.5zM563 150q93 17 150 78t57 145q0 127 -135 186z" />
<glyph unicode="%" horiz-adv-x="1499" d="M166 0l4 23l1053 1361h151l-4 -22l-1059 -1362h-145zM170 1010q0 109 41 197t126.5 143t201.5 55q130 0 197 -74.5t67 -185.5q0 -81 -23.5 -152t-68 -126t-117 -87t-164.5 -32q-127 0 -193.5 74t-66.5 188zM340 1034q0 -58 29 -91.5t86 -33.5q89 0 133.5 58.5t44.5 150.5 q0 57 -29.5 91t-89.5 34q-86 0 -130 -58t-44 -151zM741 240q0 168 97.5 281.5t271.5 113.5q131 0 197.5 -74t66.5 -186q0 -81 -23.5 -152t-68.5 -126.5t-117.5 -87.5t-163.5 -32q-127 0 -193.5 75t-66.5 188zM911 264q0 -58 28.5 -91.5t86.5 -33.5q89 0 133.5 58.5 t44.5 150.5q0 57 -30 91t-89 34q-86 0 -130 -58t-44 -151z" />
<glyph unicode="&#x26;" horiz-adv-x="1275" d="M49 313q0 111 47.5 200t118 140t156.5 74q-74 25 -121 88t-47 158q0 67 15.5 127.5t51.5 117t91 97.5t140.5 65.5t192.5 24.5q173 0 318 -74l-88 -170q-124 64 -252 64q-132 0 -198 -66t-66 -176q0 -93 57 -137.5t158 -44.5h239l33 192l197 33l-39 -225h184l-31 -170 h-184l-61 -355q-9 -55 11.5 -86.5t69.5 -31.5q28 0 109 22l-25 -172q-91 -31 -170 -31q-166 0 -192 142q-145 -142 -338 -142q-182 0 -279.5 91t-97.5 245zM264 340q0 -84 51 -132t160 -48q144 0 293 114l63 357h-247q-165 0 -242.5 -79t-77.5 -212z" />
<glyph unicode="'" horiz-adv-x="389" d="M174 885l70 499h188l-113 -499h-145z" />
<glyph unicode="(" horiz-adv-x="561" d="M49 223q0 136 15 256.5t47.5 227.5t71 197t98 186.5t114.5 173.5t135 178l140 -62q-82 -122 -136 -211t-112.5 -207t-92 -225.5t-55.5 -242.5t-22 -281q0 -140 26.5 -303.5t73.5 -308.5l-155 -56q-70 146 -109 323.5t-39 354.5z" />
<glyph unicode=")" horiz-adv-x="561" d="M-131 -395q234 345 322 593t88 556q0 150 -27.5 318.5t-71.5 311.5l160 58q145 -337 145 -682q0 -187 -30.5 -348.5t-95.5 -308.5t-148.5 -276.5t-206.5 -281.5z" />
<glyph unicode="*" horiz-adv-x="958" d="M176 1044l80 175l244 -95l41 301h184l-70 -299l283 82l8 -176l-270 -47l133 -231l-164 -105l-117 254l-229 -254l-100 111l229 229z" />
<glyph unicode="+" d="M86 461v186h381v393h199v-393h389v-186h-389v-398h-199v398h-381z" />
<glyph unicode="," horiz-adv-x="430" d="M-57 -227l125 483h215l-193 -483h-147z" />
<glyph unicode="-" d="M211 459v186h717v-186h-717z" />
<glyph unicode="." horiz-adv-x="448" d="M10 102q0 66 46 109t114 43q51 0 85 -34.5t34 -82.5q0 -65 -46 -107t-112 -42q-52 0 -86.5 33t-34.5 81z" />
<glyph unicode="/" horiz-adv-x="761" d="M-14 0l2 27l639 1357h198l-4 -24l-645 -1360h-190z" />
<glyph unicode="0" horiz-adv-x="1210" d="M111 453q0 95 11 189t35.5 189t60.5 179t88.5 157.5t116.5 126t148.5 83t180.5 30.5q82 0 148 -24t110 -66t73.5 -101.5t42.5 -128t13 -147.5q0 -158 -24 -299.5t-75.5 -263.5t-126 -210.5t-181 -139t-234.5 -50.5q-99 0 -174.5 37.5t-121.5 103.5t-68.5 150.5 t-22.5 184.5zM330 455q0 -136 48.5 -215.5t153.5 -79.5q116 0 204.5 98.5t136 273.5t47.5 400q0 127 -49 209t-150 82q-88 0 -163 -65.5t-124 -174t-76.5 -246t-27.5 -282.5z" />
<glyph unicode="1" horiz-adv-x="929" d="M-4 0l33 182h327l170 979l-311 -121l-12 183l391 161h178l-213 -1202h277l-31 -182h-809z" />
<glyph unicode="2" horiz-adv-x="1091" d="M4 0l29 156q19 15 46 37.5t65.5 56t70.5 62.5t84.5 76.5t83.5 75.5t91.5 83.5t84.5 77.5q60 54 91.5 84.5t71 75.5t58 79.5t32 81t13.5 96.5q0 91 -49.5 137t-134.5 46q-82 0 -141.5 -47t-86.5 -115t-28 -145l-205 -15q-4 102 27 193t91.5 160t155 109t210.5 40 q178 0 276 -99t98 -247q0 -73 -20.5 -139t-63.5 -129t-92 -116t-123 -120q-112 -103 -259.5 -234.5t-155.5 -138.5h426l28 164h168l-59 -346h-883z" />
<glyph unicode="3" horiz-adv-x="1085" d="M-2 125l123 160q113 -125 301 -125q158 0 230.5 70.5t72.5 185.5q0 90 -60.5 135t-191.5 45h-147l32 182h136q138 0 222.5 69.5t84.5 199.5q0 84 -47.5 131t-143.5 47q-118 0 -221 -54l-29 -159h-151l31 266q194 127 393 127q101 0 176.5 -26t119 -72t64.5 -103.5 t21 -126.5q0 -151 -82.5 -248t-206.5 -131q93 -21 153 -90t60 -188q0 -200 -134.5 -321.5t-397.5 -121.5q-128 0 -239 42t-169 106z" />
<glyph unicode="4" horiz-adv-x="1122" d="M-6 295l26 151l605 723q44 54 83.5 107.5t57.5 80.5l18 27h230l-162 -921h199l-31 -168h-199l-51 -295h-197l52 295h-631zM256 463h399l111 627z" />
<glyph unicode="5" horiz-adv-x="1085" d="M18 94l70 295h166l-33 -184q85 -45 197 -45q162 0 248 90t86 248q0 96 -54 151.5t-157 55.5q-146 0 -301 -74l-74 22l176 731h737l-30 -182h-560l-86 -371q38 24 99 40t123 16q169 0 256.5 -97.5t87.5 -273.5q0 -236 -149.5 -387.5t-401.5 -151.5q-250 0 -400 117z" />
<glyph unicode="6" horiz-adv-x="1155" d="M115 473q0 141 22.5 271t74.5 252t130.5 211.5t198.5 143.5t270 54q195 0 342 -84l-90 -166q-134 70 -270 70q-86 0 -158.5 -30t-122 -80t-86 -117.5t-55.5 -138.5t-25 -146q44 74 135 128t203 54q174 0 266 -98t92 -269q0 -155 -58 -278t-178 -198t-286 -75 q-197 0 -301 128t-104 368zM326 516q-4 -52 -3.5 -103t14.5 -96.5t36.5 -80.5t63 -55.5t93.5 -20.5q64 0 115.5 19t85.5 50.5t57 75.5t33 92.5t10 102.5q0 91 -48 144.5t-146 53.5q-99 0 -180.5 -51.5t-130.5 -130.5z" />
<glyph unicode="7" horiz-adv-x="987" d="M115 0l704 1217h-446l-43 -248h-189l74 415h887l-29 -145q-73 -89 -199 -307l-526 -932h-233z" />
<glyph unicode="8" horiz-adv-x="1181" d="M72 317q0 140 82.5 242t201.5 154q-135 93 -135 270q0 83 33.5 158.5t94.5 134.5t155.5 94t208.5 35q200 0 302.5 -92.5t102.5 -239.5q0 -126 -73 -221.5t-179 -149.5q170 -98 170 -292q0 -190 -145.5 -311.5t-374.5 -121.5q-211 0 -327.5 89t-116.5 251zM283 350 q0 -88 61.5 -141t185.5 -53q145 0 217 66t72 165q0 129 -141 184l-184 74q-52 -34 -84.5 -59.5t-64.5 -61.5t-47 -79t-15 -95zM430 1006q0 -118 123 -170l152 -62q208 101 208 273q0 82 -54 134t-167 52q-123 0 -192.5 -65t-69.5 -162z" />
<glyph unicode="9" horiz-adv-x="1155" d="M45 61l92 166q129 -69 269 -69q86 0 158 30.5t121.5 80t86 117t56 138t26.5 146.5q-44 -73 -135.5 -128t-202.5 -55q-174 0 -266 98t-92 269q0 155 57.5 278t177 198t285.5 75q199 0 303 -128t104 -368q0 -141 -22.5 -271t-75 -252t-131 -211.5t-199 -143.5t-270.5 -54 q-195 0 -342 84zM367 883q0 -91 48 -145t146 -54q99 0 180.5 51.5t130.5 130.5q10 64 2 128t-27.5 115t-65 82.5t-111.5 31.5q-80 0 -140 -28t-94.5 -77t-51.5 -108t-17 -127z" />
<glyph unicode=":" horiz-adv-x="509" d="M37 98q0 66 48 111t116 45q51 0 82.5 -32.5t31.5 -80.5q0 -65 -47.5 -109t-113.5 -44q-52 0 -84.5 31t-32.5 79zM162 799q0 67 47.5 111t114.5 44q53 0 84.5 -31t31.5 -81q0 -65 -48.5 -110.5t-115.5 -45.5q-51 0 -82.5 32.5t-31.5 80.5z" />
<glyph unicode=";" horiz-adv-x="493" d="M-20 -227l124 483h213l-192 -483h-145zM166 799q0 67 47.5 111t114.5 44q52 0 83 -31t31 -81q0 -66 -47.5 -111t-113.5 -45q-51 0 -83 32.5t-32 80.5z" />
<glyph unicode="&#x3c;" d="M121 444v218l831 335v-192l-663 -254l663 -250v-192z" />
<glyph unicode="=" d="M150 229v187h831v-187h-831zM150 690v187h831v-187h-831z" />
<glyph unicode="&#x3e;" d="M182 109v192l664 250l-664 254v192l832 -335v-218z" />
<glyph unicode="?" horiz-adv-x="935" d="M190 1001l19 265q175 139 397 139q159 0 244.5 -80.5t85.5 -202.5q0 -56 -14.5 -107.5t-36.5 -91.5t-57 -78t-66 -64t-74 -53t-70 -41.5t-65 -33.5l-37 -209h-172l53 316q82 32 138 60.5t103 66t70 84t23 104.5q0 63 -41.5 105.5t-126.5 42.5q-100 0 -192 -56l-29 -166 h-152zM231 98q0 65 48.5 110.5t115.5 45.5q53 0 85 -32.5t32 -80.5q0 -65 -48.5 -109t-115.5 -44q-52 0 -84.5 31t-32.5 79z" />
<glyph unicode="@" horiz-adv-x="1822" d="M78 289q0 215 69 407t194 336.5t314 229t416 84.5q166 0 297 -49.5t212 -135.5t123 -197t42 -239q0 -210 -67 -379.5t-193.5 -269t-290.5 -99.5q-94 0 -134 38t-42 106q-60 -63 -144 -103.5t-174 -40.5q-103 0 -168.5 42t-88.5 115.5t-16.5 165t42.5 198.5 q71 209 199.5 332.5t306.5 123.5q156 0 239 -125l31 105h182l-217 -623q-22 -66 -27 -105t10.5 -61t55.5 -22q81 0 147.5 56t106.5 145t61 191t21 202q0 102 -30 186.5t-92 151.5t-167 104t-245 37q-157 0 -291.5 -50.5t-229 -136.5t-161.5 -201t-99 -243.5t-32 -263.5 q0 -247 134.5 -381.5t415.5 -134.5q197 0 402 74l10 -142q-215 -82 -438 -82q-176 0 -309 48t-214 136.5t-121 206t-40 263.5zM649 465q-107 -324 105 -324q127 0 252 109l159 455q-70 86 -182 86q-221 0 -334 -326z" />
<glyph unicode="A" horiz-adv-x="1376" d="M-88 0l31 170h118l566 1044h-117l31 170h587l-28 -170h-113l191 -1044h116l-28 -170h-500l31 170h164l-39 254h-504l-135 -254h168l-31 -170h-508zM496 598h409l-102 584z" />
<glyph unicode="B" horiz-adv-x="1249" d="M-6 0l29 170h143l184 1044h-143l31 170h583q168 0 253 -82t85 -221q0 -132 -71.5 -228.5t-178.5 -123.5q85 -22 143 -100.5t58 -192.5q0 -117 -41 -203.5t-115.5 -136t-168.5 -73t-210 -23.5h-581zM369 170h223q311 0 311 262q0 199 -231 199h-221zM477 799h201 q135 0 202.5 68t67.5 188q0 159 -192 159h-203z" />
<glyph unicode="C" horiz-adv-x="1200" d="M104 514q0 128 28 254t87 241t141.5 203t201.5 140.5t257 52.5q218 0 410 -92l-90 -436h-181l48 303q-90 41 -197 41q-114 0 -208.5 -58.5t-155 -157.5t-93.5 -225t-33 -264q0 -348 302 -348q192 0 387 119l20 -191q-219 -119 -434 -119q-490 0 -490 537z" />
<glyph unicode="D" horiz-adv-x="1363" d="M-4 0l29 170h143l184 1044h-143l31 170h473q299 0 440 -129.5t141 -386.5q0 -201 -46.5 -359t-141.5 -272.5t-248 -175.5t-358 -61h-504zM371 170h155q266 0 412.5 177t146.5 521q0 168 -92 257t-282 89h-158z" />
<glyph unicode="E" horiz-adv-x="1183" d="M-4 0l29 170h143l184 1044h-143l31 170h979l-68 -376h-186l36 206h-448l-76 -426h432l-30 -170h-433l-77 -448h454l39 217h187l-68 -387h-985z" />
<glyph unicode="F" horiz-adv-x="1110" d="M-4 0l29 170h141l184 1044h-141l31 170h954l-70 -395h-188l41 225h-424l-86 -481h444l-30 -172h-445l-67 -391h231l-31 -170h-573z" />
<glyph unicode="G" horiz-adv-x="1314" d="M106 518q0 135 27.5 261.5t86.5 240.5t144.5 199.5t209.5 135.5t272 50q249 0 438 -78l-82 -393h-178l35 256q-109 31 -221 31q-129 0 -230.5 -61.5t-161.5 -163.5t-91 -224t-31 -254q0 -84 16.5 -145.5t55 -109t107 -71.5t167.5 -24q158 0 270 43l53 295h-329l28 172 h525l-107 -602q-206 -99 -469 -99q-272 0 -403.5 141.5t-131.5 399.5z" />
<glyph unicode="H" horiz-adv-x="1511" d="M0 0l31 170h131l184 1044h-131l29 170h514l-31 -170h-180l-72 -403h647l72 403h-178l28 170h508l-28 -170h-129l-185 -1044h129l-30 -170h-508l30 170h179l82 463h-648l-82 -463h181l-31 -170h-512z" />
<glyph unicode="I" horiz-adv-x="692" d="M-14 0l30 170h160l184 1044h-159l28 170h519l-31 -170h-154l-184 -1044h153l-30 -170h-516z" />
<glyph unicode="J" horiz-adv-x="636" d="M-131 -328q114 70 178 152.5t86 206.5l209 1183h-180l28 170h510l-28 -170h-131l-203 -1161q-32 -177 -123 -303.5t-248 -214.5z" />
<glyph unicode="K" horiz-adv-x="1323" d="M-6 0l31 170h143l184 1044h-143l31 170h481l-31 -170h-137l-184 -1044h137l-29 -170h-483zM506 721l493 493h-133l29 170h514l-29 -170h-143l-502 -493l338 -551h141l-30 -170h-525l29 170h162z" />
<glyph unicode="L" horiz-adv-x="1064" d="M-4 0l29 170h139l184 1044h-139l31 170h499l-28 -170h-160l-184 -1044h397l49 274h182l-80 -444h-919z" />
<glyph unicode="M" horiz-adv-x="1837" d="M-55 0l30 170h131l316 1044h-137l28 170h430l109 -1148l526 1148h439l-31 -170h-137l-66 -1044h143l-28 -170h-502l31 170h168l67 993l-540 -1163h-217l-113 1159l-293 -989h178l-31 -170h-501z" />
<glyph unicode="N" horiz-adv-x="1492" d="M-2 0l29 170h135l184 1044h-135l31 170h368l426 -1083l160 913h-199l29 170h537l-31 -170h-135l-215 -1214h-226l-432 1085l-159 -915h210l-28 -170h-549z" />
<glyph unicode="O" horiz-adv-x="1327" d="M104 471q0 112 17.5 221t53 215t94 195.5t134.5 158t181 107.5t227 39q119 0 208.5 -37.5t141.5 -105.5t77.5 -153.5t25.5 -190.5q0 -156 -27.5 -296t-85.5 -258.5t-140.5 -205t-198.5 -135t-255 -48.5q-115 0 -203.5 39t-142 107.5t-80.5 156t-27 191.5zM324 471 q0 -144 63 -227.5t199 -83.5q139 0 243.5 94.5t161 266t56.5 397.5q0 133 -64.5 219t-196.5 86q-109 0 -198 -63t-146 -168.5t-87.5 -239.5t-30.5 -281z" />
<glyph unicode="P" horiz-adv-x="1193" d="M-6 0l31 170h141l184 1044h-141l31 170h569q395 0 395 -360q0 -106 -31 -193.5t-94.5 -156t-171 -106.5t-250.5 -38h-116l30 170h127q82 0 141 24.5t92.5 70t48.5 101.5t15 126q0 87 -48 139.5t-159 52.5h-235l-186 -1044h241l-28 -170h-586z" />
<glyph unicode="Q" horiz-adv-x="1361" d="M104 471q0 112 17.5 221t53 215t94 195.5t134.5 158t181 107.5t227 39q119 0 208.5 -37.5t141.5 -105.5t77.5 -153.5t25.5 -190.5q0 -361 -142 -609q79 -145 105 -311h-199q-18 82 -48.5 155.5t-79.5 141t-111.5 116.5t-148.5 78t-185 29q-56 0 -131 -10v-39 q0 -144 63 -227.5t199 -83.5q131 0 237 86q8 -8 19.5 -22.5t35 -58.5t31.5 -87q-159 -101 -352 -101q-115 0 -203.5 39t-142 107.5t-80.5 156t-27 191.5zM340 678q78 10 154 10q287 0 487 -190q66 180 66 420q0 133 -64.5 219t-196.5 86q-119 0 -213.5 -74.5t-151.5 -195 t-81 -275.5z" />
<glyph unicode="R" horiz-adv-x="1302" d="M-4 0l29 170h143l184 1044h-145l31 170h579q213 0 313.5 -87t100.5 -259q0 -160 -100.5 -267t-272.5 -140q77 -68 129.5 -200t65.5 -261h159l-30 -170h-504l29 170h131q-5 110 -59.5 244t-131.5 196h-201l-77 -440h143l-29 -170h-487zM475 776h230q165 0 240 70.5 t75 193.5q0 174 -221 174h-246z" />
<glyph unicode="S" horiz-adv-x="1099" d="M39 70l47 370h170l4 -256q32 -19 92 -30t121 -11q123 0 200 65.5t77 164.5q0 131 -138 188l-170 72q-127 53 -186 133.5t-59 214.5q0 57 18.5 115.5t59.5 114.5t99 99.5t144.5 70t188.5 26.5q207 0 380 -92l-63 -352h-170l12 241q-91 33 -188 33q-118 0 -189 -71 t-71 -165q0 -64 31.5 -106.5t103.5 -71.5l160 -63q137 -54 198.5 -138t61.5 -219q0 -82 -33.5 -157t-97 -135.5t-166.5 -97t-230 -36.5q-246 0 -407 93z" />
<glyph unicode="T" horiz-adv-x="1153" d="M127 995l68 389h1052l-69 -389h-170l39 219h-263l-184 -1044h184l-28 -170h-574l29 170h188l187 1044h-250l-39 -219h-170z" />
<glyph unicode="U" horiz-adv-x="1380" d="M172 1214l31 170h514l-31 -170h-182l-125 -702q-34 -189 28 -270.5t207 -81.5q146 0 237.5 82t125.5 270l123 702h-180l28 170h514l-30 -170h-134l-122 -698q-50 -285 -196 -410.5t-378 -125.5q-113 0 -199.5 30.5t-147 95.5t-79 166.5t3.5 243.5l123 698h-131z" />
<glyph unicode="V" horiz-adv-x="1349" d="M121 1214l31 170h512l-29 -170h-176l139 -1021l494 1021h-168l28 170h531l-29 -170h-137l-612 -1214h-273l-180 1214h-131z" />
<glyph unicode="W" horiz-adv-x="1949" d="M123 1214l31 170h505l-30 -170h-172l53 -1007l453 899l-37 278h221l143 -1177l412 1007h-221l28 170h568l-31 -170h-131l-518 -1214h-248l-125 864l-426 -864h-248l-92 1214h-135z" />
<glyph unicode="X" horiz-adv-x="1316" d="M-57 0l30 170h142l448 545l-244 499h-149l31 170h499l-30 -170h-129l157 -372l285 372h-131l29 170h516l-31 -170h-145l-422 -499l268 -545h141l-28 -170h-498l29 170h129l-174 397l-312 -397h138l-29 -170h-520z" />
<glyph unicode="Y" horiz-adv-x="1255" d="M121 1214l29 170h497l-29 -170h-167l188 -497l371 497h-170l30 170h521l-29 -170h-125l-518 -667l-68 -377h172l-30 -170h-553l30 170h181l67 377l-270 667h-127z" />
<glyph unicode="Z" horiz-adv-x="1169" d="M-8 0l28 156l879 1058h-485l-43 -243h-185l74 413h940l-26 -157l-875 -1057h502l55 309h186l-86 -479h-964z" />
<glyph unicode="[" horiz-adv-x="636" d="M-31 -442l328 1867h444l-28 -170h-242l-268 -1527h239l-30 -170h-443z" />
<glyph unicode="\" horiz-adv-x="757" d="M211 1360l4 24h199l172 -1357l-6 -27h-191z" />
<glyph unicode="]" horiz-adv-x="636" d="M-133 -442l31 170h239l271 1527h-240l29 170h444l-330 -1867h-444z" />
<glyph unicode="^" horiz-adv-x="1292" d="M315 926l584 506l404 -506l-154 -131l-297 374l-428 -374z" />
<glyph unicode="_" horiz-adv-x="1107" d="M20 -201l25 138h795l-25 -138h-795z" />
<glyph unicode="`" horiz-adv-x="1191" d="M672 1425h202l91 -325h-177z" />
<glyph unicode="a" horiz-adv-x="1056" d="M51 324q0 279 131.5 454.5t341.5 175.5q81 0 142.5 -29.5t97.5 -74.5l80 84h104l-121 -707q-7 -36 2.5 -49.5t40.5 -13.5h56l-33 -164q-44 -8 -115 -8q-73 0 -108 34t-33 101q-47 -64 -123 -107t-168 -43q-137 0 -216 93.5t-79 253.5zM254 352q0 -194 166 -194 q60 0 117.5 33.5t97.5 78.5l72 412q-52 92 -177 92q-74 0 -130.5 -41t-86.5 -106.5t-44.5 -135t-14.5 -139.5z" />
<glyph unicode="b" horiz-adv-x="1044" d="M39 0l221 1255h-133l33 170h321l-102 -575q112 104 260 104q159 0 238 -89.5t79 -256.5q0 -285 -134.5 -458t-354.5 -173q-169 0 -248 105l-108 -82h-72zM276 260q63 -102 181 -102q78 0 137.5 38.5t92.5 102t49 134.5t16 147q0 194 -189 194q-126 0 -213 -92z" />
<glyph unicode="c" horiz-adv-x="911" d="M53 350q0 124 32.5 233t93 192t156.5 131t216 48q172 0 323 -82l-69 -311h-164l25 205q-70 25 -121 25q-126 0 -201.5 -121t-75.5 -295q0 -217 191 -217q57 0 138 23t140 55l21 -160q-177 -99 -344 -99q-179 0 -270 101.5t-91 271.5z" />
<glyph unicode="d" horiz-adv-x="1091" d="M51 322q0 285 134.5 458.5t349.5 173.5q156 0 235 -104l72 405h-176l32 170h363l-219 -1257h141l-31 -168h-141q-142 0 -139 127q-51 -63 -132 -106.5t-175 -43.5q-154 0 -234 90.5t-80 254.5zM254 358q0 -200 182 -200q65 0 127.5 30t102.5 72l73 422q-21 38 -67.5 65 t-120.5 27q-79 0 -139.5 -39.5t-93 -104t-48.5 -133.5t-16 -139z" />
<glyph unicode="e" horiz-adv-x="970" d="M51 338q0 172 60.5 311t177 222t268.5 83q89 0 156.5 -25.5t107 -70t59 -100t19.5 -121.5q0 -113 -47 -234h-598q-4 -50 -4 -63q0 -88 50.5 -139t148.5 -51q146 0 311 100l39 -154q-191 -119 -365 -119q-189 0 -286 96t-97 265zM285 555h411q13 47 13 86 q0 75 -45.5 114.5t-120.5 39.5q-98 0 -165 -66.5t-93 -173.5z" />
<glyph unicode="f" horiz-adv-x="692" d="M-203 -444l33 168q70 -9 115 -9q60 0 91.5 37t45.5 113l156 901h-170l30 168h170l33 199q26 142 105.5 227.5t226.5 85.5q88 0 145 -21l-33 -165q-66 8 -112 8q-66 0 -98.5 -36.5t-45.5 -113.5l-32 -184h276l-31 -168h-276l-158 -916q-29 -163 -107 -238t-235 -75 q-65 0 -129 19z" />
<glyph unicode="g" horiz-adv-x="1040" d="M-6 -221q0 52 10 96h180q-1 -7 -3.5 -25t-2.5 -26q0 -62 39.5 -95.5t114.5 -33.5q115 0 183.5 82t100.5 241l19 101q-45 -61 -117 -101.5t-166 -40.5q-146 0 -223.5 90t-77.5 250q0 284 133 460.5t353 176.5q155 0 235 -104l80 84h113l-160 -914q-18 -109 -55.5 -195.5 t-95 -151.5t-141 -100.5t-187.5 -35.5q-154 0 -243 58.5t-89 183.5zM254 352q0 -94 40.5 -144t135.5 -50q62 0 120 33t99 79l74 412q-56 92 -180 92q-64 0 -115.5 -28t-83 -71.5t-52.5 -101t-29.5 -112t-8.5 -109.5z" />
<glyph unicode="h" horiz-adv-x="1144" d="M-51 0l33 168h135l188 1087h-133l31 170h323l-106 -585q47 47 121.5 80.5t156.5 33.5q92 0 155 -29.5t92 -80.5t38 -120t-8 -149l-70 -407h146l-31 -168h-137q-108 0 -145.5 42t-22.5 138l69 385q35 205 -157 205q-110 0 -232 -76l-90 -526h164l-31 -168h-489z" />
<glyph unicode="i" horiz-adv-x="647" d="M-29 0l31 168h178l103 598h-174l28 168h367l-133 -766h178l-31 -168h-547zM315 1247q0 68 41 105t99 37q47 0 79.5 -27t32.5 -82q0 -65 -41.5 -99t-97.5 -34q-47 0 -80 24t-33 76z" />
<glyph unicode="j" horiz-adv-x="534" d="M-117 -315q98 50 147 113.5t72 195.5l136 772h-172l30 168h363l-170 -965q-60 -326 -320 -432zM260 1247q0 68 40.5 105t98.5 37q46 0 78.5 -27t32.5 -82q0 -65 -41.5 -99t-95.5 -34q-49 0 -81 23.5t-32 76.5z" />
<glyph unicode="k" horiz-adv-x="1126" d="M-49 0l31 168h135l188 1087h-133l33 170h321l-172 -942l385 283h-155l30 168h494l-31 -168h-139l-301 -229l156 -265q40 -66 56 -80q27 -24 71 -24h94l-31 -168q-93 -4 -131 -2q-90 3 -134 38t-93 128l-150 270l-143 -104l-25 -162h133l-32 -168h-457z" />
<glyph unicode="l" horiz-adv-x="528" d="M74 217l186 1038h-147l30 170h338l-215 -1189q-4 -35 12.5 -53.5t49.5 -18.5q50 0 108 10l-30 -176q-91 -14 -140 -14q-119 0 -164 65.5t-28 167.5z" />
<glyph unicode="m" horiz-adv-x="1624" d="M-23 0l31 168h137l103 598h-133l30 168h263l12 -109q44 53 124 91t165 38q158 0 217 -133q50 59 125.5 96t169.5 37q65 0 113.5 -19t75.5 -52t42.5 -77.5t15 -95t-7.5 -104.5l-76 -438h146l-31 -168h-139q-105 0 -142.5 43.5t-23.5 136.5l74 420q14 77 -19 124.5 t-112 47.5q-105 0 -185 -80l-90 -524h150l-31 -168h-145q-107 0 -144.5 43.5t-19.5 136.5l92 512q-12 35 -52 57.5t-91 22.5q-108 0 -199 -84l-90 -520h141l-31 -168h-465z" />
<glyph unicode="n" horiz-adv-x="1159" d="M-23 0l31 168h137l101 598h-129l28 168h267l18 -113q128 133 305 133q84 0 143.5 -29t87 -77.5t37 -111t-5.5 -130.5l-77 -438h145l-31 -168h-137q-102 0 -141.5 45t-24.5 135l74 412q31 180 -158 180q-67 0 -125.5 -25t-97.5 -59l-92 -520h172l-33 -168h-494z" />
<glyph unicode="o" horiz-adv-x="993" d="M53 346q0 92 17.5 177.5t56.5 164.5t96 137.5t141.5 93.5t186.5 35q175 0 263.5 -99t88.5 -269q0 -90 -17.5 -175.5t-56.5 -164.5t-95.5 -138.5t-141 -95t-186.5 -35.5q-173 0 -263 99.5t-90 269.5zM254 352q0 -196 174 -196q128 0 202.5 119t74.5 305q0 196 -175 196 q-129 0 -202.5 -118t-73.5 -306z" />
<glyph unicode="p" horiz-adv-x="1085" d="M-104 -442l26 157l117 27l178 1024h-133l33 168h252l8 -119q45 56 127.5 97.5t179.5 41.5q155 0 233 -92.5t78 -269.5q0 -272 -131.5 -443.5t-351.5 -171.5q-153 0 -225 105l-62 -356h193l-31 -168h-491zM317 250q54 -92 183 -92q81 0 140.5 40t90.5 105t45.5 132.5 t14.5 137.5q0 201 -185 201q-66 0 -121.5 -29t-93.5 -71z" />
<glyph unicode="q" horiz-adv-x="1040" d="M51 334q0 83 16.5 166t54 166t92 146t138.5 102.5t185 39.5q154 0 260 -114l88 159h94l-223 -1263l114 -27l-24 -151h-504l27 168h194l62 354q-53 -48 -112.5 -75.5t-147.5 -27.5q-154 0 -234 95.5t-80 261.5zM256 358q0 -97 42 -148.5t138 -51.5q118 0 217 90l76 428 q-69 98 -182 98q-75 0 -133.5 -38t-91.5 -100.5t-49.5 -133t-16.5 -144.5z" />
<glyph unicode="r" horiz-adv-x="819" d="M-20 0l26 152l137 32l103 582h-131l28 168h310l-33 -189q42 80 126 144.5t169 64.5q81 0 137 -12l-57 -223l-150 35q-66 -4 -130 -46t-107 -108l-76 -432h205l-29 -168h-528z" />
<glyph unicode="s" horiz-adv-x="882" d="M10 184q0 51 17 109h194l-10 -125q43 -49 156 -49q69 0 117 33.5t48 93.5q0 76 -94 114l-131 58q-92 37 -141 90t-49 137q0 97 58 169t144 106t183 34q309 0 309 -188q0 -55 -23 -117h-178l13 117q-45 45 -131 45q-64 0 -111 -36t-47 -93q0 -35 20 -59.5t66 -44.5 l131 -56q101 -43 151 -96t50 -137q0 -78 -34.5 -139.5t-92.5 -98t-126.5 -55.5t-142.5 -19q-346 0 -346 207z" />
<glyph unicode="t" horiz-adv-x="688" d="M61 766l23 135l164 33l41 231l196 33l-47 -264h242l-31 -168h-241l-84 -494q-10 -60 12 -87t76 -27q82 0 157 20l-22 -170q-84 -31 -203 -31q-267 0 -215 279l88 510h-156z" />
<glyph unicode="u" horiz-adv-x="1124" d="M68 766l30 168h320l-103 -586q-35 -188 121 -188q80 0 149.5 40.5t114.5 96.5l82 469h-151l31 168h342l-138 -766h144l-33 -168h-129q-74 0 -105.5 35t-33.5 102q-55 -70 -140.5 -115t-187.5 -45q-85 0 -143.5 28t-85.5 76t-35.5 112.5t6.5 136.5l76 436h-131z" />
<glyph unicode="v" horiz-adv-x="1093" d="M55 766l31 168h449l-31 -168h-129l102 -573l301 573h-135l33 168h461l-29 -168h-117l-430 -766h-227l-160 766h-119z" />
<glyph unicode="w" horiz-adv-x="1533" d="M59 766l31 168h416l-31 -168h-127l41 -555l332 723h205l73 -719l236 551h-123l31 168h430l-31 -168h-108l-359 -766h-213q-35 351 -69 721q-90 -193 -328 -721h-207l-96 766h-103z" />
<glyph unicode="x" horiz-adv-x="1124" d="M-33 0l29 168h131l283 317l-162 281h-156l29 168h174q43 0 71 -13t40 -28.5t34 -52.5l154 -269l160 195h-136l29 168h455l-31 -168h-137l-260 -297l184 -301h154l-31 -168h-164q-44 0 -75 14.5t-48.5 34.5t-42.5 60l-164 272l-174 -213h144l-31 -168h-459z" />
<glyph unicode="y" horiz-adv-x="1138" d="M-45 -430l25 141h233l182 307l-178 748h-164l29 168h373l-29 -164l102 -539l308 535h-209l26 168h531l-29 -168h-119l-622 -1047q-58 -100 -126.5 -141t-152.5 -41q-112 0 -180 33z" />
<glyph unicode="z" horiz-adv-x="913" d="M-16 0l24 141l592 650h-305l-29 -170h-153l47 313h708l-24 -141l-580 -650h332l33 189h157l-57 -332h-745z" />
<glyph unicode="{" horiz-adv-x="610" d="M6 414l29 155q47 0 87.5 13.5t76.5 53t47 101.5l71 404q27 156 115.5 220t261.5 64l-26 -155q-67 -2 -102.5 -32.5t-49.5 -117.5l-72 -401q-34 -186 -221 -227q24 -5 49 -17.5t52 -37t39 -69t2 -102.5l-76 -424q-5 -28 -5 -49t5 -35t13 -23t22.5 -13.5t29.5 -6t37 -2.5 l-26 -155q-174 0 -239 63.5t-38 220.5l72 406q8 48 -2.5 82.5t-36 51.5t-54 24.5t-61.5 7.5z" />
<glyph unicode="|" horiz-adv-x="509" d="M178 -442v1867h129v-1867h-129z" />
<glyph unicode="}" horiz-adv-x="610" d="M-111 -442l27 155q68 2 100.5 25.5t46.5 103.5l76 424q9 57 37 102t64 69.5t65 37t55 17.5q-173 41 -141 227l72 401q14 87 -11 117.5t-90 32.5l27 155q175 0 240.5 -64t36.5 -220l-70 -404q-9 -47 1 -81t34 -52.5t53.5 -26.5t65.5 -8l-29 -155q-74 0 -134.5 -37.5 t-76.5 -128.5l-72 -406q-29 -157 -116 -220.5t-261 -63.5z" />
<glyph unicode="~" horiz-adv-x="931" d="M86 453l41 192q34 -34 66 -52t77 -18q41 0 92 22t93.5 48t101.5 48t113 22q90 0 170 -66l-45 -190q-83 69 -158 69q-39 0 -90.5 -21.5t-95.5 -48t-101 -48t-106 -21.5q-89 0 -158 64z" />
<glyph unicode="&#xa1;" horiz-adv-x="493" d="M-51 -442l205 940h161l-131 -940h-235zM150 801q0 65 48 109t115 44q52 0 84.5 -31t32.5 -79q0 -66 -48.5 -111t-115.5 -45q-52 0 -84 31.5t-32 81.5z" />
<glyph unicode="&#xa2;" d="M156 373q0 90 20.5 174.5t63 159t102.5 130t144.5 87.5t183.5 32q26 0 80 -4l63 154l105 -25l-60 -147q98 -22 176 -76l-78 -160q-76 49 -170 66l-247 -602q18 -4 53 -4q71 0 148.5 23t131.5 55l23 -162q-183 -97 -363 -97q-32 0 -67 7l-51 -127l-103 24l51 125 q-206 83 -206 367zM371 393q0 -133 69 -194l236 577q-153 -4 -229 -107t-76 -276z" />
<glyph unicode="&#xa3;" d="M14 0l25 137l141 66l49 274h-129l23 137h129l53 295q18 106 56 193t98 156.5t149 108t201 38.5q206 0 362 -78l-96 -340h-149l37 217q-81 29 -166 29q-123 0 -192 -84.5t-97 -241.5l-53 -293h358l-25 -137h-358l-55 -309h563l-31 -168h-893z" />
<glyph unicode="&#xa4;" d="M111 881l137 133l151 -154q65 41 172 41q106 0 174 -43l154 152l125 -125l-158 -166q27 -69 27 -158q0 -81 -27 -160l164 -170l-133 -135l-164 160q-64 -37 -166 -37q-106 0 -170 37l-149 -152l-129 127l155 162q-28 66 -28 166q0 89 26 154zM418 561q0 -166 151 -166 q150 0 150 164q0 166 -150 166q-151 0 -151 -164z" />
<glyph unicode="&#xa5;" d="M96 477l25 137h321l-49 142h-248l25 137h176l-115 321h-116l28 170h475l-28 -170h-152l154 -489l332 489h-154l31 170h483l-29 -170h-116l-234 -321h178l-24 -137h-252l-102 -142h329l-24 -137h-361l-53 -307h152l-31 -170h-514l30 170h160l56 307h-353z" />
<glyph unicode="&#xa6;" horiz-adv-x="505" d="M174 348h129v-790h-129v790zM174 627v798h129v-798h-129z" />
<glyph unicode="&#xa7;" horiz-adv-x="1124" d="M16 -133l47 270h148v-162q34 -20 99 -35.5t126 -15.5q266 0 266 150q0 12 -3.5 23.5t-11 22t-15 19t-21.5 18t-23 15.5t-27.5 14.5t-27.5 13t-29.5 13.5t-27.5 12l-158 66q-235 94 -235 268q0 81 46 160.5t134 136.5q-92 76 -92 184q0 66 29 128.5t86.5 116.5t158 87 t228.5 33q103 0 207.5 -25t179.5 -65l-45 -256h-150l-4 143q-93 41 -215 41t-189 -41t-67 -112q0 -48 43.5 -80.5t134.5 -67.5l148 -57q127 -49 191.5 -117.5t64.5 -165.5q0 -86 -47.5 -163t-135.5 -134q97 -72 97 -176q0 -71 -30.5 -134.5t-90.5 -115t-161.5 -82 t-231.5 -30.5q-110 0 -217.5 28.5t-178.5 71.5zM338 618q0 -52 34 -88t111 -67l199 -82q115 76 115 164q0 34 -14 61.5t-42 47.5t-50.5 31.5t-57.5 25.5l-184 71q-52 -31 -81.5 -74.5t-29.5 -89.5z" />
<glyph unicode="&#xa8;" horiz-adv-x="1191" d="M496 1219q0 75 42 114t109 39q46 0 76.5 -26t30.5 -76q0 -74 -44.5 -111t-105.5 -37q-50 0 -79 24t-29 73zM872 1219q0 75 42.5 114t109.5 39q44 0 74 -26t30 -76q0 -74 -44 -111t-105 -37q-50 0 -78.5 24t-28.5 73z" />
<glyph unicode="&#xa9;" horiz-adv-x="1718" d="M139 688q0 216 97 386.5t266.5 264t380.5 93.5q210 0 379 -93.5t265.5 -264t96.5 -386.5q0 -215 -96.5 -385.5t-265.5 -265t-379 -94.5q-158 0 -295.5 55.5t-236.5 153t-155.5 236.5t-56.5 300zM291 688q0 -270 165.5 -435t426.5 -165q260 0 425 165.5t165 434.5 q0 271 -164.5 434.5t-425.5 163.5q-262 0 -427 -163.5t-165 -434.5zM498 686q0 189 102.5 300.5t290.5 111.5q133 0 264 -62v-270h-135v156q-57 24 -129 24q-111 0 -165 -68t-54 -192q0 -55 10.5 -100.5t33.5 -83.5t64.5 -59t98.5 -21q123 0 262 76l43 -136 q-159 -92 -305 -92q-196 0 -288.5 109t-92.5 307z" />
<glyph unicode="&#xaa;" horiz-adv-x="724" d="M131 840q0 120 80.5 167.5t237.5 47.5h71l10 53q6 41 -11.5 61.5t-65.5 20.5q-45 0 -95 -16l-12 -74h-117l13 153q103 56 233 56q113 0 165 -45.5t34 -145.5l-43 -252q-6 -32 22 -32q35 0 37 2l-20 -119q-33 -8 -82 -8q-103 0 -103 84q-87 -91 -194 -91q-76 0 -118 37.5 t-42 100.5zM285 872q0 -53 61 -53q71 0 141 55l17 89h-70q-149 0 -149 -91z" />
<glyph unicode="&#xab;" horiz-adv-x="1052" d="M63 553l453 453l109 -99l-324 -358l199 -356l-144 -93zM467 553l455 453l108 -99l-325 -358l198 -356l-143 -93z" />
<glyph unicode="&#xac;" horiz-adv-x="1294" d="M156 664v186h968v-559h-190v373h-778z" />
<glyph unicode="&#xad;" d="M211 459v186h717v-186h-717z" />
<glyph unicode="&#xae;" horiz-adv-x="1718" d="M139 688q0 216 97 386.5t266.5 264t380.5 93.5q210 0 379 -93.5t265.5 -264t96.5 -386.5q0 -215 -96.5 -385.5t-265.5 -265t-379 -94.5q-158 0 -295.5 55.5t-236.5 153t-155.5 236.5t-56.5 300zM291 688q0 -270 165.5 -435t426.5 -165q260 0 425 165.5t165 434.5 q0 271 -164.5 434.5t-425.5 163.5q-262 0 -427 -163.5t-165 -434.5zM518 973v114h387q159 0 232 -61t73 -178q0 -85 -47.5 -143t-134.5 -78l156 -234h90v-114h-336v114h88l-137 217h-133v-217h88v-114h-324v114h88v580h-90zM756 725h141q86 0 126 34t40 87q0 55 -37.5 91 t-120.5 36h-149v-248z" />
<glyph unicode="&#xaf;" horiz-adv-x="1191" d="M510 1161l27 162h575l-29 -162h-573z" />
<glyph unicode="&#xb0;" horiz-adv-x="690" d="M164 1071q0 136 88 235t223 99q116 0 179 -68.5t63 -169.5q0 -135 -90.5 -233t-229.5 -98q-110 0 -171.5 68.5t-61.5 166.5zM283 1083q0 -58 32 -95.5t93 -37.5q86 0 137 58.5t51 144.5q0 59 -33 98t-96 39q-83 0 -133.5 -61t-50.5 -146z" />
<glyph unicode="&#xb1;" d="M82 57v187h969v-187h-969zM82 737v187h383v393h199v-393h387v-187h-387v-323h-199v323h-383z" />
<glyph unicode="&#xb2;" horiz-adv-x="671" d="M129 881l18 106q106 79 250 197q44 35 63.5 51.5t46.5 42.5t37.5 44t18.5 42.5t8 52.5q0 37 -22.5 57.5t-63.5 20.5q-53 0 -84.5 -30.5t-31.5 -88.5q0 -14 2 -24l-154 -11q-2 8 -2 31q0 105 78.5 178.5t212.5 73.5q111 0 169 -51.5t58 -132.5q0 -88 -48.5 -154 t-135.5 -131l-199 -145h205l14 75h125l-37 -204h-528z" />
<glyph unicode="&#xb3;" horiz-adv-x="653" d="M117 946l90 113q65 -62 170 -62q74 0 108.5 29t34.5 78q0 37 -31 53.5t-100 16.5h-86l23 129h80q68 0 108.5 30t40.5 84q0 35 -23 56.5t-69 21.5q-57 0 -109 -22l-10 -72h-113l15 155q111 68 239 68q120 0 175 -53.5t55 -126.5q0 -77 -45 -128t-117 -69q125 -27 125 -149 q0 -102 -81.5 -166t-227.5 -64q-86 0 -152 22.5t-100 55.5z" />
<glyph unicode="&#xb4;" horiz-adv-x="1191" d="M610 1100l207 325h205l-231 -325h-181z" />
<glyph unicode="&#xb5;" horiz-adv-x="1220" d="M45 -442l215 1208h-137l27 168h329l-102 -574q-18 -100 14.5 -150t134.5 -50q69 0 136 36.5t106 92.5l84 477h-174l29 168h364l-135 -766h137l-31 -168h-290l28 156q-61 -73 -147.5 -124.5t-196.5 -51.5q-81 0 -121 32l-79 -454h-191z" />
<glyph unicode="&#xb6;" horiz-adv-x="1085" d="M76 569q0 166 106 265.5t297 99.5h219l-174 -995h-176l68 383h-49q-139 0 -215 62.5t-76 184.5zM426 -338q93 47 141 108.5t66 166.5l176 997h176l-170 -965q-14 -75 -33.5 -133t-53.5 -116t-88.5 -104.5t-129.5 -80.5z" />
<glyph unicode="&#xb7;" horiz-adv-x="473" d="M92 532q0 66 46 109t114 43q51 0 85 -34.5t34 -82.5q0 -65 -46 -107t-112 -42q-52 0 -86.5 33t-34.5 81z" />
<glyph unicode="&#xb8;" horiz-adv-x="1191" d="M326 -360l34 96q86 -51 162 -51q45 0 68.5 20.5t23.5 56.5q0 24 -14.5 39t-40.5 15q-25 0 -59 -17q-43 19 -66 29l94 172l113 2l-63 -119q24 8 61 8q52 0 86.5 -32t34.5 -84q0 -82 -63 -132.5t-181 -50.5q-88 0 -190 48z" />
<glyph unicode="&#xb9;" horiz-adv-x="587" d="M121 881l24 129h187l80 452l-174 -65l-11 119l232 98h133l-107 -604h154l-23 -129h-495z" />
<glyph unicode="&#xba;" horiz-adv-x="712" d="M150 936q0 61 11 114.5t35.5 101.5t61.5 82.5t91.5 54.5t121.5 20q120 0 180 -66t60 -168q0 -77 -17.5 -142t-54.5 -118t-101 -83t-149 -30q-120 0 -179.5 65t-59.5 169zM295 952q0 -121 104 -121q166 0 166 228q0 121 -104 121q-166 0 -166 -228z" />
<glyph unicode="&#xbb;" horiz-adv-x="1054" d="M18 197l326 358l-199 358l142 93l295 -453l-455 -453zM424 197l324 358l-199 358l141 93l297 -453l-455 -453z" />
<glyph unicode="&#xbc;" horiz-adv-x="1480" d="M121 662l24 129h187l80 452l-174 -65l-11 118l232 99h133l-107 -604h154l-23 -129h-495zM227 0l4 23l1053 1361h152l-2 -22l-1061 -1362h-146zM723 145l20 107l322 364q24 26 46.5 55.5t32.5 45.5l11 16h178l-82 -469h107l-23 -119h-106l-25 -145h-149l24 145h-356z M907 262l193 2l47 266z" />
<glyph unicode="&#xbd;" horiz-adv-x="1515" d="M121 662l24 129h187l80 452l-174 -65l-11 118l232 99h133l-107 -604h154l-23 -129h-495zM227 0l4 23l1053 1361h152l-2 -22l-1061 -1362h-146zM825 0l21 106q106 79 250 197q47 39 63 52.5t45 42t38 45t17.5 41.5t8.5 53q0 37 -22.5 58t-63.5 21q-53 0 -85 -30.5 t-32 -87.5q0 -15 2 -27l-154 -10q-2 10 -2 33q0 104 79.5 176.5t213.5 72.5q111 0 168.5 -51.5t57.5 -132.5q0 -88 -58 -160.5t-170 -154.5q-76 -59 -155 -115h204l15 76h125l-37 -205h-529z" />
<glyph unicode="&#xbe;" horiz-adv-x="1447" d="M117 727l90 113q65 -62 170 -62q74 0 108.5 29t34.5 78q0 37 -31 53t-100 16h-86l23 129h80q67 0 108 30.5t41 84.5q0 35 -23 56.5t-69 21.5q-55 0 -109 -23l-10 -71h-113l15 155q111 68 239 68q120 0 175 -53.5t55 -126.5q0 -77 -45 -128t-117 -69q125 -27 125 -149 q0 -102 -81.5 -166t-227.5 -64q-86 0 -152 22.5t-100 55.5zM193 0l4 23l1052 1361h152l-2 -22l-1061 -1362h-145zM723 145l20 107l322 364q24 26 46.5 55.5t32.5 45.5l11 16h178l-82 -469h107l-23 -119h-106l-25 -145h-149l24 145h-356zM907 262l193 2l47 266z" />
<glyph unicode="&#xbf;" horiz-adv-x="921" d="M-41 -180q0 56 14.5 107.5t37 91.5t57 78t66 64t74 53t70.5 42t66 33l35 209h174l-55 -316q-65 -25 -111.5 -47.5t-90.5 -51.5t-71 -59.5t-43 -70.5t-16 -86q0 -63 41 -105.5t125 -42.5q95 0 190 56l31 166h152l-17 -265q-175 -139 -399 -139q-159 0 -244.5 80.5 t-85.5 202.5zM383 801q0 65 48.5 109t115.5 44q52 0 84.5 -31t32.5 -79q0 -66 -48.5 -111t-115.5 -45q-53 0 -85 31.5t-32 81.5z" />
<glyph unicode="&#xc0;" horiz-adv-x="1376" d="M-88 0l31 170h118l566 1044h-117l31 170h587l-28 -170h-113l191 -1044h116l-28 -170h-500l31 170h164l-39 254h-504l-135 -254h168l-31 -170h-508zM496 598h409l-102 584zM666 1843h202l90 -325h-176z" />
<glyph unicode="&#xc1;" horiz-adv-x="1376" d="M-88 0l31 170h118l566 1044h-117l31 170h587l-28 -170h-113l191 -1044h116l-28 -170h-500l31 170h164l-39 254h-504l-135 -254h168l-31 -170h-508zM496 598h409l-102 584zM762 1518l207 325h205l-232 -325h-180z" />
<glyph unicode="&#xc2;" horiz-adv-x="1376" d="M-88 0l31 170h118l566 1044h-117l31 170h587l-28 -170h-113l191 -1044h116l-28 -170h-500l31 170h164l-39 254h-504l-135 -254h168l-31 -170h-508zM496 598h409l-102 584zM555 1518l233 325h248l115 -325h-170l-84 213l-158 -213h-184z" />
<glyph unicode="&#xc3;" horiz-adv-x="1376" d="M-88 0l31 170h118l566 1044h-117l31 170h587l-28 -170h-113l191 -1044h116l-28 -170h-500l31 170h164l-39 254h-504l-135 -254h168l-31 -170h-508zM496 598h409l-102 584zM584 1602l32 149q46 -49 113 -49q47 0 146.5 39t171.5 39q74 0 133 -47l-33 -152q-57 51 -127 51 q-43 0 -145.5 -39t-165.5 -39q-77 0 -125 48z" />
<glyph unicode="&#xc4;" horiz-adv-x="1376" d="M-88 0l31 170h118l566 1044h-117l31 170h587l-28 -170h-113l191 -1044h116l-28 -170h-500l31 170h164l-39 254h-504l-135 -254h168l-31 -170h-508zM496 598h409l-102 584zM565 1636q0 75 42.5 114.5t109.5 39.5q46 0 76 -26t30 -76q0 -74 -44 -111t-105 -37 q-50 0 -79.5 23.5t-29.5 72.5zM942 1636q0 75 42.5 114.5t109.5 39.5q44 0 74 -26t30 -76q0 -74 -44 -111t-105 -37q-107 0 -107 96z" />
<glyph unicode="&#xc5;" horiz-adv-x="1376" d="M-88 0l31 170h118l566 1044h-117l31 170h587l-28 -170h-113l191 -1044h116l-28 -170h-500l31 170h164l-39 254h-504l-135 -254h168l-31 -170h-508zM496 598h409l-102 584zM674 1655q0 97 69 165t181 68q87 0 133.5 -47t46.5 -117q0 -94 -71.5 -162.5t-186.5 -68.5 q-82 0 -127 47t-45 115zM793 1671q0 -33 19 -52.5t56 -19.5q52 0 82.5 31.5t30.5 77.5q0 33 -20 54.5t-58 21.5q-50 0 -80 -33t-30 -80z" />
<glyph unicode="&#xc6;" horiz-adv-x="1961" d="M-102 0l30 170h119l895 1044h-117l31 170h1141l-66 -376h-188l37 206h-449l-74 -426h433l-31 -170h-432l-80 -448h457l36 217h189l-68 -387h-1009l30 170h164l45 254h-504l-217 -254h166l-28 -170h-510zM623 598h399l104 584z" />
<glyph unicode="&#xc7;" horiz-adv-x="1200" d="M104 514q0 128 28 254t87 241t141.5 203t201.5 140.5t257 52.5q218 0 410 -92l-90 -436h-181l48 303q-90 41 -197 41q-114 0 -208.5 -58.5t-155 -157.5t-93.5 -225t-33 -264q0 -348 302 -348q192 0 387 119l20 -191q-198 -107 -387 -116l-53 -97q24 8 63 8q51 0 85 -32 t34 -84q0 -83 -62 -133t-180 -50q-90 0 -192 48l37 96q86 -51 159 -51q46 0 70.5 20.5t24.5 56.5q0 24 -15.5 39t-42.5 15q-29 0 -57 -17q-45 19 -68 29l84 154q-424 29 -424 532z" />
<glyph unicode="&#xc8;" horiz-adv-x="1183" d="M-4 0l29 170h143l184 1044h-143l31 170h979l-68 -376h-186l36 206h-448l-76 -426h432l-30 -170h-433l-77 -448h454l39 217h187l-68 -387h-985zM588 1843h203l90 -325h-176z" />
<glyph unicode="&#xc9;" horiz-adv-x="1183" d="M-4 0l29 170h143l184 1044h-143l31 170h979l-68 -376h-186l36 206h-448l-76 -426h432l-30 -170h-433l-77 -448h454l39 217h187l-68 -387h-985zM657 1518l207 325h205l-231 -325h-181z" />
<glyph unicode="&#xca;" horiz-adv-x="1183" d="M-4 0l29 170h143l184 1044h-143l31 170h979l-68 -376h-186l36 206h-448l-76 -426h432l-30 -170h-433l-77 -448h454l39 217h187l-68 -387h-985zM489 1518l234 325h248l114 -325h-170l-84 213l-157 -213h-185z" />
<glyph unicode="&#xcb;" horiz-adv-x="1183" d="M-4 0l29 170h143l184 1044h-143l31 170h979l-68 -376h-186l36 206h-448l-76 -426h432l-30 -170h-433l-77 -448h454l39 217h187l-68 -387h-985zM483 1636q0 75 42.5 114.5t109.5 39.5q46 0 76 -26t30 -76q0 -74 -44 -111t-105 -37q-50 0 -79.5 23.5t-29.5 72.5zM860 1636 q0 75 42.5 114.5t109.5 39.5q44 0 74 -26t30 -76q0 -74 -44 -111t-105 -37q-107 0 -107 96z" />
<glyph unicode="&#xcc;" horiz-adv-x="692" d="M-14 0l30 170h160l184 1044h-159l28 170h519l-31 -170h-154l-184 -1044h153l-30 -170h-516zM305 1843h203l90 -325h-176z" />
<glyph unicode="&#xcd;" horiz-adv-x="692" d="M-14 0l30 170h160l184 1044h-159l28 170h519l-31 -170h-154l-184 -1044h153l-30 -170h-516zM406 1518l206 325h205l-231 -325h-180z" />
<glyph unicode="&#xce;" horiz-adv-x="692" d="M-14 0l30 170h160l184 1044h-159l28 170h519l-31 -170h-154l-184 -1044h153l-30 -170h-516zM203 1518l233 325h248l115 -325h-170l-84 213l-158 -213h-184z" />
<glyph unicode="&#xcf;" horiz-adv-x="692" d="M-14 0l30 170h160l184 1044h-159l28 170h519l-31 -170h-154l-184 -1044h153l-30 -170h-516zM213 1636q0 75 42.5 114.5t109.5 39.5q46 0 76 -26t30 -76q0 -74 -44 -111t-105 -37q-50 0 -79.5 23.5t-29.5 72.5zM590 1636q0 75 42.5 114.5t108.5 39.5q44 0 74.5 -26 t30.5 -76q0 -74 -44.5 -111t-105.5 -37q-106 0 -106 96z" />
<glyph unicode="&#xd0;" horiz-adv-x="1384" d="M16 0l29 170h145l82 467h-145l23 127h145l80 450h-146l31 170h473q301 0 441.5 -129.5t140.5 -386.5q0 -201 -47.5 -359t-144 -272.5t-250 -175.5t-357.5 -61h-500zM393 170h156q265 0 411 177t146 521q0 168 -92.5 257t-282.5 89h-158l-77 -450h311l-23 -127h-311z" />
<glyph unicode="&#xd1;" horiz-adv-x="1492" d="M-2 0l29 170h135l184 1044h-135l31 170h368l426 -1083l160 913h-199l29 170h537l-31 -170h-135l-215 -1214h-226l-432 1085l-159 -915h210l-28 -170h-549zM641 1602l33 149q46 -49 112 -49q47 0 146.5 39t171.5 39q74 0 133 -47l-33 -152q-57 51 -127 51 q-43 0 -145.5 -39t-165.5 -39q-77 0 -125 48z" />
<glyph unicode="&#xd2;" horiz-adv-x="1327" d="M104 471q0 112 17.5 221t53 215t94 195.5t134.5 158t181 107.5t227 39q119 0 208.5 -37.5t141.5 -105.5t77.5 -153.5t25.5 -190.5q0 -156 -27.5 -296t-85.5 -258.5t-140.5 -205t-198.5 -135t-255 -48.5q-115 0 -203.5 39t-142 107.5t-80.5 156t-27 191.5zM324 471 q0 -144 63 -227.5t199 -83.5q139 0 243.5 94.5t161 266t56.5 397.5q0 133 -64.5 219t-196.5 86q-109 0 -198 -63t-146 -168.5t-87.5 -239.5t-30.5 -281zM651 1843h203l90 -325h-176z" />
<glyph unicode="&#xd3;" horiz-adv-x="1327" d="M104 471q0 112 17.5 221t53 215t94 195.5t134.5 158t181 107.5t227 39q119 0 208.5 -37.5t141.5 -105.5t77.5 -153.5t25.5 -190.5q0 -156 -27.5 -296t-85.5 -258.5t-140.5 -205t-198.5 -135t-255 -48.5q-115 0 -203.5 39t-142 107.5t-80.5 156t-27 191.5zM324 471 q0 -144 63 -227.5t199 -83.5q139 0 243.5 94.5t161 266t56.5 397.5q0 133 -64.5 219t-196.5 86q-109 0 -198 -63t-146 -168.5t-87.5 -239.5t-30.5 -281zM723 1518l207 325h205l-232 -325h-180z" />
<glyph unicode="&#xd4;" horiz-adv-x="1327" d="M104 471q0 112 17.5 221t53 215t94 195.5t134.5 158t181 107.5t227 39q119 0 208.5 -37.5t141.5 -105.5t77.5 -153.5t25.5 -190.5q0 -156 -27.5 -296t-85.5 -258.5t-140.5 -205t-198.5 -135t-255 -48.5q-115 0 -203.5 39t-142 107.5t-80.5 156t-27 191.5zM324 471 q0 -144 63 -227.5t199 -83.5q139 0 243.5 94.5t161 266t56.5 397.5q0 133 -64.5 219t-196.5 86q-109 0 -198 -63t-146 -168.5t-87.5 -239.5t-30.5 -281zM535 1518l233 325h248l114 -325h-169l-84 213l-158 -213h-184z" />
<glyph unicode="&#xd5;" horiz-adv-x="1327" d="M104 471q0 112 17.5 221t53 215t94 195.5t134.5 158t181 107.5t227 39q119 0 208.5 -37.5t141.5 -105.5t77.5 -153.5t25.5 -190.5q0 -156 -27.5 -296t-85.5 -258.5t-140.5 -205t-198.5 -135t-255 -48.5q-115 0 -203.5 39t-142 107.5t-80.5 156t-27 191.5zM324 471 q0 -144 63 -227.5t199 -83.5q139 0 243.5 94.5t161 266t56.5 397.5q0 133 -64.5 219t-196.5 86q-109 0 -198 -63t-146 -168.5t-87.5 -239.5t-30.5 -281zM553 1602l33 149q46 -49 112 -49q47 0 146.5 39t171.5 39q74 0 133 -47l-33 -152q-57 51 -127 51q-43 0 -145.5 -39 t-165.5 -39q-77 0 -125 48z" />
<glyph unicode="&#xd6;" horiz-adv-x="1327" d="M104 471q0 112 17.5 221t53 215t94 195.5t134.5 158t181 107.5t227 39q119 0 208.5 -37.5t141.5 -105.5t77.5 -153.5t25.5 -190.5q0 -156 -27.5 -296t-85.5 -258.5t-140.5 -205t-198.5 -135t-255 -48.5q-115 0 -203.5 39t-142 107.5t-80.5 156t-27 191.5zM324 471 q0 -144 63 -227.5t199 -83.5q139 0 243.5 94.5t161 266t56.5 397.5q0 133 -64.5 219t-196.5 86q-109 0 -198 -63t-146 -168.5t-87.5 -239.5t-30.5 -281zM537 1636q0 75 42.5 114.5t108.5 39.5q46 0 76.5 -26t30.5 -76q0 -74 -44.5 -111t-105.5 -37q-50 0 -79 23.5t-29 72.5z M913 1636q0 75 42.5 114.5t109.5 39.5q44 0 74 -26t30 -76q0 -74 -44 -111t-105 -37q-107 0 -107 96z" />
<glyph unicode="&#xd7;" d="M109 868l141 142l323 -324l316 320l133 -132l-317 -319l323 -324l-141 -139l-324 324l-313 -316l-131 133l313 314z" />
<glyph unicode="&#xd8;" horiz-adv-x="1327" d="M104 471q0 112 17.5 221t53 215t94 195.5t134.5 158t181 107.5t227 39q99 0 186 -33l43 72h162l-6 -25l-72 -121q140 -129 140 -380q0 -156 -27.5 -296t-85.5 -258.5t-140.5 -205t-198.5 -135t-255 -48.5q-110 0 -195 37l-55 -92h-155l6 27l82 141q-136 136 -136 381z M324 471q0 -110 38 -172l533 903q-54 21 -109 21q-109 0 -198 -63t-146 -168.5t-87.5 -239.5t-30.5 -281zM463 184q44 -24 123 -24q139 0 243.5 94.5t161 266t56.5 397.5q0 102 -50 167z" />
<glyph unicode="&#xd9;" horiz-adv-x="1380" d="M172 1214l31 170h514l-31 -170h-182l-125 -702q-34 -189 28 -270.5t207 -81.5q146 0 237.5 82t125.5 270l123 702h-180l28 170h514l-30 -170h-134l-122 -698q-50 -285 -196 -410.5t-378 -125.5q-113 0 -199.5 30.5t-147 95.5t-79 166.5t3.5 243.5l123 698h-131zM645 1843 h203l90 -325h-176z" />
<glyph unicode="&#xda;" horiz-adv-x="1380" d="M172 1214l31 170h514l-31 -170h-182l-125 -702q-34 -189 28 -270.5t207 -81.5q146 0 237.5 82t125.5 270l123 702h-180l28 170h514l-30 -170h-134l-122 -698q-50 -285 -196 -410.5t-378 -125.5q-113 0 -199.5 30.5t-147 95.5t-79 166.5t3.5 243.5l123 698h-131zM748 1518 l206 325h205l-231 -325h-180z" />
<glyph unicode="&#xdb;" horiz-adv-x="1380" d="M172 1214l31 170h514l-31 -170h-182l-125 -702q-34 -189 28 -270.5t207 -81.5q146 0 237.5 82t125.5 270l123 702h-180l28 170h514l-30 -170h-134l-122 -698q-50 -285 -196 -410.5t-378 -125.5q-113 0 -199.5 30.5t-147 95.5t-79 166.5t3.5 243.5l123 698h-131zM543 1518 l233 325h248l115 -325h-170l-84 213l-158 -213h-184z" />
<glyph unicode="&#xdc;" horiz-adv-x="1380" d="M172 1214l31 170h514l-31 -170h-182l-125 -702q-34 -189 28 -270.5t207 -81.5q146 0 237.5 82t125.5 270l123 702h-180l28 170h514l-30 -170h-134l-122 -698q-50 -285 -196 -410.5t-378 -125.5q-113 0 -199.5 30.5t-147 95.5t-79 166.5t3.5 243.5l123 698h-131zM559 1636 q0 75 42.5 114.5t109.5 39.5q46 0 76 -26t30 -76q0 -74 -44 -111t-105 -37q-50 0 -79.5 23.5t-29.5 72.5zM936 1636q0 75 42.5 114.5t108.5 39.5q44 0 74.5 -26t30.5 -76q0 -74 -44.5 -111t-105.5 -37q-106 0 -106 96z" />
<glyph unicode="&#xdd;" horiz-adv-x="1255" d="M121 1214l29 170h497l-29 -170h-167l188 -497l371 497h-170l30 170h521l-29 -170h-125l-518 -667l-68 -377h172l-30 -170h-553l30 170h181l67 377l-270 667h-127zM686 1518l207 325h205l-232 -325h-180z" />
<glyph unicode="&#xde;" horiz-adv-x="1187" d="M-6 0l31 170h141l184 1044h-143l31 170h583l-30 -170h-240l-25 -135h226q405 0 405 -325q0 -213 -127.5 -328t-388.5 -115h-250l-24 -141h241l-30 -170h-584zM422 483h237q84 0 142 19.5t88.5 56t43.5 81t13 103.5q0 168 -213 168h-235z" />
<glyph unicode="&#xdf;" horiz-adv-x="1124" d="M-190 -444l32 168q30 -9 74 -9q43 0 63 23t29 78l209 1196q35 205 145.5 319.5t296.5 114.5q171 0 256.5 -85t85.5 -214q0 -57 -24 -115t-58.5 -103.5t-69.5 -86t-59 -77.5t-24 -63q0 -44 59 -92l78 -73q131 -114 131 -246q0 -137 -112 -225.5t-279 -88.5q-162 0 -278 64 l34 244h142l6 -135q46 -19 100 -19q75 0 128.5 47.5t53.5 114.5q0 38 -25.5 79.5t-60.5 73.5l-69 64q-55 52 -83 92.5t-28 87.5q0 43 36.5 100t79.5 105t79.5 111.5t36.5 117.5q0 68 -43.5 109t-116.5 41q-180 0 -227 -254l-215 -1210q-26 -151 -89 -212t-194 -61 q-52 0 -100 19z" />
<glyph unicode="&#xe0;" horiz-adv-x="1056" d="M51 324q0 279 131.5 454.5t341.5 175.5q81 0 142.5 -29.5t97.5 -74.5l80 84h104l-121 -707q-7 -36 2.5 -49.5t40.5 -13.5h56l-33 -164q-44 -8 -115 -8q-73 0 -108 34t-33 101q-47 -64 -123 -107t-168 -43q-137 0 -216 93.5t-79 253.5zM254 352q0 -194 166 -194 q60 0 117.5 33.5t97.5 78.5l72 412q-52 92 -177 92q-74 0 -130.5 -41t-86.5 -106.5t-44.5 -135t-14.5 -139.5zM453 1425h202l90 -325h-176z" />
<glyph unicode="&#xe1;" horiz-adv-x="1056" d="M51 324q0 279 131.5 454.5t341.5 175.5q81 0 142.5 -29.5t97.5 -74.5l80 84h104l-121 -707q-7 -36 2.5 -49.5t40.5 -13.5h56l-33 -164q-44 -8 -115 -8q-73 0 -108 34t-33 101q-47 -64 -123 -107t-168 -43q-137 0 -216 93.5t-79 253.5zM254 352q0 -194 166 -194 q60 0 117.5 33.5t97.5 78.5l72 412q-52 92 -177 92q-74 0 -130.5 -41t-86.5 -106.5t-44.5 -135t-14.5 -139.5zM516 1100l207 325h205l-232 -325h-180z" />
<glyph unicode="&#xe2;" horiz-adv-x="1056" d="M51 324q0 279 131.5 454.5t341.5 175.5q81 0 142.5 -29.5t97.5 -74.5l80 84h104l-121 -707q-7 -36 2.5 -49.5t40.5 -13.5h56l-33 -164q-44 -8 -115 -8q-73 0 -108 34t-33 101q-47 -64 -123 -107t-168 -43q-137 0 -216 93.5t-79 253.5zM254 352q0 -194 166 -194 q60 0 117.5 33.5t97.5 78.5l72 412q-52 92 -177 92q-74 0 -130.5 -41t-86.5 -106.5t-44.5 -135t-14.5 -139.5zM309 1100l234 325h248l114 -325h-170l-84 213l-157 -213h-185z" />
<glyph unicode="&#xe3;" horiz-adv-x="1056" d="M51 324q0 279 131.5 454.5t341.5 175.5q81 0 142.5 -29.5t97.5 -74.5l80 84h104l-121 -707q-7 -36 2.5 -49.5t40.5 -13.5h56l-33 -164q-44 -8 -115 -8q-73 0 -108 34t-33 101q-47 -64 -123 -107t-168 -43q-137 0 -216 93.5t-79 253.5zM254 352q0 -194 166 -194 q60 0 117.5 33.5t97.5 78.5l72 412q-52 92 -177 92q-74 0 -130.5 -41t-86.5 -106.5t-44.5 -135t-14.5 -139.5zM336 1184l33 149q46 -49 112 -49q47 0 146.5 39t171.5 39q74 0 133 -47l-33 -152q-57 51 -127 51q-43 0 -145.5 -38.5t-165.5 -38.5q-78 0 -125 47z" />
<glyph unicode="&#xe4;" horiz-adv-x="1056" d="M51 324q0 279 131.5 454.5t341.5 175.5q81 0 142.5 -29.5t97.5 -74.5l80 84h104l-121 -707q-7 -36 2.5 -49.5t40.5 -13.5h56l-33 -164q-44 -8 -115 -8q-73 0 -108 34t-33 101q-47 -64 -123 -107t-168 -43q-137 0 -216 93.5t-79 253.5zM254 352q0 -194 166 -194 q60 0 117.5 33.5t97.5 78.5l72 412q-52 92 -177 92q-74 0 -130.5 -41t-86.5 -106.5t-44.5 -135t-14.5 -139.5zM324 1219q0 75 42 114t109 39q46 0 76.5 -26t30.5 -76q0 -74 -44.5 -111t-105.5 -37q-50 0 -79 24t-29 73zM700 1219q0 75 42.5 114t109.5 39q44 0 74 -26t30 -76 q0 -74 -44 -111t-105 -37q-50 0 -78.5 24t-28.5 73z" />
<glyph unicode="&#xe5;" horiz-adv-x="1056" d="M51 324q0 279 131.5 454.5t341.5 175.5q81 0 142.5 -29.5t97.5 -74.5l80 84h104l-121 -707q-7 -36 2.5 -49.5t40.5 -13.5h56l-33 -164q-44 -8 -115 -8q-73 0 -108 34t-33 101q-47 -64 -123 -107t-168 -43q-137 0 -216 93.5t-79 253.5zM254 352q0 -194 166 -194 q60 0 117.5 33.5t97.5 78.5l72 412q-52 92 -177 92q-74 0 -130.5 -41t-86.5 -106.5t-44.5 -135t-14.5 -139.5zM432 1237q0 97 69 165t181 68q87 0 133.5 -46.5t46.5 -116.5q0 -95 -71.5 -163.5t-186.5 -68.5q-82 0 -127 47t-45 115zM551 1253q0 -33 19.5 -52t56.5 -19 q52 0 82 31t30 77q0 33 -19.5 54.5t-57.5 21.5q-50 0 -80.5 -33t-30.5 -80z" />
<glyph unicode="&#xe6;" horiz-adv-x="1499" d="M6 188q0 75 23.5 130.5t63 92t105 61t134.5 38t166 22.5l137 17l35 207q-76 26 -178 26q-87 0 -140 -26l-26 -150h-166q-10 38 -10 80q0 126 101 197t298 71q221 0 272 -108q111 108 293 108q157 0 234 -90t77 -229q0 -88 -49 -232h-563q-40 -253 182 -253q146 0 293 90 l39 -156q-175 -107 -381 -107q-107 0 -182.5 44t-106.5 120q-65 -73 -176 -118.5t-229 -45.5q-120 0 -183 56.5t-63 154.5zM221 231q0 -92 111 -92q67 0 133 29.5t115 71.5l30 176l-133 -19q-139 -19 -197.5 -57.5t-58.5 -108.5zM840 553h385q14 28 14 78q0 75 -41.5 118.5 t-112.5 43.5q-185 0 -245 -240z" />
<glyph unicode="&#xe7;" horiz-adv-x="911" d="M53 350q0 124 32.5 233t93 192t156.5 131t216 48q172 0 323 -82l-69 -311h-164l25 205q-70 25 -121 25q-126 0 -201.5 -121t-75.5 -295q0 -217 191 -217q57 0 138 23t140 55l21 -160q-134 -77 -273 -94l-53 -99q24 8 62 8q52 0 86 -32t34 -84q0 -83 -62.5 -133 t-180.5 -50q-89 0 -191 48l35 96q86 -51 162 -51q45 0 68.5 20.5t23.5 56.5q0 24 -14.5 39t-40.5 15t-60 -17q-42 19 -65 29l82 152q-159 12 -238.5 111t-79.5 259z" />
<glyph unicode="&#xe8;" horiz-adv-x="970" d="M51 338q0 172 60.5 311t177 222t268.5 83q89 0 156.5 -25.5t107 -70t59 -100t19.5 -121.5q0 -113 -47 -234h-598q-4 -50 -4 -63q0 -88 50.5 -139t148.5 -51q146 0 311 100l39 -154q-191 -119 -365 -119q-189 0 -286 96t-97 265zM285 555h411q13 47 13 86 q0 75 -45.5 114.5t-120.5 39.5q-98 0 -165 -66.5t-93 -173.5zM418 1425h203l90 -325h-176z" />
<glyph unicode="&#xe9;" horiz-adv-x="970" d="M51 338q0 172 60.5 311t177 222t268.5 83q89 0 156.5 -25.5t107 -70t59 -100t19.5 -121.5q0 -113 -47 -234h-598q-4 -50 -4 -63q0 -88 50.5 -139t148.5 -51q146 0 311 100l39 -154q-191 -119 -365 -119q-189 0 -286 96t-97 265zM285 555h411q13 47 13 86 q0 75 -45.5 114.5t-120.5 39.5q-98 0 -165 -66.5t-93 -173.5zM481 1100l207 325h205l-231 -325h-181z" />
<glyph unicode="&#xea;" horiz-adv-x="970" d="M51 338q0 172 60.5 311t177 222t268.5 83q89 0 156.5 -25.5t107 -70t59 -100t19.5 -121.5q0 -113 -47 -234h-598q-4 -50 -4 -63q0 -88 50.5 -139t148.5 -51q146 0 311 100l39 -154q-191 -119 -365 -119q-189 0 -286 96t-97 265zM285 555h411q13 47 13 86 q0 75 -45.5 114.5t-120.5 39.5q-98 0 -165 -66.5t-93 -173.5zM293 1100l233 325h248l115 -325h-170l-84 213l-158 -213h-184z" />
<glyph unicode="&#xeb;" horiz-adv-x="970" d="M51 338q0 172 60.5 311t177 222t268.5 83q89 0 156.5 -25.5t107 -70t59 -100t19.5 -121.5q0 -113 -47 -234h-598q-4 -50 -4 -63q0 -88 50.5 -139t148.5 -51q146 0 311 100l39 -154q-191 -119 -365 -119q-189 0 -286 96t-97 265zM285 555h411q13 47 13 86 q0 75 -45.5 114.5t-120.5 39.5q-98 0 -165 -66.5t-93 -173.5zM303 1219q0 75 42.5 114t109.5 39q46 0 76 -26t30 -76q0 -74 -44 -111t-105 -37q-50 0 -79.5 24t-29.5 73zM680 1219q0 75 42 114t109 39q44 0 74.5 -26t30.5 -76q0 -74 -44.5 -111t-105.5 -37q-106 0 -106 97z " />
<glyph unicode="&#xec;" horiz-adv-x="667" d="M-29 0l31 168h195l106 598h-194l28 168h385l-135 -766h182l-30 -168h-568zM258 1425h203l90 -325h-176z" />
<glyph unicode="&#xed;" horiz-adv-x="667" d="M-29 0l31 168h195l106 598h-194l28 168h385l-135 -766h182l-30 -168h-568zM346 1100l207 325h205l-232 -325h-180z" />
<glyph unicode="&#xee;" horiz-adv-x="667" d="M-29 0l31 168h195l106 598h-194l28 168h385l-135 -766h182l-30 -168h-568zM111 1100l233 325h248l115 -325h-170l-84 213l-158 -213h-184z" />
<glyph unicode="&#xef;" horiz-adv-x="667" d="M-29 0l31 168h195l106 598h-194l28 168h385l-135 -766h182l-30 -168h-568zM129 1219q0 75 42.5 114t109.5 39q46 0 76 -26t30 -76q0 -74 -44 -111t-105 -37q-50 0 -79.5 24t-29.5 73zM506 1219q0 75 42 114t109 39q44 0 74.5 -26t30.5 -76q0 -74 -44.5 -111t-105.5 -37 q-106 0 -106 97z" />
<glyph unicode="&#xf0;" horiz-adv-x="1050" d="M55 371q0 144 52.5 267t154 200t232.5 77q100 0 166.5 -53.5t97.5 -128.5q4 70 4 125q0 103 -29 219l-145 -65l-45 121l145 65q-57 123 -158 227h240q52 -55 98 -155l123 55l47 -119l-123 -53q48 -162 48 -322q0 -119 -16.5 -233.5t-57 -228.5t-101 -199.5t-156.5 -139 t-216 -53.5q-176 0 -268.5 108t-92.5 286zM258 381q0 -97 44 -159t134 -62q117 0 186.5 101.5t98.5 273.5q-25 83 -79 133.5t-136 50.5q-79 0 -136.5 -49t-84.5 -124t-27 -165z" />
<glyph unicode="&#xf1;" horiz-adv-x="1159" d="M-23 0l31 168h137l101 598h-129l28 168h267l18 -113q128 133 305 133q84 0 143.5 -29t87 -77.5t37 -111t-5.5 -130.5l-77 -438h145l-31 -168h-137q-102 0 -141.5 45t-24.5 135l74 412q31 180 -158 180q-67 0 -125.5 -25t-97.5 -59l-92 -520h172l-33 -168h-494zM375 1184 l33 149q46 -49 112 -49q47 0 146.5 39t171.5 39q74 0 133 -47l-33 -152q-57 51 -127 51q-43 0 -145.5 -38.5t-165.5 -38.5q-78 0 -125 47z" />
<glyph unicode="&#xf2;" horiz-adv-x="993" d="M53 346q0 92 17.5 177.5t56.5 164.5t96 137.5t141.5 93.5t186.5 35q175 0 263.5 -99t88.5 -269q0 -90 -17.5 -175.5t-56.5 -164.5t-95.5 -138.5t-141 -95t-186.5 -35.5q-173 0 -263 99.5t-90 269.5zM254 352q0 -196 174 -196q128 0 202.5 119t74.5 305q0 196 -175 196 q-129 0 -202.5 -118t-73.5 -306zM406 1425h202l90 -325h-176z" />
<glyph unicode="&#xf3;" horiz-adv-x="993" d="M53 346q0 92 17.5 177.5t56.5 164.5t96 137.5t141.5 93.5t186.5 35q175 0 263.5 -99t88.5 -269q0 -90 -17.5 -175.5t-56.5 -164.5t-95.5 -138.5t-141 -95t-186.5 -35.5q-173 0 -263 99.5t-90 269.5zM254 352q0 -196 174 -196q128 0 202.5 119t74.5 305q0 196 -175 196 q-129 0 -202.5 -118t-73.5 -306zM492 1100l206 325h205l-231 -325h-180z" />
<glyph unicode="&#xf4;" horiz-adv-x="993" d="M53 346q0 92 17.5 177.5t56.5 164.5t96 137.5t141.5 93.5t186.5 35q175 0 263.5 -99t88.5 -269q0 -90 -17.5 -175.5t-56.5 -164.5t-95.5 -138.5t-141 -95t-186.5 -35.5q-173 0 -263 99.5t-90 269.5zM254 352q0 -196 174 -196q128 0 202.5 119t74.5 305q0 196 -175 196 q-129 0 -202.5 -118t-73.5 -306zM297 1100l233 325h248l115 -325h-170l-84 213l-158 -213h-184z" />
<glyph unicode="&#xf5;" horiz-adv-x="993" d="M53 346q0 92 17.5 177.5t56.5 164.5t96 137.5t141.5 93.5t186.5 35q175 0 263.5 -99t88.5 -269q0 -90 -17.5 -175.5t-56.5 -164.5t-95.5 -138.5t-141 -95t-186.5 -35.5q-173 0 -263 99.5t-90 269.5zM254 352q0 -196 174 -196q128 0 202.5 119t74.5 305q0 196 -175 196 q-129 0 -202.5 -118t-73.5 -306zM330 1184l32 149q46 -49 113 -49q47 0 146.5 39t171.5 39q74 0 133 -47l-33 -152q-57 51 -127 51q-43 0 -145.5 -38.5t-165.5 -38.5q-78 0 -125 47z" />
<glyph unicode="&#xf6;" horiz-adv-x="993" d="M53 346q0 92 17.5 177.5t56.5 164.5t96 137.5t141.5 93.5t186.5 35q175 0 263.5 -99t88.5 -269q0 -90 -17.5 -175.5t-56.5 -164.5t-95.5 -138.5t-141 -95t-186.5 -35.5q-173 0 -263 99.5t-90 269.5zM254 352q0 -196 174 -196q128 0 202.5 119t74.5 305q0 196 -175 196 q-129 0 -202.5 -118t-73.5 -306zM309 1219q0 75 42.5 114t109.5 39q46 0 76 -26t30 -76q0 -74 -44 -111t-105 -37q-50 0 -79.5 24t-29.5 73zM686 1219q0 75 42.5 114t109.5 39q44 0 74 -26t30 -76q0 -74 -44 -111t-105 -37q-50 0 -78.5 24t-28.5 73z" />
<glyph unicode="&#xf7;" d="M86 461v186h969v-186h-969zM436 178q0 58 39.5 96.5t99.5 38.5t100 -38.5t40 -96.5q0 -57 -40 -95t-100 -38t-99.5 38t-39.5 95zM436 926q0 58 39.5 95.5t99.5 37.5t100 -37.5t40 -95.5t-40 -96.5t-100 -38.5t-99.5 38.5t-39.5 96.5z" />
<glyph unicode="&#xf8;" horiz-adv-x="993" d="M53 346q0 92 17.5 177.5t56.5 164.5t96 137.5t141.5 93.5t186.5 35q61 0 131 -18l61 111h129l-4 -25l-82 -141q117 -99 117 -295q0 -90 -17.5 -175.5t-56.5 -164.5t-95.5 -138.5t-141 -95t-186.5 -35.5q-58 0 -132 19l-61 -111h-123l6 27l78 137q-121 91 -121 297z M254 352q0 -72 39 -108l287 528q-28 4 -50 4q-129 0 -202.5 -118t-73.5 -306zM377 160q14 -4 51 -4q128 0 202.5 119t74.5 305q0 74 -37 108z" />
<glyph unicode="&#xf9;" horiz-adv-x="1124" d="M68 766l30 168h320l-103 -586q-35 -188 121 -188q80 0 149.5 40.5t114.5 96.5l82 469h-151l31 168h342l-138 -766h144l-33 -168h-129q-74 0 -105.5 35t-33.5 102q-55 -70 -140.5 -115t-187.5 -45q-85 0 -143.5 28t-85.5 76t-35.5 112.5t6.5 136.5l76 436h-131zM406 1425 h202l90 -325h-176z" />
<glyph unicode="&#xfa;" horiz-adv-x="1124" d="M68 766l30 168h320l-103 -586q-35 -188 121 -188q80 0 149.5 40.5t114.5 96.5l82 469h-151l31 168h342l-138 -766h144l-33 -168h-129q-74 0 -105.5 35t-33.5 102q-55 -70 -140.5 -115t-187.5 -45q-85 0 -143.5 28t-85.5 76t-35.5 112.5t6.5 136.5l76 436h-131zM510 1100 l207 325h205l-232 -325h-180z" />
<glyph unicode="&#xfb;" horiz-adv-x="1124" d="M68 766l30 168h320l-103 -586q-35 -188 121 -188q80 0 149.5 40.5t114.5 96.5l82 469h-151l31 168h342l-138 -766h144l-33 -168h-129q-74 0 -105.5 35t-33.5 102q-55 -70 -140.5 -115t-187.5 -45q-85 0 -143.5 28t-85.5 76t-35.5 112.5t6.5 136.5l76 436h-131zM315 1100 l234 325h248l114 -325h-170l-84 213l-157 -213h-185z" />
<glyph unicode="&#xfc;" horiz-adv-x="1124" d="M68 766l30 168h320l-103 -586q-35 -188 121 -188q80 0 149.5 40.5t114.5 96.5l82 469h-151l31 168h342l-138 -766h144l-33 -168h-129q-74 0 -105.5 35t-33.5 102q-55 -70 -140.5 -115t-187.5 -45q-85 0 -143.5 28t-85.5 76t-35.5 112.5t6.5 136.5l76 436h-131zM324 1219 q0 75 42 114t109 39q46 0 76.5 -26t30.5 -76q0 -74 -44.5 -111t-105.5 -37q-50 0 -79 24t-29 73zM700 1219q0 75 42.5 114t109.5 39q44 0 74 -26t30 -76q0 -74 -44 -111t-105 -37q-50 0 -78.5 24t-28.5 73z" />
<glyph unicode="&#xfd;" horiz-adv-x="1138" d="M-45 -430l25 141h233l182 307l-178 748h-164l29 168h373l-29 -164l102 -539l308 535h-209l26 168h531l-29 -168h-119l-622 -1047q-58 -100 -126.5 -141t-152.5 -41q-112 0 -180 33zM557 1100l207 325h205l-232 -325h-180z" />
<glyph unicode="&#xfe;" horiz-adv-x="1044" d="M-152 -442l29 157l117 27l266 1515h-133l31 168h321l-108 -585q110 114 266 114t234.5 -94.5t78.5 -263.5q0 -134 -29.5 -245.5t-87.5 -195.5t-152 -131t-216 -47q-154 0 -221 105l-64 -356h201l-31 -168h-502zM274 250q19 -37 63.5 -64.5t117.5 -27.5q138 0 215.5 101.5 t77.5 303.5q0 96 -44 153.5t-141 57.5q-127 0 -215 -100z" />
<glyph unicode="&#xff;" horiz-adv-x="1138" d="M-45 -430l25 141h233l182 307l-178 748h-164l29 168h373l-29 -164l102 -539l308 535h-209l26 168h531l-29 -168h-119l-622 -1047q-58 -100 -126.5 -141t-152.5 -41q-112 0 -180 33zM371 1219q0 75 42 114t109 39q46 0 76.5 -26t30.5 -76q0 -74 -44.5 -111t-105.5 -37 q-50 0 -79 24t-29 73zM748 1219q0 75 42 114t109 39q44 0 74.5 -26t30.5 -76q0 -74 -44.5 -111t-105.5 -37q-106 0 -106 97z" />
<glyph unicode="&#x152;" horiz-adv-x="1783" d="M104 483q0 120 19.5 233t57.5 216.5t98 190t137 150t178.5 99t218.5 35.5q94 0 193 -23h815l-68 -376h-188l39 206h-449l-76 -426h432l-30 -170h-432l-78 -448h454l39 217h187l-68 -387h-825q-94 -23 -201 -23q-95 0 -172 26.5t-128.5 73t-86.5 111t-50.5 138 t-15.5 157.5zM324 496q0 -336 268 -336q111 0 182 28l176 1004q-67 31 -170 31q-88 0 -164 -43t-128.5 -114.5t-90 -165.5t-55.5 -197t-18 -207z" />
<glyph unicode="&#x153;" horiz-adv-x="1609" d="M53 346q0 90 17.5 175t56.5 164.5t96 138.5t141.5 94.5t186.5 35.5q119 0 188.5 -50t108.5 -140q130 190 348 190q89 0 156 -25.5t107 -70t59.5 -100t19.5 -121.5q0 -113 -47 -234h-590q-4 -46 -4 -63q0 -88 48 -139t145 -51q144 0 309 100l39 -154q-185 -119 -371 -119 q-127 0 -200 48t-113 137q-66 -88 -147 -136.5t-201 -48.5q-173 0 -263 99.5t-90 269.5zM254 352q0 -196 174 -196q127 0 198.5 118.5t71.5 305.5q0 96 -39 146t-129 50q-129 0 -202.5 -118t-73.5 -306zM930 555h403q13 47 13 86q0 75 -45 114.5t-119 39.5q-98 0 -162 -66 t-90 -174z" />
<glyph unicode="&#x178;" horiz-adv-x="1255" d="M121 1214l29 170h497l-29 -170h-167l188 -497l371 497h-170l30 170h521l-29 -170h-125l-518 -667l-68 -377h172l-30 -170h-553l30 170h181l67 377l-270 667h-127zM487 1636q0 75 42.5 114.5t109.5 39.5q46 0 76 -26t30 -76q0 -74 -44 -111t-105 -37q-50 0 -79.5 23.5 t-29.5 72.5zM864 1636q0 75 42.5 114.5t109.5 39.5q44 0 74 -26t30 -76q0 -74 -44 -111t-105 -37q-107 0 -107 96z" />
<glyph unicode="&#x2c6;" horiz-adv-x="1191" d="M492 1100l233 325h248l114 -325h-169l-84 213l-158 -213h-184z" />
<glyph unicode="&#x2dc;" horiz-adv-x="1191" d="M516 1184l33 149q46 -49 113 -49q47 0 146 39t171 39q74 0 133 -47l-33 -152q-57 51 -127 51q-43 0 -145.5 -38.5t-165.5 -38.5q-78 0 -125 47z" />
<glyph unicode="&#x2000;" horiz-adv-x="944" />
<glyph unicode="&#x2001;" horiz-adv-x="1888" />
<glyph unicode="&#x2002;" horiz-adv-x="944" />
<glyph unicode="&#x2003;" horiz-adv-x="1888" />
<glyph unicode="&#x2004;" horiz-adv-x="629" />
<glyph unicode="&#x2005;" horiz-adv-x="472" />
<glyph unicode="&#x2006;" horiz-adv-x="314" />
<glyph unicode="&#x2007;" horiz-adv-x="314" />
<glyph unicode="&#x2008;" horiz-adv-x="236" />
<glyph unicode="&#x2009;" horiz-adv-x="377" />
<glyph unicode="&#x200a;" horiz-adv-x="104" />
<glyph unicode="&#x2010;" d="M211 459v186h717v-186h-717z" />
<glyph unicode="&#x2011;" d="M211 459v186h717v-186h-717z" />
<glyph unicode="&#x2012;" d="M211 459v186h717v-186h-717z" />
<glyph unicode="&#x2013;" horiz-adv-x="1208" d="M119 459v186h962v-186h-962z" />
<glyph unicode="&#x2014;" horiz-adv-x="1495" d="M119 459v186h1249v-186h-1249z" />
<glyph unicode="&#x2018;" horiz-adv-x="419" d="M133 901l193 483h147l-125 -483h-215z" />
<glyph unicode="&#x2019;" horiz-adv-x="409" d="M152 901l124 483h213l-188 -483h-149z" />
<glyph unicode="&#x201a;" horiz-adv-x="430" d="M-57 -227l125 483h215l-193 -483h-147z" />
<glyph unicode="&#x201c;" horiz-adv-x="727" d="M133 901l193 483h147l-125 -483h-215zM442 901l191 483h147l-125 -483h-213z" />
<glyph unicode="&#x201d;" horiz-adv-x="718" d="M152 901l124 483h213l-188 -483h-149zM459 901l127 483h213l-193 -483h-147z" />
<glyph unicode="&#x201e;" horiz-adv-x="737" d="M-57 -227l125 481h215l-193 -481h-147zM250 -227l125 481h213l-189 -481h-149z" />
<glyph unicode="&#x2022;" d="M317 551q0 104 71.5 173t180.5 69t179.5 -69t70.5 -173q0 -103 -71 -171.5t-179 -68.5q-109 0 -180.5 68.5t-71.5 171.5z" />
<glyph unicode="&#x2026;" horiz-adv-x="1280" d="M10 98q0 66 47 111t115 45q52 0 84.5 -32.5t32.5 -80.5q0 -65 -48 -109t-114 -44q-53 0 -85 31t-32 79zM422 98q0 66 48 111t116 45q51 0 82.5 -32.5t31.5 -80.5q0 -65 -47 -109t-114 -44q-52 0 -84.5 31t-32.5 79zM842 98q0 65 47.5 110.5t114.5 45.5q52 0 84 -32.5 t32 -80.5q0 -65 -47.5 -109t-114.5 -44q-52 0 -84 31t-32 79z" />
<glyph unicode="&#x202f;" horiz-adv-x="377" />
<glyph unicode="&#x2039;" horiz-adv-x="649" d="M63 553l453 453l109 -99l-324 -358l199 -356l-144 -93z" />
<glyph unicode="&#x203a;" horiz-adv-x="649" d="M18 197l326 358l-199 358l142 93l295 -453l-455 -453z" />
<glyph unicode="&#x205f;" horiz-adv-x="472" />
<glyph unicode="&#x20ac;" d="M74 477l24 137h90q2 60 17 142h-82l24 137h86q30 115 81.5 207.5t126 161t176 106t223.5 37.5q190 0 342 -84l-80 -174q-134 74 -275 74q-138 0 -233.5 -86.5t-144.5 -241.5h530l-55 -137h-508q-14 -75 -17 -142h478l-52 -137h-426q5 -137 70 -223t186 -86q158 0 310 78 l14 -178q-168 -91 -354 -91q-216 0 -324.5 131t-116.5 369h-110z" />
<glyph unicode="&#x2122;" horiz-adv-x="1388" d="M246 1085l28 158h406l-29 -158h-84l13 76h-72l-55 -323h65l-14 -80h-232l13 80h67l58 323h-66l-14 -76h-84zM637 758l14 80h47l95 323h-48l17 82h194l23 -373l160 373h194l-16 -82h-43l-25 -323h51l-12 -80h-203l15 80h55l25 295l-166 -375h-113l-27 370l-79 -290h55 l-14 -80h-199z" />
<glyph unicode="&#xe000;" horiz-adv-x="931" d="M0 0v932h932v-932h-932z" />
</font>
</defs>
</svg>
