<?xml version="1.0" standalone="no"?>
<!DOCTYPE svg PUBLIC "-//W3C//DTD SVG 1.1//EN" "http://www.w3.org/Graphics/SVG/1.1/DTD/svg11.dtd" >
<svg xmlns="http://www.w3.org/2000/svg">
<metadata></metadata>
<defs>
<font id="BrixSlabBlackItalic" horiz-adv-x="1146" >
<font-face units-per-em="2048" ascent="1475" descent="-573" />
<missing-glyph horiz-adv-x="409" />
<glyph unicode="&#xfb01;" horiz-adv-x="1302" d="M-199 -438l43 223q105 -6 140 -6q38 0 59.5 21t28.5 69l143 836h-164l43 229h162l35 205q22 132 110.5 219.5t239.5 87.5q106 0 178 -25l-43 -223q-105 6 -129 6q-46 0 -68 -21.5t-30 -68.5l-31 -180h660l-125 -707h168l-41 -227h-619l39 227h188l84 478h-395l-147 -861 q-28 -162 -115.5 -234.5t-263.5 -72.5q-77 0 -150 25zM930 1217q0 93 53 140.5t137 47.5q56 0 93.5 -33t37.5 -94q0 -91 -55 -135.5t-131 -44.5q-63 0 -99 29t-36 90z" />
<glyph unicode="&#xfb02;" horiz-adv-x="1193" d="M-201 -438l43 223q105 -6 140 -6q37 0 58 20.5t30 69.5l145 836h-123l41 229h123l27 149q14 79 48.5 143t92 114t145.5 78t199 28q220 0 403 -74l-186 -1087q-4 -28 10.5 -43t40.5 -15q48 0 105 11l-43 -240q-102 -21 -158 -21q-74 0 -125 24t-72.5 63t-29.5 88t4 100 l168 952q-7 2 -24 5.5t-22.5 4.5t-19.5 2.5t-28.5 2t-36.5 0.5q-194 0 -222 -150l-22 -135h192l-40 -229h-193l-141 -861q-26 -163 -114 -235t-265 -72q-77 0 -150 25z" />
<glyph horiz-adv-x="0" />
<glyph horiz-adv-x="0" />
<glyph horiz-adv-x="2048" />
<glyph unicode=" "  horiz-adv-x="409" />
<glyph unicode="&#x09;" horiz-adv-x="409" />
<glyph unicode="&#xa0;" horiz-adv-x="409" />
<glyph unicode="!" horiz-adv-x="559" d="M33 125q0 82 59.5 137t143.5 55q65 0 105 -39t40 -100q0 -81 -60 -135.5t-143 -54.5q-65 0 -105 39t-40 98zM147 469l115 915h326l-211 -915h-230z" />
<glyph unicode="&#x22;" horiz-adv-x="765" d="M154 885l63 499h252l-115 -499h-200zM518 885l68 499h245l-110 -499h-203z" />
<glyph unicode="#" horiz-adv-x="1347" d="M37 336l80 239h194l76 246h-190l77 240h193l104 323h260l-106 -323h176l105 323h258l-103 -323h197l-82 -240h-195l-77 -246h196l-80 -239h-198l-109 -336h-260l111 336h-175l-110 -336h-260l110 336h-192zM569 575h174l78 246h-176z" />
<glyph unicode="$" d="M23 76l53 379h237l17 -226q26 -16 96 -26l63 368l-51 23q-142 63 -200.5 147t-57.5 232q0 49 15 101t50.5 107t86.5 100t130.5 78t174.5 44l27 151h161l-26 -151q98 -9 188.5 -36.5t149.5 -63.5l-66 -369h-237v223q-33 11 -76 17l-64 -355l70 -24q147 -56 206.5 -144.5 t59.5 -224.5q0 -81 -29 -154.5t-86 -136t-151.5 -103.5t-216.5 -50l-33 -193h-162l33 191q-210 14 -362 96zM489 1004q0 -78 56 -119l49 274q-50 -23 -77.5 -65t-27.5 -90zM588 209q63 18 96 62.5t33 103.5q0 38 -19 75.5t-57 57.5z" />
<glyph unicode="%" horiz-adv-x="1626" d="M158 999q0 112 44.5 202.5t136 147t216.5 56.5q73 0 130 -22.5t91.5 -61.5t52 -88t17.5 -105q0 -83 -25.5 -156t-73.5 -129.5t-125.5 -89t-175.5 -32.5q-141 0 -214.5 79t-73.5 199zM209 0l4 31l1053 1353h194l-6 -30l-1057 -1354h-188zM387 1032q0 -45 23.5 -69.5 t68.5 -24.5q67 0 102 41.5t35 114.5q0 43 -24 67.5t-70 24.5q-65 0 -100 -41t-35 -113zM825 256q0 173 105.5 289.5t292.5 116.5q142 0 216 -79.5t74 -197.5q0 -84 -25 -156.5t-73.5 -129.5t-125.5 -89.5t-175 -32.5q-141 0 -215 79.5t-74 199.5zM1055 289q0 -45 23 -69.5 t67 -24.5q69 0 104 41t35 114q0 43 -24 67.5t-70 24.5q-65 0 -100 -40.5t-35 -112.5z" />
<glyph unicode="&#x26;" horiz-adv-x="1277" d="M25 324q0 154 92.5 261t222.5 144q-72 27 -116 91t-44 151q0 59 12 113.5t47 115t90.5 104t150.5 72.5t218 29q172 0 328 -66l-115 -233q-120 51 -247 51q-107 0 -154 -49.5t-47 -126.5q0 -152 172 -152h203l24 138l271 41l-31 -179h151l-41 -227h-151l-49 -285 q-15 -90 71 -90q15 0 97 11l-45 -234q-95 -27 -183 -27q-173 0 -211 138q-145 -138 -331 -138q-184 0 -284.5 93.5t-100.5 253.5zM322 362q0 -135 163 -135q67 0 125 20t135 64l52 291h-213q-131 0 -196.5 -66t-65.5 -174z" />
<glyph unicode="'" horiz-adv-x="397" d="M152 885l67 499h246l-113 -499h-200z" />
<glyph unicode="(" horiz-adv-x="587" d="M25 242q0 153 23.5 289.5t61.5 247.5t104.5 228.5t134.5 213.5t169 221l191 -80q-96 -148 -161 -267t-124.5 -263t-89 -296.5t-29.5 -316.5q0 -133 25 -294t69 -300l-215 -80q-75 144 -117 329.5t-42 367.5z" />
<glyph unicode=")" horiz-adv-x="585" d="M-145 -375q158 232 245 422.5t117.5 343.5t30.5 340q0 140 -24.5 315t-65.5 316l219 80q158 -351 158 -705q0 -179 -34 -341.5t-101.5 -309t-153.5 -275.5t-205 -266z" />
<glyph unicode="*" horiz-adv-x="972" d="M158 991l100 240l221 -84l29 278h252l-68 -276l266 68l5 -236l-246 -23l125 -210l-221 -140l-103 238l-215 -240l-131 146l213 211z" />
<glyph unicode="+" d="M61 426v256h369v383h277v-383h372v-256h-372v-387h-277v387h-369z" />
<glyph unicode="," horiz-adv-x="452" d="M-78 -221l135 540h287l-223 -540h-199z" />
<glyph unicode="-" d="M184 426v256h768v-256h-768z" />
<glyph unicode="." horiz-adv-x="462" d="M-12 129q0 82 57 135t141 53q65 0 107.5 -41t42.5 -102q0 -81 -58 -133.5t-141 -52.5q-65 0 -107 41t-42 100z" />
<glyph unicode="/" horiz-adv-x="808" d="M-29 0l2 29l637 1355h277l-4 -26l-643 -1358h-269z" />
<glyph unicode="0" horiz-adv-x="1239" d="M94 477q0 109 16.5 216t49.5 212.5t88 195t127 158.5t172 108.5t217 39.5q113 0 196 -36.5t131.5 -103t71.5 -152.5t23 -193q0 -147 -23 -281.5t-75 -257t-128.5 -211.5t-191.5 -142t-256 -53q-107 0 -189 39t-131 108t-73.5 158t-24.5 195zM399 481q0 -256 166 -256 q93 0 165 89t110.5 244.5t38.5 352.5q0 67 -14 120t-51.5 89.5t-94.5 36.5q-87 0 -161 -95t-116.5 -250.5t-42.5 -330.5z" />
<glyph unicode="1" horiz-adv-x="974" d="M-8 0l43 248h319l142 825l-299 -125l-11 250l410 186h242l-201 -1136h260l-43 -248h-862z" />
<glyph unicode="2" horiz-adv-x="1105" d="M-2 0l37 205q44 33 91.5 71.5t103.5 88.5t90 80.5t100 91.5t84 77q58 53 87.5 81.5t69 73t58 77.5t32 77t13.5 91q0 143 -133 143q-66 0 -112 -45t-62.5 -104.5t-12.5 -120.5l-284 -21q-10 105 18 201t89.5 172t164.5 121t234 45q184 0 290.5 -106t106.5 -263 q0 -96 -38 -183.5t-100.5 -161.5t-168.5 -169q-84 -77 -192.5 -169t-123.5 -105h291l25 141h229l-67 -389h-920z" />
<glyph unicode="3" horiz-adv-x="1073" d="M-27 125l168 217q112 -115 287 -115q122 0 179 53t57 138q0 68 -50.5 101.5t-158.5 33.5h-152l43 246h139q111 0 178.5 58.5t67.5 162.5q0 62 -35.5 99.5t-107.5 37.5q-95 0 -170 -35l-25 -141h-200l24 295q81 54 191 91.5t217 37.5q114 0 196 -30t125 -81.5t61.5 -108.5 t18.5 -124q0 -138 -77 -236.5t-201 -134.5q90 -20 149 -84t59 -182q0 -203 -138 -325t-410 -122q-135 0 -257 44.5t-178 103.5z" />
<glyph unicode="4" horiz-adv-x="1138" d="M-20 272l34 203l553 688q41 51 81.5 106.5t60.5 84.5l20 30h330l-156 -884h178l-41 -228h-178l-47 -272h-276l47 272h-606zM336 500h291l92 504z" />
<glyph unicode="5" horiz-adv-x="1093" d="M-4 96l86 318h225l-28 -160q70 -27 147 -27q132 0 200 68.5t68 185.5q0 77 -46 121.5t-132 44.5q-124 0 -299 -53l-74 37l179 753h776l-43 -247h-529l-57 -271q83 33 184 33q168 0 256 -102t88 -289q0 -113 -40 -210.5t-112.5 -168.5t-180.5 -111.5t-238 -40.5 q-265 0 -430 119z" />
<glyph unicode="6" horiz-adv-x="1169" d="M96 483q0 153 25 287.5t81 252t138.5 201.5t204.5 132.5t272 48.5q205 0 371 -88l-121 -227q-141 67 -268 67q-77 0 -141 -24.5t-105.5 -64t-71.5 -92t-44.5 -105t-18.5 -107.5q43 51 115 91t169 40q174 0 273.5 -98.5t99.5 -278.5q0 -112 -34.5 -209t-100.5 -171.5 t-170 -117.5t-235 -43q-207 0 -323 129.5t-116 376.5zM391 514q-10 -75 0.5 -137.5t50 -106t105.5 -43.5q119 0 177 68.5t58 179.5q0 70 -39 109t-116 39q-151 0 -236 -109z" />
<glyph unicode="7" horiz-adv-x="1015" d="M68 0l692 1157h-334l-41 -239h-260l82 466h936l-35 -190q-92 -118 -223 -338l-496 -856h-321z" />
<glyph unicode="8" horiz-adv-x="1175" d="M51 330q0 129 77 227.5t175 138.5q-110 95 -110 273q0 87 37 166.5t102.5 139t162 95t207.5 35.5q214 0 323.5 -96t109.5 -250q0 -112 -68 -204t-160 -138q154 -100 154 -297q0 -189 -155.5 -316t-385.5 -127q-226 0 -347.5 92.5t-121.5 260.5zM342 379q0 -67 49 -112.5 t154 -45.5q109 0 161 50.5t52 115.5q0 98 -121 148l-160 67q-73 -61 -104 -109.5t-31 -113.5zM481 1006q0 -46 27.5 -84.5t79.5 -61.5l108 -47q154 75 154 205q0 64 -45 108.5t-135 44.5q-76 0 -132.5 -46t-56.5 -119z" />
<glyph unicode="9" horiz-adv-x="1171" d="M27 66l120 227q143 -68 269 -68q77 0 141 24.5t105.5 64t71.5 92t44.5 105t18.5 107.5q-43 -51 -115.5 -91t-169.5 -40q-174 0 -273.5 98.5t-99.5 278.5q0 112 35 209t101 171.5t170 117.5t235 43q207 0 322.5 -129.5t115.5 -376.5q0 -153 -25 -287.5t-81 -252 t-138.5 -201.5t-204.5 -132.5t-272 -48.5q-202 0 -370 89zM432 907q0 -69 39 -108t117 -39q151 0 235 108q9 53 3 104.5t-21.5 92t-51 65.5t-85.5 25q-120 0 -178 -69t-58 -179z" />
<glyph unicode=":" horiz-adv-x="538" d="M23 125q0 82 59 137t143 55q65 0 105.5 -39t40.5 -100q0 -81 -60 -135.5t-143 -54.5q-65 0 -105 39t-40 98zM135 764q0 82 59 136t144 54q65 0 105 -38t40 -99q0 -82 -59.5 -137t-142.5 -55q-65 0 -105.5 39t-40.5 100z" />
<glyph unicode=";" horiz-adv-x="522" d="M-33 -221l135 540h287l-223 -540h-199zM150 764q0 82 59 136t145 54q64 0 104 -38.5t40 -98.5q0 -82 -60 -137t-143 -55q-65 0 -105 39t-40 100z" />
<glyph unicode="&#x3c;" d="M94 395v316l893 323v-264l-668 -219l668 -217v-262z" />
<glyph unicode="=" d="M119 195v256h891v-256h-891zM119 655v256h891v-256h-891z" />
<glyph unicode="&#x3e;" d="M150 72v262l667 217l-667 219v264l892 -323v-316z" />
<glyph unicode="?" horiz-adv-x="968" d="M188 958l5 295q180 152 430 152q175 0 265.5 -82t90.5 -205q0 -55 -14.5 -106.5t-35.5 -91t-55.5 -78.5t-64.5 -65.5t-72.5 -55.5t-68.5 -44t-64 -36l-29 -172h-235l53 307q168 75 235.5 132t67.5 139q0 48 -32.5 79t-102.5 31q-63 0 -143 -39l-27 -160h-203zM219 125 q0 82 59.5 137t145.5 55q65 0 105 -39t40 -100q0 -81 -60 -135.5t-144 -54.5q-65 0 -105.5 39t-40.5 98z" />
<glyph unicode="@" horiz-adv-x="1863" d="M66 293q0 173 45 332t133.5 291.5t211.5 230.5t288 152.5t354 54.5q170 0 304.5 -49.5t219.5 -136.5t129.5 -200.5t44.5 -244.5q0 -158 -37 -293t-107 -236.5t-179.5 -159t-245.5 -57.5q-191 0 -211 140q-58 -63 -134 -101.5t-155 -38.5q-106 0 -174.5 41t-95 114.5 t-20.5 170.5t44 213q66 196 192.5 317t289.5 121q136 0 231 -114l27 94h252l-197 -567q-18 -53 -26 -86.5t-7 -59.5t16.5 -37.5t45.5 -11.5q57 0 103 26t75.5 72t50.5 100t31.5 118.5t15 119t4.5 109.5q0 76 -17 140.5t-55.5 120.5t-97 95t-145.5 61.5t-197 22.5 q-160 0 -294 -50t-225 -133t-154 -194t-92 -231.5t-29 -245.5q0 -234 128 -354.5t404 -120.5q198 0 397 63l11 -182q-224 -78 -441 -78q-184 0 -322.5 49t-222.5 138.5t-125.5 208t-41.5 266.5zM725 469q-47 -138 -30.5 -204t98.5 -66q43 0 98 20t98 51l144 412 q-66 51 -154 51q-163 0 -254 -264z" />
<glyph unicode="A" horiz-adv-x="1386" d="M-88 0l41 227h113l487 930h-111l41 227h709l-39 -227h-109l158 -930h113l-41 -227h-553l41 227h141l-18 166h-434l-80 -166h141l-39 -227h-561zM555 627h311l-75 475z" />
<glyph unicode="B" horiz-adv-x="1269" d="M-16 0l39 227h133l163 930h-133l41 227h623q179 0 265.5 -85.5t86.5 -237.5q0 -116 -66 -206.5t-159 -121.5q76 -25 127 -104t51 -193q0 -115 -41 -200.5t-116.5 -136t-173.5 -75t-220 -24.5h-620zM438 227h197q69 0 118 19t73 51t34 64.5t10 68.5q0 82 -39 126t-129 44 h-198zM543 827h166q106 0 153 56t47 139q0 135 -143 135h-164z" />
<glyph unicode="C" horiz-adv-x="1210" d="M80 539q0 92 20.5 189.5t60 195t103 184t143 153t186.5 105.5t228 39q227 0 445 -86l-107 -467h-252l54 276q-77 23 -152 23q-119 0 -218 -84t-154.5 -223t-55.5 -301q0 -154 66.5 -227.5t205.5 -73.5q169 0 379 98l17 -260q-229 -103 -426 -103q-277 0 -410 138 t-133 424z" />
<glyph unicode="D" horiz-adv-x="1372" d="M-16 0l39 227h137l164 930h-138l41 227h480q313 0 464.5 -131.5t151.5 -398.5q0 -156 -27.5 -284.5t-88 -235.5t-153.5 -180t-229 -113.5t-309 -40.5h-532zM444 227h107q226 0 353.5 157t127.5 470q0 141 -81.5 222t-237.5 81h-109z" />
<glyph unicode="E" horiz-adv-x="1210" d="M-16 0l39 227h135l164 930h-136l41 227h1033l-76 -434h-260l37 207h-359l-61 -350h377l-41 -229h-377l-62 -351h365l37 207h258l-76 -434h-1038z" />
<glyph unicode="F" horiz-adv-x="1118" d="M-16 0l39 227h133l163 930h-133l41 227h992l-80 -452h-260l41 225h-318l-70 -399h383l-43 -234h-383l-51 -297h246l-41 -227h-659z" />
<glyph unicode="G" horiz-adv-x="1325" d="M84 541q0 124 27.5 244t89 233t149.5 198.5t218.5 137t287.5 51.5q252 0 465 -82l-96 -426h-252l39 236q-86 18 -168 18q-90 0 -166.5 -36t-129.5 -96.5t-90.5 -139.5t-55 -164t-17.5 -172q0 -75 14 -128t48 -93.5t95 -60t152 -19.5q132 0 213 22l39 205h-299l41 233h561 l-110 -630q-212 -95 -482 -95q-284 0 -428.5 147.5t-144.5 416.5z" />
<glyph unicode="H" horiz-adv-x="1517" d="M-16 0l41 227h129l163 930h-129l39 227h588l-41 -227h-174l-57 -323h528l57 323h-172l39 227h580l-39 -227h-127l-164 -930h127l-41 -227h-579l41 227h172l63 365h-528l-64 -365h174l-41 -227h-585z" />
<glyph unicode="I" horiz-adv-x="733" d="M-25 0l41 227h152l164 930h-152l39 227h580l-41 -227h-144l-163 -930h143l-41 -227h-578z" />
<glyph unicode="J" horiz-adv-x="669" d="M-115 -283q95 65 149 132.5t75 181.5l198 1126h-170l39 227h578l-39 -227h-129l-195 -1104q-62 -349 -368 -518z" />
<glyph unicode="K" horiz-adv-x="1366" d="M-16 0l41 227h131l163 930h-131l41 227h527l-41 -227h-113l-164 -930h113l-39 -227h-528zM543 717l422 440h-127l39 227h585l-39 -227h-139l-426 -436l268 -494h146l-39 -227h-604l39 227h155z" />
<glyph unicode="L" horiz-adv-x="1087" d="M-16 0l39 227h131l163 930h-131l41 227h551l-39 -227h-139l-164 -930h301l47 267h254l-88 -494h-966z" />
<glyph unicode="M" horiz-adv-x="1835" d="M-59 0l41 227h129l260 930h-123l41 227h524l49 -1069l438 1069h537l-41 -227h-119l-80 -930h142l-41 -227h-545l41 227h143l78 850l-452 -1077h-306l-53 1065l-229 -838h151l-41 -227h-544z" />
<glyph unicode="N" horiz-adv-x="1501" d="M-14 0l39 227h127l163 930h-127l41 227h439l346 -940l121 713h-179l39 227h588l-39 -227h-127l-205 -1157h-301l-354 944l-123 -717h201l-39 -227h-610z" />
<glyph unicode="O" horiz-adv-x="1325" d="M84 494q0 131 24.5 257t81 246t138.5 210.5t206 145t275 54.5q127 0 220.5 -38t148 -107t80.5 -158.5t26 -200.5q0 -146 -25.5 -279t-82.5 -252t-140.5 -206t-206 -138t-272.5 -51q-98 0 -177.5 26.5t-134 73t-91 112.5t-53.5 142t-17 163zM389 496q0 -271 213 -271 q170 0 272.5 187t102.5 489q0 51 -11 95t-34.5 81t-64.5 58.5t-97 21.5q-110 0 -198.5 -92.5t-135.5 -243t-47 -325.5z" />
<glyph unicode="P" horiz-adv-x="1220" d="M-16 0l41 227h131l163 930h-131l41 227h592q221 0 324.5 -96.5t103.5 -288.5q0 -107 -33.5 -196t-102 -159.5t-183.5 -110t-266 -39.5h-84l41 231h100q118 0 176.5 71.5t58.5 200.5q0 69 -36 114.5t-123 45.5h-195l-166 -930h238l-41 -227h-649z" />
<glyph unicode="Q" horiz-adv-x="1378" d="M84 494q0 131 24.5 257t81 246t138.5 210.5t206 145t275 54.5q127 0 220.5 -38t148 -107t80.5 -158.5t26 -200.5q0 -308 -110 -534q97 -177 106 -369h-270q-3 60 -22.5 126t-61.5 135t-99.5 123t-145.5 89t-192 35q-30 0 -100 -4v-8q0 -271 213 -271q100 0 180 68 q10 -10 25.5 -28t46.5 -77t43 -122q-141 -89 -340 -89q-98 0 -177.5 26.5t-134 73t-91 112.5t-53.5 142t-17 163zM412 729q86 8 133 8q225 0 403 -121q29 135 29 285q0 51 -11 95t-34.5 81t-64.5 58.5t-97 21.5q-128 0 -223 -119t-135 -309z" />
<glyph unicode="R" horiz-adv-x="1325" d="M-14 0l39 227h133l164 930h-136l41 227h607q227 0 335.5 -92.5t108.5 -279.5q0 -139 -94 -248.5t-244 -149.5q63 -65 106 -182t50 -205h151l-41 -227h-569l41 227h119q2 63 -42.5 186t-97.5 169h-155l-62 -355h113l-39 -227h-528zM541 803h184q260 0 260 211 q0 63 -44.5 103t-137.5 40h-199z" />
<glyph unicode="S" horiz-adv-x="1122" d="M14 76l54 379h237l17 -226q52 -30 180 -30q100 0 153.5 50t53.5 126q0 103 -97 143l-182 76q-141 58 -199.5 144.5t-58.5 234.5q0 54 18 110.5t60 115.5t103 104.5t155.5 74.5t208.5 29q116 0 228.5 -30.5t182.5 -73.5l-65 -369h-238v223q-71 23 -147 23q-89 0 -143 -53 t-54 -123q0 -104 103 -144l172 -65q147 -56 206.5 -144.5t59.5 -224.5q0 -68 -20.5 -132t-65 -121.5t-108.5 -101t-157.5 -69t-205.5 -25.5q-261 0 -451 99z" />
<glyph unicode="T" horiz-adv-x="1183" d="M106 936l78 448h1104l-80 -448h-233l39 221h-185l-163 -930h176l-41 -227h-633l39 227h180l164 930h-172l-39 -221h-234z" />
<glyph unicode="U" horiz-adv-x="1370" d="M141 1157l41 227h566l-41 -227h-162l-113 -633q-27 -154 19 -225.5t167 -71.5q125 0 195 71t98 226l111 633h-160l39 227h565l-41 -227h-125l-110 -633q-52 -285 -198 -414.5t-396 -129.5q-118 0 -209 33.5t-152 101.5t-82 170t1 239l112 633h-125z" />
<glyph unicode="V" horiz-adv-x="1370" d="M111 1157l41 227h577l-39 -227h-162l93 -887l399 887h-154l41 227h596l-39 -227h-135l-561 -1157h-379l-149 1157h-129z" />
<glyph unicode="W" horiz-adv-x="1949" d="M115 1157l41 227h544l-41 -227h-141l8 -868l398 821l-33 274h311l96 -1095l316 868h-189l39 227h611l-41 -227h-123l-465 -1157h-344l-94 778l-363 -778h-344l-59 1157h-127z" />
<glyph unicode="X" horiz-adv-x="1341" d="M-61 0l41 227h126l422 486l-239 444h-135l39 227h552l-40 -227h-109l123 -274l213 274h-111l39 227h570l-41 -227h-132l-399 -444l262 -486h129l-41 -227h-549l39 227h109l-137 287l-236 -287h117l-39 -227h-573z" />
<glyph unicode="Y" horiz-adv-x="1298" d="M111 1157l39 227h563l-39 -227h-154l148 -391l288 391h-153l41 227h592l-39 -227h-131l-486 -622l-55 -308h152l-39 -227h-598l41 227h161l56 308l-256 622h-131z" />
<glyph unicode="Z" horiz-adv-x="1208" d="M-14 0l37 205l802 950h-372l-41 -233h-254l82 462h1007l-37 -206l-796 -951h383l57 318h254l-96 -545h-1026z" />
<glyph unicode="[" horiz-adv-x="686" d="M-51 -442l327 1867h527l-41 -227h-240l-250 -1413h242l-41 -227h-524z" />
<glyph unicode="\" horiz-adv-x="815" d="M199 1358l4 26h276l178 -1355l-6 -29h-270z" />
<glyph unicode="]" horiz-adv-x="686" d="M-145 -442l41 227h239l250 1413h-240l39 227h527l-330 -1867h-526z" />
<glyph unicode="^" horiz-adv-x="1292" d="M272 891l627 543l434 -543l-213 -182l-284 362l-414 -360z" />
<glyph unicode="_" horiz-adv-x="1177" d="M47 -238l31 175h794l-30 -175h-795z" />
<glyph unicode="`" horiz-adv-x="1191" d="M641 1425h270l82 -342h-239z" />
<glyph unicode="a" horiz-adv-x="1071" d="M31 340q0 273 135.5 443.5t337.5 170.5q76 0 139.5 -27t97.5 -65l95 72h147l-111 -658q-6 -32 2 -43.5t33 -11.5h45l-43 -221q-55 -12 -131 -12q-160 0 -166 133q-46 -64 -119.5 -104t-166.5 -40q-132 0 -213.5 97t-81.5 266zM309 385q0 -158 135 -158q40 0 83.5 17.5 t68.5 42.5l66 375q-48 43 -140 43q-56 0 -99.5 -30.5t-67 -79.5t-35 -102.5t-11.5 -107.5z" />
<glyph unicode="b" horiz-adv-x="1048" d="M16 0l211 1198h-127l43 227h389l-100 -563q101 92 236 92q153 0 233 -92.5t80 -265.5q0 -281 -137.5 -450t-347.5 -169q-171 0 -246 86l-156 -63h-78zM332 287q21 -26 58 -43t81 -17q59 0 105 29.5t71.5 78t38 103.5t12.5 113q0 154 -145 154q-92 0 -156 -43z" />
<glyph unicode="c" horiz-adv-x="909" d="M33 367q0 95 20 182t62 161t102 128t144 85t184 31q184 0 348 -80l-72 -331h-231l18 178q-40 12 -67 12q-92 0 -149.5 -94t-57.5 -231q0 -183 155 -183q51 0 130.5 14.5t136.5 36.5l20 -213q-97 -44 -177 -65t-169 -21q-196 0 -296.5 107t-100.5 283z" />
<glyph unicode="d" horiz-adv-x="1107" d="M31 330q0 143 37.5 262t102.5 197.5t151 121.5t184 43q155 0 225 -92l57 336h-161l43 227h422l-207 -1198h127l-43 -227h-144q-78 0 -124 33.5t-52 101.5q-47 -67 -127.5 -112.5t-177.5 -45.5q-149 0 -231 92t-82 261zM309 387q0 -160 150 -160q45 0 93.5 17.5t76.5 42.5 l63 375q-48 43 -151 43q-61 0 -108 -30t-73 -79t-38.5 -102t-12.5 -107z" />
<glyph unicode="e" horiz-adv-x="980" d="M31 362q0 169 66 303.5t187 211.5t277 77q98 0 171.5 -26.5t116 -73.5t63 -104.5t20.5 -126.5q0 -122 -53 -246h-576v-15q0 -69 43.5 -110t128.5 -41q142 0 307 74l39 -211q-192 -97 -366 -97q-209 0 -316.5 101t-107.5 284zM344 580h322q8 27 8 53q0 56 -38.5 82 t-98.5 26q-70 0 -122.5 -46t-70.5 -115z" />
<glyph unicode="f" horiz-adv-x="720" d="M-201 -438l43 223q105 -6 140 -6q38 0 59.5 21t28.5 69l143 836h-164l43 229h162l35 205q11 62 36.5 115.5t67 97.5t104.5 69t140 25q107 0 180 -25l-43 -223q-105 6 -129 6q-46 0 -68 -21.5t-30 -68.5l-31 -180h250l-41 -229h-250l-147 -861q-28 -161 -113.5 -234 t-251.5 -73q-91 0 -164 25z" />
<glyph unicode="g" horiz-adv-x="1048" d="M-20 -215q0 45 12 98h244q0 -5 -1.5 -15t-1.5 -15q0 -47 26.5 -76t80.5 -29q88 0 147 67.5t82 180.5l21 106q-45 -59 -105 -92t-151 -33q-140 0 -222.5 93.5t-82.5 255.5q0 282 136 455t349 173q78 0 135 -27.5t90 -64.5l97 72h157l-159 -934q-35 -211 -166.5 -337 t-339.5 -126q-163 0 -255.5 60.5t-92.5 187.5zM309 381q0 -74 32.5 -114t109.5 -40q88 0 155 60l66 375q-55 43 -142 43q-61 0 -106.5 -31.5t-69 -82.5t-34.5 -103.5t-11 -106.5z" />
<glyph unicode="h" horiz-adv-x="1142" d="M-63 0l43 227h129l167 971h-126l40 227h392l-109 -591q38 49 106 84.5t150 35.5q93 0 155 -33t87.5 -88t32 -127.5t-10.5 -150.5l-55 -328h127l-41 -227h-133q-140 0 -189.5 51.5t-27.5 175.5l53 310q26 161 -111 161q-86 0 -174 -45l-71 -426h164l-43 -227h-555z" />
<glyph unicode="i" horiz-adv-x="688" d="M-33 0l43 227h166l82 478h-168l39 229h432l-121 -707h168l-43 -227h-598zM295 1225q0 87 51 133.5t125 46.5q60 0 102.5 -34t42.5 -103q0 -84 -53 -127t-123 -43q-62 0 -103.5 30t-41.5 97z" />
<glyph unicode="j" horiz-adv-x="567" d="M-121 -268q48 32 75 54.5t58 59t50 84t30 111.5l117 664h-162l41 229h426l-164 -932q-26 -141 -110 -267.5t-228 -197.5zM236 1225q0 87 51 133.5t125 46.5q60 0 102.5 -34t42.5 -103q0 -84 -53 -127t-123 -43q-62 0 -103.5 30t-41.5 97z" />
<glyph unicode="k" horiz-adv-x="1155" d="M-61 0l41 227h129l167 971h-126l43 227h389l-170 -927l303 207h-154l41 229h555l-43 -229h-141l-240 -175l125 -227q17 -31 26 -43t29.5 -22.5t53.5 -10.5h84l-41 -227q-115 0 -152 2q-108 4 -150.5 31t-84.5 114l-119 244l-119 -78l-12 -86h127l-43 -227h-518z" />
<glyph unicode="l" horiz-adv-x="550" d="M51 252l172 946h-127l43 227h389l-209 -1140q-4 -28 11 -43t41 -15q47 0 104 11l-43 -240q-102 -21 -158 -21q-74 0 -125 24t-72.5 63t-29.5 88t4 100z" />
<glyph unicode="m" horiz-adv-x="1605" d="M-31 0l41 227h131l80 478h-125l41 229h301l19 -125q38 58 119.5 101.5t171.5 43.5q141 0 198 -135q39 55 115 95t176 40q79 0 132 -30.5t74.5 -80t28 -112.5t-7.5 -127l-63 -377h127l-43 -227h-133q-140 0 -188 52.5t-27 174.5l63 369q8 43 -18.5 74.5t-77.5 31.5 q-74 0 -131 -53l-72 -422h133l-41 -227h-145q-141 0 -188.5 52t-24.5 175l78 422q-11 21 -39.5 37t-57.5 16q-47 0 -80 -14t-65 -45l-70 -416h138l-41 -227h-529z" />
<glyph unicode="n" horiz-adv-x="1169" d="M-31 0l41 227h131l80 478h-125l41 229h312l26 -129q40 56 116.5 102.5t188.5 46.5q66 0 117 -21t79 -55.5t45.5 -80t17.5 -94t-7 -97.5l-67 -379h127l-41 -227h-133q-137 0 -188 55t-30 172l64 355q10 58 -23 89t-104 31q-48 0 -94 -18.5t-68 -40.5l-74 -416h179 l-43 -227h-568z" />
<glyph unicode="o" horiz-adv-x="983" d="M33 360q0 84 16 165t54.5 160t95.5 137.5t146 95t200 36.5q182 0 276 -102.5t94 -280.5q0 -83 -16 -163t-54 -159t-95 -138.5t-146.5 -96.5t-200.5 -37q-180 0 -275 102.5t-95 280.5zM309 371q0 -150 127 -150q96 0 150.5 93t54.5 247q0 150 -129 150q-94 0 -148.5 -93 t-54.5 -247z" />
<glyph unicode="p" horiz-adv-x="1091" d="M-102 -442l36 217l99 30l155 900h-127l43 229h273l26 -129q40 56 128.5 102.5t185.5 46.5q305 0 305 -372q0 -270 -135 -437.5t-342 -167.5q-138 0 -205 89l-47 -281h184l-43 -227h-536zM377 270q54 -43 141 -43q62 0 108 31.5t69 83.5t33.5 105t10.5 108q0 150 -139 150 q-93 0 -158 -58z" />
<glyph unicode="q" horiz-adv-x="1042" d="M29 338q0 78 16.5 160t54 164.5t91.5 147t137 104.5t182 40q90 0 149.5 -29.5t112.5 -80.5l113 157h119l-213 -1206l102 -31l-35 -206h-573l39 227h200l47 281q-98 -89 -233 -89q-148 0 -228.5 97.5t-80.5 263.5zM311 379q0 -152 142 -152q82 0 155 43l66 377 q-21 26 -58.5 42t-83.5 16q-58 0 -102.5 -29.5t-69.5 -78.5t-37 -104.5t-12 -113.5z" />
<glyph unicode="r" horiz-adv-x="856" d="M-29 0l37 207l133 41l80 457h-125l39 229h371l-35 -193q37 76 122 144.5t171 68.5q67 0 135 -10l-74 -295l-163 27q-129 -9 -197 -96l-64 -353h191l-39 -227h-582z" />
<glyph unicode="s" horiz-adv-x="890" d="M-14 190q0 55 16 107h272l-8 -109q33 -28 109 -28q42 0 71 24.5t29 65.5q0 59 -59 82l-121 49q-98 38 -150.5 92.5t-52.5 144.5q0 81 36 147t95.5 106t131 61.5t147.5 21.5q173 0 258.5 -46t85.5 -146q0 -53 -25 -123h-246l11 102q-46 27 -94 27q-40 0 -68.5 -26 t-28.5 -64q0 -55 62 -80l116 -47q103 -43 157 -97t54 -141q0 -85 -37.5 -152t-99.5 -106t-134 -58.5t-148 -19.5q-68 0 -123.5 6.5t-104 21.5t-81.5 39t-51.5 61t-18.5 85z" />
<glyph unicode="t" horiz-adv-x="708" d="M47 705l29 190l153 39l41 225l271 41l-47 -266h217l-43 -229h-215l-68 -396q-14 -82 80 -82q78 0 153 11l-43 -234q-36 -10 -103.5 -18.5t-111.5 -8.5q-301 0 -247 297l75 431h-141z" />
<glyph unicode="u" horiz-adv-x="1140" d="M47 707l43 227h385l-100 -569q-11 -64 11.5 -100t76.5 -36q63 0 116.5 32t88.5 79l63 367h-141l41 227h405l-125 -705h133l-43 -229h-133q-83 0 -124 35.5t-50 105.5q-118 -164 -315 -164q-71 0 -124.5 19t-85 52.5t-50.5 78.5t-20 97.5t7 109.5l64 373h-123z" />
<glyph unicode="v" horiz-adv-x="1110" d="M41 705l41 229h487l-41 -229h-96l66 -443l215 443h-103l43 229h504l-41 -229h-106l-392 -705h-323l-139 705h-115z" />
<glyph unicode="w" horiz-adv-x="1505" d="M45 705l41 229h449l-41 -229h-105v-424l283 653h272l45 -649l152 420h-99l41 229h465l-41 -229h-98l-309 -705h-301q-31 523 -39 629q-93 -231 -258 -629h-293l-72 705h-92z" />
<glyph unicode="x" horiz-adv-x="1130" d="M-35 0l39 227h117l227 262l-147 218h-127l37 227h184q49 0 80.5 -13.5t45.5 -30t38 -54.5l159 -244l93 113h-109l39 229h471l-41 -229h-127l-213 -240l176 -238h125l-39 -227h-172q-41 0 -70 7.5t-53 28.5t-36.5 37t-38.5 54l-164 231l-94 -131h120l-39 -227h-481z" />
<glyph unicode="y" horiz-adv-x="1134" d="M-70 -420l33 189h252l135 239l-178 697h-135l41 229h428l-41 -229l70 -400l219 400h-172l39 229h563l-41 -229h-119l-541 -936q-73 -127 -158.5 -179.5t-189.5 -52.5q-137 0 -205 43z" />
<glyph unicode="z" horiz-adv-x="933" d="M-29 0l31 184l530 561h-210l-27 -159h-205l47 348h766l-33 -184l-508 -564h226l28 164h215l-61 -350h-799z" />
<glyph unicode="{" horiz-adv-x="643" d="M-23 389l37 205q24 0 55.5 8.5t67.5 27t64 55t37 85.5l63 363q27 160 127.5 226t306.5 66l-35 -204q-50 0 -80.5 -26t-41.5 -95l-64 -361q-9 -54 -34.5 -97.5t-53.5 -68.5t-64.5 -43.5t-60.5 -25.5t-49 -12q18 -3 36.5 -9t43.5 -18.5t43.5 -30.5t35 -44.5t20 -60.5 t-2.5 -79l-72 -400q-3 -16 -3.5 -29t2.5 -22t6 -15.5t10.5 -10.5t12.5 -6.5t17 -3.5t19 -1h22l-36 -204q-206 0 -282.5 65.5t-49.5 226.5l65 371q7 40 -2 71t-27 48.5t-43.5 29t-47.5 15.5t-42 4z" />
<glyph unicode="|" horiz-adv-x="495" d="M154 -442v1867h161v-1867h-161z" />
<glyph unicode="}" horiz-adv-x="643" d="M-119 -442l35 204q29 0 43 1.5t31.5 9.5t27 26.5t15.5 50.5l69 400q9 51 33.5 92.5t54 67t65 44t61.5 26.5t49 12q-13 3 -25.5 6.5t-31 10.5t-33.5 16.5t-32 23.5t-27.5 31.5t-20.5 41.5t-9.5 52.5t4.5 64.5l64 361q11 69 -9.5 95t-70.5 26l35 204q207 0 284 -66t48 -226 l-64 -363q-9 -49 6 -85.5t44.5 -55t58 -27t53.5 -8.5l-37 -205q-26 0 -56.5 -7.5t-66 -24t-62.5 -52t-36 -84.5l-66 -371q-29 -161 -128.5 -226.5t-305.5 -65.5z" />
<glyph unicode="~" horiz-adv-x="923" d="M59 416l45 266q67 -61 152 -61q41 0 94 19t97.5 42t109 42t125.5 19q103 0 174 -51l-45 -266q-86 61 -174 61q-51 0 -123 -30.5t-150 -61t-141 -30.5q-93 0 -164 51z" />
<glyph unicode="&#xa1;" horiz-adv-x="522" d="M-82 -442l213 915h227l-114 -915h-326zM125 764q0 81 60 135.5t143 54.5q65 0 106 -39t41 -98q0 -82 -60 -137t-145 -55q-64 0 -104.5 39.5t-40.5 99.5z" />
<glyph unicode="&#xa2;" d="M139 381q0 86 21.5 168.5t65.5 156t105.5 129.5t148 88.5t186.5 32.5q32 0 94 -4l63 154l127 -29l-59 -145q90 -23 156 -58l-99 -217q-69 26 -153 41l-195 -471q12 -2 33 -2q56 0 127.5 16.5t120.5 34.5l22 -217q-183 -82 -362 -82q-22 0 -43 3l-52 -127l-124 28l49 121 q-121 41 -176.5 140.5t-55.5 238.5zM436 420q0 -100 45 -150l178 439q-103 -8 -163 -82t-60 -207z" />
<glyph unicode="&#xa3;" d="M2 0l33 186l137 90l33 185h-121l31 174h121l47 270q15 84 41.5 156.5t70.5 136.5t101.5 109.5t137 71.5t173.5 26q129 0 214 -21t167 -59l-113 -391h-209l39 219q-56 18 -112 18q-95 0 -149.5 -65t-78.5 -199l-49 -272h313l-30 -174h-314l-41 -234h510l-41 -227h-911z " />
<glyph unicode="&#xa4;" d="M72 870l188 185l156 -158q67 25 159 25q93 0 162 -29l156 156l172 -172l-160 -168q21 -82 21 -152q0 -78 -19 -149l168 -177l-186 -184l-164 164q-71 -23 -156 -23q-92 0 -159 25l-154 -154l-174 172l158 166q-21 71 -21 156q0 82 17 143zM451 557q0 -64 29 -95.5 t93 -31.5q63 0 92 31t29 92q0 127 -123 127q-63 0 -91.5 -30.5t-28.5 -92.5z" />
<glyph unicode="&#xa5;" d="M43 461l31 174h315l-33 102h-264l31 174h176l-80 246h-117l39 227h533l-39 -227h-127l92 -383l234 383h-125l39 227h540l-39 -227h-119l-172 -246h183l-31 -174h-272l-72 -102h326l-31 -174h-373l-41 -234h125l-41 -227h-541l41 227h134l41 234h-363z" />
<glyph unicode="&#xa6;" horiz-adv-x="495" d="M154 348h161v-790h-161v790zM154 627v798h161v-798h-161z" />
<glyph unicode="&#xa7;" horiz-adv-x="1132" d="M2 -139l51 293h201l10 -142q30 -13 84 -24t96 -11q107 0 157 26t50 79q0 61 -131 108l-166 62q-129 48 -191.5 115.5t-62.5 162.5q0 80 38 161t124 140q-80 71 -80 173q0 53 18 107t59 107.5t101.5 94.5t153 66.5t205.5 25.5q112 0 222.5 -26t182.5 -68l-49 -283h-207 l-10 131q-76 29 -176 29q-92 0 -143.5 -27t-51.5 -80q0 -33 31.5 -55t106.5 -49l153 -55q262 -94 262 -293q0 -81 -37 -157.5t-120 -133.5q78 -66 78 -168q0 -58 -17 -113t-58.5 -108.5t-103 -93t-157.5 -64t-215 -24.5q-111 0 -222.5 27.5t-185.5 66.5zM397 627 q0 -50 32.5 -83t107.5 -59l153 -51q51 48 51 107q0 95 -135 143l-153 53q-56 -50 -56 -110z" />
<glyph unicode="&#xa8;" horiz-adv-x="1191" d="M449 1196q0 92 52.5 140t135.5 48q57 0 95 -32.5t38 -94.5q0 -91 -55 -135.5t-131 -44.5q-63 0 -99 29t-36 90zM848 1196q0 93 53 140.5t137 47.5q56 0 93.5 -33t37.5 -94q0 -91 -55 -135.5t-131 -44.5q-63 0 -99 29t-36 90z" />
<glyph unicode="&#xa9;" horiz-adv-x="1755" d="M123 684q0 217 100.5 392t278 273.5t397.5 98.5q166 0 310.5 -58t246.5 -158.5t160.5 -242.5t58.5 -305q0 -161 -58.5 -303t-160.5 -243t-246.5 -159.5t-310.5 -58.5q-220 0 -397.5 99.5t-278 274.5t-100.5 390zM322 684q0 -256 160.5 -414.5t416.5 -158.5t417 158.5 t161 414.5q0 257 -161 415t-417 158t-416.5 -158t-160.5 -415zM512 684q0 178 106.5 287.5t292.5 109.5q135 0 271 -59v-301h-174v147q-54 13 -97 13q-80 0 -123 -51t-43 -146q0 -90 40 -145.5t124 -55.5q46 0 90.5 8.5t74.5 19t83 32.5l57 -170q-159 -90 -303 -90 q-399 0 -399 401z" />
<glyph unicode="&#xaa;" horiz-adv-x="702" d="M109 844q0 66 21.5 109.5t66.5 66.5t101.5 32t139.5 9h47l7 35q5 31 -6 46t-46 15q-31 0 -71 -8l-11 -57h-153l14 161q119 56 248 56q121 0 175 -47.5t36 -151.5l-37 -217q-4 -27 23 -27h28l-26 -149q-36 -8 -93 -8q-60 0 -86.5 23t-33.5 65q-72 -95 -189 -95 q-72 0 -113.5 39t-41.5 103zM309 885q0 -33 39 -33q49 0 107 39l10 55h-47q-63 0 -86 -16t-23 -45z" />
<glyph unicode="&#xab;" d="M39 553l496 481l149 -121l-326 -362l199 -361l-192 -118zM496 553l495 481l150 -121l-326 -362l199 -361l-193 -118z" />
<glyph unicode="&#xac;" horiz-adv-x="1298" d="M133 678v256h1018v-619h-264v363h-754z" />
<glyph unicode="&#xad;" d="M184 426v256h768v-256h-768z" />
<glyph unicode="&#xae;" horiz-adv-x="1755" d="M123 684q0 217 100.5 392t278 273.5t397.5 98.5q166 0 310.5 -58t246.5 -158.5t160.5 -242.5t58.5 -305q0 -161 -58.5 -303t-160.5 -243t-246.5 -159.5t-310.5 -58.5q-220 0 -397.5 99.5t-278 274.5t-100.5 390zM322 684q0 -256 160.5 -414.5t416.5 -158.5t417 158.5 t161 414.5q0 257 -161 415t-417 158t-416.5 -158t-160.5 -415zM537 926v143h383q163 0 237 -60.5t74 -179.5q0 -75 -40 -131.5t-112 -81.5l127 -184h82v-143h-356v143h69l-98 162h-96v-162h63v-143h-331v143h77v494h-79zM807 737h104q66 0 97.5 28t31.5 64q0 38 -29 67.5 t-91 29.5h-113v-189z" />
<glyph unicode="&#xaf;" horiz-adv-x="1191" d="M487 1128l37 215h611l-39 -215h-609z" />
<glyph unicode="&#xb0;" horiz-adv-x="645" d="M139 1069q0 129 86.5 232.5t220.5 103.5q124 0 187 -69t63 -169q0 -82 -37 -156.5t-112 -124.5t-170 -50q-115 0 -176.5 69t-61.5 164zM291 1090q0 -45 24 -77t74 -32q73 0 113.5 49.5t40.5 114.5q0 47 -26 81t-79 34q-68 0 -107.5 -53t-39.5 -117z" />
<glyph unicode="&#xb1;" d="M59 45v256h1018v-256h-1018zM59 709v256h369v383h277v-383h372v-256h-372v-265h-277v265h-369z" />
<glyph unicode="&#xb2;" horiz-adv-x="704" d="M123 852l24 135q144 108 250 193q36 29 50.5 41.5t40.5 37.5t36.5 42.5t19.5 42.5t9 51q0 31 -17.5 47t-43.5 16q-36 0 -60 -23t-24 -77q0 -19 2 -31l-203 -14q-4 16 -4 39q0 114 81 193t234 79q120 0 184 -56t64 -145q0 -160 -193 -293l-167 -112h151l12 67h162 l-41 -233h-567z" />
<glyph unicode="&#xb3;" horiz-adv-x="679" d="M102 922l117 143q66 -57 170 -57q111 0 111 77q0 29 -25.5 40.5t-85.5 11.5h-92l29 163h84q56 0 89 26.5t33 68.5q0 27 -16.5 45t-52.5 18q-40 0 -84 -14l-10 -66h-142l11 174q50 30 119 51t137 21q73 0 125 -18.5t77 -49t36 -61.5t11 -65q0 -73 -43 -127t-118 -74 q125 -25 125 -152q0 -104 -86.5 -170.5t-239.5 -66.5q-98 0 -170.5 24.5t-108.5 57.5z" />
<glyph unicode="&#xb4;" horiz-adv-x="1191" d="M582 1083l202 342h269l-234 -342h-237z" />
<glyph unicode="&#xb5;" horiz-adv-x="1245" d="M25 -442l202 1149h-121l39 227h387l-98 -549q-14 -79 14.5 -117.5t112.5 -38.5q45 0 95 26t81 71l68 381h-156l39 227h418l-125 -705h133l-41 -229h-336l31 170q-137 -190 -348 -190q-22 0 -58 4l-73 -426h-264z" />
<glyph unicode="&#xb6;" horiz-adv-x="1155" d="M63 555q0 176 116.5 277.5t316.5 101.5h241l-164 -936h-239l53 299h-10q-153 0 -233.5 65t-80.5 193zM465 -303q84 57 131.5 116t60.5 132l174 989h240l-166 -932q-13 -72 -32.5 -131t-54 -121t-91.5 -116.5t-135 -98.5z" />
<glyph unicode="&#xb7;" horiz-adv-x="475" d="M59 526q0 82 57.5 135.5t141.5 53.5q65 0 107.5 -41.5t42.5 -102.5q0 -81 -58 -133.5t-141 -52.5q-65 0 -107.5 41t-42.5 100z" />
<glyph unicode="&#xb8;" horiz-adv-x="1191" d="M309 -362l39 108q88 -49 162 -49q38 0 59 19.5t21 50.5q0 45 -45 45q-30 0 -56 -21q-65 27 -88 37l99 172l137 2l-64 -113q31 9 70 9q55 0 93 -33.5t38 -87.5q0 -90 -67.5 -138.5t-196.5 -48.5q-93 0 -201 48z" />
<glyph unicode="&#xb9;" horiz-adv-x="634" d="M117 852l30 166h189l70 399l-173 -69l-14 151l252 115h172l-106 -596h151l-29 -166h-542z" />
<glyph unicode="&#xba;" horiz-adv-x="679" d="M127 934q0 77 17.5 142t54.5 118.5t101.5 84t152.5 30.5q125 0 187 -64t62 -168q0 -77 -17.5 -142t-53.5 -118.5t-100.5 -84t-151.5 -30.5q-127 0 -189.5 63.5t-62.5 168.5zM315 961q0 -93 76 -93q123 0 123 183q0 92 -76 92q-123 0 -123 -182z" />
<glyph unicode="&#xbb;" d="M0 190l326 361l-197 362l190 121l328 -481l-497 -481zM457 190l325 361l-196 362l190 121l328 -481l-498 -481z" />
<glyph unicode="&#xbc;" horiz-adv-x="1579" d="M117 633l30 166h189l70 399l-173 -70l-14 152l252 115h172l-106 -596h151l-29 -166h-542zM270 0l6 31l1051 1353h195l-4 -30l-1059 -1354h-189zM791 139l24 135l307 363q23 26 46 57.5t34 49.5l12 18h240l-84 -471h100l-28 -152h-99l-24 -139h-197l25 139h-356zM1018 291 h156l36 219z" />
<glyph unicode="&#xbd;" horiz-adv-x="1636" d="M117 633l30 166h189l70 399l-173 -70l-14 152l252 115h172l-106 -596h151l-29 -166h-542zM270 0l6 31l1051 1353h195l-4 -30l-1059 -1354h-189zM932 0l24 135q76 53 250 193q36 29 50.5 41.5t40.5 37.5t36.5 42.5t19.5 42.5t9 51q0 31 -17.5 47t-44.5 16q-36 0 -59.5 -23 t-23.5 -77q0 -17 2 -31l-203 -14q-4 16 -4 39q0 114 81 193t234 79q120 0 184 -56t64 -145q0 -92 -61.5 -167.5t-167.5 -151.5q-32 -23 -132 -86h152l12 67h162l-41 -233h-567z" />
<glyph unicode="&#xbe;" horiz-adv-x="1521" d="M102 702l117 144q67 -58 170 -58q111 0 111 78q0 29 -25.5 40.5t-85.5 11.5h-92l29 163h84q56 0 89 26.5t33 68.5q0 27 -16.5 45t-52.5 18q-40 0 -84 -14l-10 -66h-142l11 174q50 30 119 51t137 21q73 0 125 -18.5t77 -49.5t36 -62t11 -65q0 -73 -43 -126.5t-118 -73.5 q125 -25 125 -152q0 -104 -86.5 -170.5t-239.5 -66.5q-98 0 -170.5 24t-108.5 57zM213 0l6 31l1051 1353h194l-4 -30l-1059 -1354h-188zM791 139l24 135l307 363q23 26 46 57.5t34 49.5l12 18h240l-84 -471h100l-28 -152h-99l-24 -139h-197l25 139h-356zM1018 291h156 l36 219z" />
<glyph unicode="&#xbf;" horiz-adv-x="954" d="M-51 -176q0 55 14.5 106.5t35.5 91t55.5 78.5t64.5 65.5t72.5 55.5t68.5 44t64 36l28 172h236l-53 -307q-168 -76 -236 -132t-68 -138q0 -48 33 -79.5t103 -31.5q62 0 141 41l29 158h202l-4 -295q-180 -152 -430 -152q-175 0 -265.5 82t-90.5 205zM358 764 q0 81 60.5 135.5t144.5 54.5q65 0 105.5 -39t40.5 -98q0 -82 -59.5 -137t-145.5 -55q-65 0 -105.5 39t-40.5 100z" />
<glyph unicode="&#xc0;" horiz-adv-x="1386" d="M-88 0l41 227h113l487 930h-111l41 227h709l-39 -227h-109l158 -930h113l-41 -227h-553l41 227h141l-18 166h-434l-80 -166h141l-39 -227h-561zM555 627h311l-75 475zM627 1845h270l82 -342h-240z" />
<glyph unicode="&#xc1;" horiz-adv-x="1386" d="M-88 0l41 227h113l487 930h-111l41 227h709l-39 -227h-109l158 -930h113l-41 -227h-553l41 227h141l-18 166h-434l-80 -166h141l-39 -227h-561zM555 627h311l-75 475zM750 1503l202 342h269l-234 -342h-237z" />
<glyph unicode="&#xc2;" horiz-adv-x="1386" d="M-88 0l41 227h113l487 930h-111l41 227h709l-39 -227h-109l158 -930h113l-41 -227h-553l41 227h141l-18 166h-434l-80 -166h141l-39 -227h-561zM526 1503l222 342h344l100 -342h-231l-64 193l-125 -193h-246zM555 627h311l-75 475z" />
<glyph unicode="&#xc3;" horiz-adv-x="1386" d="M-88 0l41 227h113l487 930h-111l41 227h709l-39 -227h-109l158 -930h113l-41 -227h-553l41 227h141l-18 166h-434l-80 -166h141l-39 -227h-561zM555 627h311l-75 475zM555 1577l35 199q55 -52 123 -52q41 0 96 21.5t120 43t130 21.5q77 0 141 -43l-33 -198 q-66 51 -143 51q-45 0 -158 -43t-178 -43q-71 0 -133 43z" />
<glyph unicode="&#xc4;" horiz-adv-x="1386" d="M-88 0l41 227h113l487 930h-111l41 227h709l-39 -227h-109l158 -930h113l-41 -227h-553l41 227h141l-18 166h-434l-80 -166h141l-39 -227h-561zM518 1616q0 92 53 140t136 48q57 0 95 -32.5t38 -94.5q0 -91 -55 -135.5t-132 -44.5q-63 0 -99 29t-36 90zM555 627h311 l-75 475zM918 1616q0 93 53 140.5t137 47.5q56 0 93.5 -33t37.5 -94q0 -91 -55 -135.5t-131 -44.5q-63 0 -99 29t-36 90z" />
<glyph unicode="&#xc5;" horiz-adv-x="1386" d="M-88 0l41 227h113l487 930h-111l41 227h709l-39 -227h-109l158 -930h113l-41 -227h-553l41 227h141l-18 166h-434l-80 -166h141l-39 -227h-561zM555 627h311l-75 475zM662 1651q0 97 71 171t191 74q94 0 142 -51t48 -123q0 -95 -74 -168t-198 -73q-89 0 -134.5 50.5 t-45.5 119.5zM809 1673q0 -25 15 -42t44 -17q44 0 68.5 26t24.5 60q0 26 -15.5 44.5t-48.5 18.5q-39 0 -63.5 -28t-24.5 -62z" />
<glyph unicode="&#xc6;" horiz-adv-x="1941" d="M-109 0l41 227h113l758 930h-113l41 227h1260l-76 -434h-260l37 207h-359l-61 -350h377l-41 -229h-377l-62 -351h367l35 207h258l-76 -434h-1046l38 227h142l28 166h-436l-127 -166h146l-39 -227h-568zM655 627h303l84 475z" />
<glyph unicode="&#xc7;" horiz-adv-x="1210" d="M80 539q0 92 20.5 189.5t60 195t103 184t143 153t186.5 105.5t228 39q227 0 445 -86l-107 -467h-252l54 276q-77 23 -152 23q-119 0 -218 -84t-154.5 -223t-55.5 -301q0 -154 66.5 -227.5t205.5 -73.5q169 0 379 98l17 -260q-214 -97 -402 -103l-49 -88q32 9 70 9 q55 0 93 -33.5t38 -87.5q0 -90 -67.5 -138.5t-196.5 -48.5q-93 0 -201 48l39 108q88 -49 162 -49q37 0 58 19t21 51q0 45 -45 45q-29 0 -55 -21q-65 27 -88 37l88 156q-221 25 -327.5 161.5t-106.5 393.5z" />
<glyph unicode="&#xc8;" horiz-adv-x="1210" d="M-16 0l39 227h135l164 930h-136l41 227h1033l-76 -434h-260l37 207h-359l-61 -350h377l-41 -229h-377l-62 -351h365l37 207h258l-76 -434h-1038zM565 1845h271l82 -342h-240z" />
<glyph unicode="&#xc9;" horiz-adv-x="1210" d="M-16 0l39 227h135l164 930h-136l41 227h1033l-76 -434h-260l37 207h-359l-61 -350h377l-41 -229h-377l-62 -351h365l37 207h258l-76 -434h-1038zM645 1503l203 342h268l-233 -342h-238z" />
<glyph unicode="&#xca;" horiz-adv-x="1210" d="M-16 0l39 227h135l164 930h-136l41 227h1033l-76 -434h-260l37 207h-359l-61 -350h377l-41 -229h-377l-62 -351h365l37 207h258l-76 -434h-1038zM467 1503l221 342h344l101 -342h-232l-63 193l-125 -193h-246z" />
<glyph unicode="&#xcb;" horiz-adv-x="1210" d="M-16 0l39 227h135l164 930h-136l41 227h1033l-76 -434h-260l37 207h-359l-61 -350h377l-41 -229h-377l-62 -351h365l37 207h258l-76 -434h-1038zM457 1616q0 92 52.5 140t135.5 48q57 0 95 -32.5t38 -94.5q0 -91 -55 -135.5t-131 -44.5q-63 0 -99 29t-36 90zM856 1616 q0 92 53.5 140t137.5 48q56 0 93.5 -33t37.5 -94q0 -91 -55 -135.5t-132 -44.5q-63 0 -99 29t-36 90z" />
<glyph unicode="&#xcc;" horiz-adv-x="733" d="M-25 0l41 227h152l164 930h-152l39 227h580l-41 -227h-144l-163 -930h143l-41 -227h-578zM295 1845h270l82 -342h-239z" />
<glyph unicode="&#xcd;" horiz-adv-x="733" d="M-25 0l41 227h152l164 930h-152l39 227h580l-41 -227h-144l-163 -930h143l-41 -227h-578zM393 1503l203 342h268l-233 -342h-238z" />
<glyph unicode="&#xce;" horiz-adv-x="733" d="M-25 0l41 227h152l164 930h-152l39 227h580l-41 -227h-144l-163 -930h143l-41 -227h-578zM184 1503l222 342h344l100 -342h-232l-63 193l-125 -193h-246z" />
<glyph unicode="&#xcf;" horiz-adv-x="733" d="M-25 0l41 227h152l164 930h-152l39 227h580l-41 -227h-144l-163 -930h143l-41 -227h-578zM188 1616q0 92 53 140t136 48q57 0 95 -32.5t38 -94.5q0 -91 -55 -135.5t-131 -44.5q-63 0 -99.5 29t-36.5 90zM588 1616q0 93 53 140.5t137 47.5q56 0 93.5 -33t37.5 -94 q0 -91 -55 -135.5t-131 -44.5q-63 0 -99 29t-36 90z" />
<glyph unicode="&#xd0;" horiz-adv-x="1390" d="M2 0l39 227h137l70 402h-137l26 155h139l66 373h-137l41 227h479q313 0 464.5 -131.5t151.5 -398.5q0 -155 -28.5 -284t-91 -236t-157 -180t-230.5 -113.5t-308 -40.5h-524zM463 227h106q227 0 354.5 157t127.5 470q0 141 -82 222t-238 81h-108l-64 -373h289l-29 -155 h-289z" />
<glyph unicode="&#xd1;" horiz-adv-x="1501" d="M-14 0l39 227h127l163 930h-127l41 227h439l346 -940l121 713h-179l39 227h588l-39 -227h-127l-205 -1157h-301l-354 944l-123 -717h201l-39 -227h-610zM627 1577l35 199q55 -52 122 -52q41 0 96 21.5t120 43t130 21.5q78 0 142 -43l-33 -198q-66 51 -143 51 q-45 0 -158 -43t-178 -43q-71 0 -133 43z" />
<glyph unicode="&#xd2;" horiz-adv-x="1325" d="M84 494q0 131 24.5 257t81 246t138.5 210.5t206 145t275 54.5q127 0 220.5 -38t148 -107t80.5 -158.5t26 -200.5q0 -146 -25.5 -279t-82.5 -252t-140.5 -206t-206 -138t-272.5 -51q-98 0 -177.5 26.5t-134 73t-91 112.5t-53.5 142t-17 163zM389 496q0 -271 213 -271 q170 0 272.5 187t102.5 489q0 51 -11 95t-34.5 81t-64.5 58.5t-97 21.5q-110 0 -198.5 -92.5t-135.5 -243t-47 -325.5zM621 1845h270l82 -342h-240z" />
<glyph unicode="&#xd3;" horiz-adv-x="1325" d="M84 494q0 131 24.5 257t81 246t138.5 210.5t206 145t275 54.5q127 0 220.5 -38t148 -107t80.5 -158.5t26 -200.5q0 -146 -25.5 -279t-82.5 -252t-140.5 -206t-206 -138t-272.5 -51q-98 0 -177.5 26.5t-134 73t-91 112.5t-53.5 142t-17 163zM389 496q0 -271 213 -271 q170 0 272.5 187t102.5 489q0 51 -11 95t-34.5 81t-64.5 58.5t-97 21.5q-110 0 -198.5 -92.5t-135.5 -243t-47 -325.5zM702 1503l203 342h269l-234 -342h-238z" />
<glyph unicode="&#xd4;" horiz-adv-x="1325" d="M84 494q0 131 24.5 257t81 246t138.5 210.5t206 145t275 54.5q127 0 220.5 -38t148 -107t80.5 -158.5t26 -200.5q0 -146 -25.5 -279t-82.5 -252t-140.5 -206t-206 -138t-272.5 -51q-98 0 -177.5 26.5t-134 73t-91 112.5t-53.5 142t-17 163zM389 496q0 -271 213 -271 q170 0 272.5 187t102.5 489q0 51 -11 95t-34.5 81t-64.5 58.5t-97 21.5q-110 0 -198.5 -92.5t-135.5 -243t-47 -325.5zM496 1503l221 342h344l100 -342h-231l-64 193l-125 -193h-245z" />
<glyph unicode="&#xd5;" horiz-adv-x="1325" d="M84 494q0 131 24.5 257t81 246t138.5 210.5t206 145t275 54.5q127 0 220.5 -38t148 -107t80.5 -158.5t26 -200.5q0 -146 -25.5 -279t-82.5 -252t-140.5 -206t-206 -138t-272.5 -51q-98 0 -177.5 26.5t-134 73t-91 112.5t-53.5 142t-17 163zM389 496q0 -271 213 -271 q170 0 272.5 187t102.5 489q0 51 -11 95t-34.5 81t-64.5 58.5t-97 21.5q-110 0 -198.5 -92.5t-135.5 -243t-47 -325.5zM530 1577l35 199q55 -52 123 -52q41 0 96 21.5t120 43t130 21.5q78 0 142 -43l-33 -198q-66 51 -144 51q-45 0 -157.5 -43t-177.5 -43q-72 0 -134 43z " />
<glyph unicode="&#xd6;" horiz-adv-x="1325" d="M84 494q0 131 24.5 257t81 246t138.5 210.5t206 145t275 54.5q127 0 220.5 -38t148 -107t80.5 -158.5t26 -200.5q0 -146 -25.5 -279t-82.5 -252t-140.5 -206t-206 -138t-272.5 -51q-98 0 -177.5 26.5t-134 73t-91 112.5t-53.5 142t-17 163zM389 496q0 -271 213 -271 q170 0 272.5 187t102.5 489q0 51 -11 95t-34.5 81t-64.5 58.5t-97 21.5q-110 0 -198.5 -92.5t-135.5 -243t-47 -325.5zM489 1616q0 92 53 140t136 48q57 0 95 -32.5t38 -94.5q0 -91 -55 -135.5t-131 -44.5q-63 0 -99.5 29t-36.5 90zM889 1616q0 93 53 140.5t137 47.5 q56 0 93.5 -33t37.5 -94q0 -91 -55 -135.5t-131 -44.5q-63 0 -99 29t-36 90z" />
<glyph unicode="&#xd7;" d="M68 858l194 197l316 -316l307 308l180 -181l-307 -307l317 -317l-196 -195l-316 318l-305 -306l-180 181l303 305z" />
<glyph unicode="&#xd8;" horiz-adv-x="1325" d="M84 494q0 131 24.5 257t81 246t138.5 210.5t206 145t275 54.5q91 0 172 -23l37 62h215l-6 -27l-76 -129q133 -130 133 -387q0 -146 -25.5 -279t-82.5 -252t-140.5 -206t-206 -138t-272.5 -51q-83 0 -170 25l-47 -80h-209l6 29l86 145q-139 139 -139 398zM389 496 q0 -60 8 -101l443 750q-30 12 -70 12q-110 0 -198.5 -92.5t-135.5 -243t-47 -325.5zM524 236q32 -11 78 -11q170 0 272.5 187t102.5 489q0 46 -8 82z" />
<glyph unicode="&#xd9;" horiz-adv-x="1370" d="M141 1157l41 227h566l-41 -227h-162l-113 -633q-27 -154 19 -225.5t167 -71.5q125 0 195 71t98 226l111 633h-160l39 227h565l-41 -227h-125l-110 -633q-52 -285 -198 -414.5t-396 -129.5q-118 0 -209 33.5t-152 101.5t-82 170t1 239l112 633h-125zM600 1845h270l82 -342 h-239z" />
<glyph unicode="&#xda;" horiz-adv-x="1370" d="M141 1157l41 227h566l-41 -227h-162l-113 -633q-27 -154 19 -225.5t167 -71.5q125 0 195 71t98 226l111 633h-160l39 227h565l-41 -227h-125l-110 -633q-52 -285 -198 -414.5t-396 -129.5q-118 0 -209 33.5t-152 101.5t-82 170t1 239l112 633h-125zM719 1503l203 342h268 l-234 -342h-237z" />
<glyph unicode="&#xdb;" horiz-adv-x="1370" d="M141 1157l41 227h566l-41 -227h-162l-113 -633q-27 -154 19 -225.5t167 -71.5q125 0 195 71t98 226l111 633h-160l39 227h565l-41 -227h-125l-110 -633q-52 -285 -198 -414.5t-396 -129.5q-118 0 -209 33.5t-152 101.5t-82 170t1 239l112 633h-125zM498 1503l221 342h344 l100 -342h-231l-64 193l-125 -193h-245z" />
<glyph unicode="&#xdc;" horiz-adv-x="1370" d="M141 1157l41 227h566l-41 -227h-162l-113 -633q-27 -154 19 -225.5t167 -71.5q125 0 195 71t98 226l111 633h-160l39 227h565l-41 -227h-125l-110 -633q-52 -285 -198 -414.5t-396 -129.5q-118 0 -209 33.5t-152 101.5t-82 170t1 239l112 633h-125zM508 1616 q0 92 52.5 140t135.5 48q57 0 95 -32.5t38 -94.5q0 -91 -55 -135.5t-131 -44.5q-63 0 -99 29t-36 90zM907 1616q0 92 53.5 140t137.5 48q56 0 93.5 -33t37.5 -94q0 -91 -55 -135.5t-132 -44.5q-63 0 -99 29t-36 90z" />
<glyph unicode="&#xdd;" horiz-adv-x="1298" d="M111 1157l39 227h563l-39 -227h-154l148 -391l288 391h-153l41 227h592l-39 -227h-131l-486 -622l-55 -308h152l-39 -227h-598l41 227h161l56 308l-256 622h-131zM682 1503l203 342h268l-233 -342h-238z" />
<glyph unicode="&#xde;" horiz-adv-x="1212" d="M-16 0l41 227h131l163 930h-133l41 227h647l-38 -227h-236l-16 -92h180q220 0 329 -80.5t109 -249.5q0 -418 -530 -418h-219l-17 -90h238l-41 -227h-649zM494 549h196q123 0 171 42t48 130q0 119 -168 119h-196z" />
<glyph unicode="&#xdf;" horiz-adv-x="1159" d="M-211 -440l43 225q27 -6 78 -6q41 0 57.5 17.5t24.5 60.5l198 1134q39 225 164.5 340t317.5 115q98 0 173 -26t120.5 -72.5t68.5 -106.5t23 -131q0 -62 -32.5 -127t-71 -110t-71 -93t-32.5 -78q0 -40 39 -79l84 -88q119 -130 119 -244q0 -142 -118 -228t-288 -86 q-106 0 -170 14.5t-131 47.5l47 264h195v-113q23 -10 57 -10q53 0 87 31.5t34 79.5q0 58 -72 135l-61 68q-55 62 -80 102t-25 88q0 33 21 74.5t50.5 81.5t59.5 79.5t51 81.5t21 76q0 59 -35.5 96t-93.5 37q-81 0 -124.5 -52t-61.5 -152l-209 -1162q-31 -170 -106.5 -238.5 t-229.5 -68.5q-75 0 -121 23z" />
<glyph unicode="&#xe0;" horiz-adv-x="1071" d="M31 340q0 273 135.5 443.5t337.5 170.5q76 0 139.5 -27t97.5 -65l95 72h147l-111 -658q-6 -32 2 -43.5t33 -11.5h45l-43 -221q-55 -12 -131 -12q-160 0 -166 133q-46 -64 -119.5 -104t-166.5 -40q-132 0 -213.5 97t-81.5 266zM309 385q0 -158 135 -158q40 0 83.5 17.5 t68.5 42.5l66 375q-48 43 -140 43q-56 0 -99.5 -30.5t-67 -79.5t-35 -102.5t-11.5 -107.5zM406 1425h270l82 -342h-240z" />
<glyph unicode="&#xe1;" horiz-adv-x="1071" d="M31 340q0 273 135.5 443.5t337.5 170.5q76 0 139.5 -27t97.5 -65l95 72h147l-111 -658q-6 -32 2 -43.5t33 -11.5h45l-43 -221q-55 -12 -131 -12q-160 0 -166 133q-46 -64 -119.5 -104t-166.5 -40q-132 0 -213.5 97t-81.5 266zM309 385q0 -158 135 -158q40 0 83.5 17.5 t68.5 42.5l66 375q-48 43 -140 43q-56 0 -99.5 -30.5t-67 -79.5t-35 -102.5t-11.5 -107.5zM494 1083l202 342h269l-234 -342h-237z" />
<glyph unicode="&#xe2;" horiz-adv-x="1071" d="M31 340q0 273 135.5 443.5t337.5 170.5q76 0 139.5 -27t97.5 -65l95 72h147l-111 -658q-6 -32 2 -43.5t33 -11.5h45l-43 -221q-55 -12 -131 -12q-160 0 -166 133q-46 -64 -119.5 -104t-166.5 -40q-132 0 -213.5 97t-81.5 266zM276 1083l222 342h344l100 -342h-231 l-64 193l-125 -193h-246zM309 385q0 -158 135 -158q40 0 83.5 17.5t68.5 42.5l66 375q-48 43 -140 43q-56 0 -99.5 -30.5t-67 -79.5t-35 -102.5t-11.5 -107.5z" />
<glyph unicode="&#xe3;" horiz-adv-x="1071" d="M31 340q0 273 135.5 443.5t337.5 170.5q76 0 139.5 -27t97.5 -65l95 72h147l-111 -658q-6 -32 2 -43.5t33 -11.5h45l-43 -221q-55 -12 -131 -12q-160 0 -166 133q-46 -64 -119.5 -104t-166.5 -40q-132 0 -213.5 97t-81.5 266zM309 385q0 -158 135 -158q40 0 83.5 17.5 t68.5 42.5l66 375q-48 43 -140 43q-56 0 -99.5 -30.5t-67 -79.5t-35 -102.5t-11.5 -107.5zM313 1157l35 199q54 -51 123 -51q41 0 96 21.5t120 43t130 21.5q77 0 141 -43l-32 -199q-66 51 -144 51q-45 0 -158 -43t-178 -43q-71 0 -133 43z" />
<glyph unicode="&#xe4;" horiz-adv-x="1071" d="M31 340q0 273 135.5 443.5t337.5 170.5q76 0 139.5 -27t97.5 -65l95 72h147l-111 -658q-6 -32 2 -43.5t33 -11.5h45l-43 -221q-55 -12 -131 -12q-160 0 -166 133q-46 -64 -119.5 -104t-166.5 -40q-132 0 -213.5 97t-81.5 266zM274 1196q0 92 53 140t136 48q57 0 95 -32.5 t38 -94.5q0 -91 -55 -135.5t-131 -44.5q-63 0 -99.5 29t-36.5 90zM309 385q0 -158 135 -158q40 0 83.5 17.5t68.5 42.5l66 375q-48 43 -140 43q-56 0 -99.5 -30.5t-67 -79.5t-35 -102.5t-11.5 -107.5zM674 1196q0 93 53 140.5t137 47.5q56 0 93.5 -33t37.5 -94 q0 -91 -55 -135.5t-131 -44.5q-63 0 -99 29t-36 90z" />
<glyph unicode="&#xe5;" horiz-adv-x="1071" d="M31 340q0 273 135.5 443.5t337.5 170.5q76 0 139.5 -27t97.5 -65l95 72h147l-111 -658q-6 -32 2 -43.5t33 -11.5h45l-43 -221q-55 -12 -131 -12q-160 0 -166 133q-46 -64 -119.5 -104t-166.5 -40q-132 0 -213.5 97t-81.5 266zM309 385q0 -158 135 -158q40 0 83.5 17.5 t68.5 42.5l66 375q-48 43 -140 43q-56 0 -99.5 -30.5t-67 -79.5t-35 -102.5t-11.5 -107.5zM420 1231q0 98 71 172t191 74q94 0 142 -50.5t48 -123.5q0 -95 -74.5 -168.5t-197.5 -73.5q-89 0 -134.5 50.5t-45.5 119.5zM567 1253q0 -25 15.5 -42t44.5 -17q44 0 68 26t24 60 q0 26 -15.5 44.5t-48.5 18.5q-39 0 -63.5 -28t-24.5 -62z" />
<glyph unicode="&#xe6;" horiz-adv-x="1474" d="M-12 197q0 79 24.5 137.5t65.5 95t109.5 60.5t142 35t176.5 18l88 6l29 170h-222l-22 -127h-236q-14 35 -14 86q0 124 108.5 200t317.5 76q180 0 268 -82q125 82 271 82q71 0 127.5 -18.5t94 -49.5t62 -73.5t35 -88.5t10.5 -97q0 -123 -55 -250h-522q-9 -81 28 -123.5 t121 -42.5q136 0 273 70l51 -207q-180 -97 -393 -97q-98 0 -172.5 40.5t-112.5 109.5q-74 -71 -178.5 -110.5t-226.5 -39.5q-118 0 -183 59.5t-65 160.5zM285 254q0 -57 71 -57q94 0 189 71l18 111l-88 -10q-110 -12 -150 -37.5t-40 -77.5zM883 573h278q8 24 8 52 q0 55 -33 82.5t-79 27.5q-71 0 -114.5 -45t-59.5 -117z" />
<glyph unicode="&#xe7;" horiz-adv-x="909" d="M33 367q0 95 20 182t62 161t102 128t144 85t184 31q184 0 348 -80l-72 -331h-231l18 178q-40 12 -67 12q-92 0 -149.5 -94t-57.5 -231q0 -183 155 -183q51 0 130.5 14.5t136.5 36.5l20 -213q-143 -67 -272 -81l-51 -93q31 9 69 9q55 0 93 -33.5t38 -87.5 q0 -90 -67.5 -138.5t-196.5 -48.5q-93 0 -201 48l39 108q88 -49 162 -49q38 0 59 19.5t21 50.5q0 45 -45 45q-29 0 -55 -21q-65 27 -88 37l86 154q-166 17 -250 120t-84 265z" />
<glyph unicode="&#xe8;" horiz-adv-x="980" d="M31 362q0 169 66 303.5t187 211.5t277 77q98 0 171.5 -26.5t116 -73.5t63 -104.5t20.5 -126.5q0 -122 -53 -246h-576v-15q0 -69 43.5 -110t128.5 -41q142 0 307 74l39 -211q-192 -97 -366 -97q-209 0 -316.5 101t-107.5 284zM344 580h322q8 27 8 53q0 56 -38.5 82 t-98.5 26q-70 0 -122.5 -46t-70.5 -115zM379 1425h270l82 -342h-239z" />
<glyph unicode="&#xe9;" horiz-adv-x="980" d="M31 362q0 169 66 303.5t187 211.5t277 77q98 0 171.5 -26.5t116 -73.5t63 -104.5t20.5 -126.5q0 -122 -53 -246h-576v-15q0 -69 43.5 -110t128.5 -41q142 0 307 74l39 -211q-192 -97 -366 -97q-209 0 -316.5 101t-107.5 284zM344 580h322q8 27 8 53q0 56 -38.5 82 t-98.5 26q-70 0 -122.5 -46t-70.5 -115zM461 1083l203 342h268l-234 -342h-237z" />
<glyph unicode="&#xea;" horiz-adv-x="980" d="M31 362q0 169 66 303.5t187 211.5t277 77q98 0 171.5 -26.5t116 -73.5t63 -104.5t20.5 -126.5q0 -122 -53 -246h-576v-15q0 -69 43.5 -110t128.5 -41q142 0 307 74l39 -211q-192 -97 -366 -97q-209 0 -316.5 101t-107.5 284zM250 1083l221 342h344l100 -342h-231l-63 193 l-125 -193h-246zM344 580h322q8 27 8 53q0 56 -38.5 82t-98.5 26q-70 0 -122.5 -46t-70.5 -115z" />
<glyph unicode="&#xeb;" horiz-adv-x="980" d="M31 362q0 169 66 303.5t187 211.5t277 77q98 0 171.5 -26.5t116 -73.5t63 -104.5t20.5 -126.5q0 -122 -53 -246h-576v-15q0 -69 43.5 -110t128.5 -41q142 0 307 74l39 -211q-192 -97 -366 -97q-209 0 -316.5 101t-107.5 284zM250 1196q0 92 52.5 140t135.5 48 q57 0 95 -32.5t38 -94.5q0 -91 -55 -135.5t-131 -44.5q-63 0 -99 29t-36 90zM344 580h322q8 27 8 53q0 56 -38.5 82t-98.5 26q-70 0 -122.5 -46t-70.5 -115zM649 1196q0 92 53.5 140t137.5 48q56 0 93.5 -33t37.5 -94q0 -91 -55 -135.5t-132 -44.5q-63 0 -99 29t-36 90z" />
<glyph unicode="&#xec;" horiz-adv-x="708" d="M-33 0l41 227h189l84 478h-189l41 229h451l-123 -707h166l-39 -227h-621zM262 1425h270l82 -342h-239z" />
<glyph unicode="&#xed;" horiz-adv-x="708" d="M-33 0l41 227h189l84 478h-189l41 229h451l-123 -707h166l-39 -227h-621zM344 1083l203 342h268l-233 -342h-238z" />
<glyph unicode="&#xee;" horiz-adv-x="708" d="M-33 0l41 227h189l84 478h-189l41 229h451l-123 -707h166l-39 -227h-621zM106 1083l222 342h344l100 -342h-231l-64 193l-125 -193h-246z" />
<glyph unicode="&#xef;" horiz-adv-x="708" d="M-33 0l41 227h189l84 478h-189l41 229h451l-123 -707h166l-39 -227h-621zM113 1196q0 92 52.5 140t135.5 48q57 0 95 -32.5t38 -94.5q0 -91 -55 -135.5t-131 -44.5q-63 0 -99 29t-36 90zM512 1196q0 93 53 140.5t137 47.5q56 0 94 -33t38 -94q0 -91 -55 -135.5 t-132 -44.5q-63 0 -99 29t-36 90z" />
<glyph unicode="&#xf0;" horiz-adv-x="1071" d="M33 391q0 141 58.5 261t162 191.5t227.5 71.5q94 0 154.5 -41t93.5 -96v56q0 95 -29 208l-118 -47l-64 160l121 45q-60 120 -162 225h324q46 -52 88 -131l131 52l65 -152l-133 -53q56 -166 56 -353q0 -92 -13.5 -183.5t-40.5 -184t-73.5 -171.5t-107 -140.5t-145.5 -96.5 t-186 -35q-199 0 -304 112.5t-105 301.5zM317 406q0 -79 38 -129t114 -50q86 0 144.5 88t70.5 220q-46 108 -178 108q-83 0 -136 -67t-53 -170z" />
<glyph unicode="&#xf1;" horiz-adv-x="1169" d="M-31 0l41 227h131l80 478h-125l41 229h312l26 -129q40 56 116.5 102.5t188.5 46.5q66 0 117 -21t79 -55.5t45.5 -80t17.5 -94t-7 -97.5l-67 -379h127l-41 -227h-133q-137 0 -188 55t-30 172l64 355q10 58 -23 89t-104 31q-48 0 -94 -18.5t-68 -40.5l-74 -416h179 l-43 -227h-568zM342 1157l35 199q54 -51 123 -51q41 0 96 21.5t120 43t130 21.5q77 0 141 -43l-33 -199q-66 51 -143 51q-45 0 -158 -43t-178 -43q-71 0 -133 43z" />
<glyph unicode="&#xf2;" horiz-adv-x="983" d="M33 360q0 84 16 165t54.5 160t95.5 137.5t146 95t200 36.5q182 0 276 -102.5t94 -280.5q0 -83 -16 -163t-54 -159t-95 -138.5t-146.5 -96.5t-200.5 -37q-180 0 -275 102.5t-95 280.5zM309 371q0 -150 127 -150q96 0 150.5 93t54.5 247q0 150 -129 150q-94 0 -148.5 -93 t-54.5 -247zM362 1425h271l82 -342h-240z" />
<glyph unicode="&#xf3;" horiz-adv-x="983" d="M33 360q0 84 16 165t54.5 160t95.5 137.5t146 95t200 36.5q182 0 276 -102.5t94 -280.5q0 -83 -16 -163t-54 -159t-95 -138.5t-146.5 -96.5t-200.5 -37q-180 0 -275 102.5t-95 280.5zM309 371q0 -150 127 -150q96 0 150.5 93t54.5 247q0 150 -129 150q-94 0 -148.5 -93 t-54.5 -247zM457 1083l202 342h269l-234 -342h-237z" />
<glyph unicode="&#xf4;" horiz-adv-x="983" d="M33 360q0 84 16 165t54.5 160t95.5 137.5t146 95t200 36.5q182 0 276 -102.5t94 -280.5q0 -83 -16 -163t-54 -159t-95 -138.5t-146.5 -96.5t-200.5 -37q-180 0 -275 102.5t-95 280.5zM244 1083l221 342h344l100 -342h-231l-64 193l-125 -193h-245zM309 371 q0 -150 127 -150q96 0 150.5 93t54.5 247q0 150 -129 150q-94 0 -148.5 -93t-54.5 -247z" />
<glyph unicode="&#xf5;" horiz-adv-x="983" d="M33 360q0 84 16 165t54.5 160t95.5 137.5t146 95t200 36.5q182 0 276 -102.5t94 -280.5q0 -83 -16 -163t-54 -159t-95 -138.5t-146.5 -96.5t-200.5 -37q-180 0 -275 102.5t-95 280.5zM289 1157l35 199q54 -51 122 -51q41 0 96.5 21.5t120.5 43t130 21.5q77 0 141 -43 l-33 -199q-66 51 -143 51q-45 0 -158 -43t-178 -43q-71 0 -133 43zM309 371q0 -150 127 -150q96 0 150.5 93t54.5 247q0 150 -129 150q-94 0 -148.5 -93t-54.5 -247z" />
<glyph unicode="&#xf6;" horiz-adv-x="983" d="M33 360q0 84 16 165t54.5 160t95.5 137.5t146 95t200 36.5q182 0 276 -102.5t94 -280.5q0 -83 -16 -163t-54 -159t-95 -138.5t-146.5 -96.5t-200.5 -37q-180 0 -275 102.5t-95 280.5zM246 1196q0 92 52.5 140t135.5 48q57 0 95 -32.5t38 -94.5q0 -91 -55 -135.5 t-131 -44.5q-63 0 -99 29t-36 90zM309 371q0 -150 127 -150q96 0 150.5 93t54.5 247q0 150 -129 150q-94 0 -148.5 -93t-54.5 -247zM645 1196q0 92 53.5 140t137.5 48q56 0 93.5 -33t37.5 -94q0 -91 -55 -135.5t-132 -44.5q-63 0 -99 29t-36 90z" />
<glyph unicode="&#xf7;" d="M61 426v256h1018v-256h-1018zM401 172q0 72 49.5 119t124.5 47q74 0 123.5 -47t49.5 -119q0 -70 -49.5 -117t-123.5 -47q-75 0 -124.5 46.5t-49.5 117.5zM401 936q0 72 49.5 118t124.5 46q74 0 123.5 -46.5t49.5 -117.5q0 -72 -49.5 -119t-123.5 -47q-75 0 -124.5 47 t-49.5 119z" />
<glyph unicode="&#xf8;" horiz-adv-x="983" d="M33 360q0 84 16 165t54.5 160t95.5 137.5t146 95t200 36.5q73 0 141 -20l62 96h161l-4 -26l-92 -144q102 -102 102 -289q0 -83 -16 -163t-54 -159t-95 -138.5t-146.5 -96.5t-200.5 -37q-74 0 -145 23l-61 -98h-158l6 28l90 142q-102 99 -102 288zM309 346l232 363 q-4 0 -14 1t-15 1q-94 0 -148.5 -93t-54.5 -247v-25zM403 223q10 -2 33 -2q96 0 150.5 93t54.5 247q0 21 -2 29z" />
<glyph unicode="&#xf9;" horiz-adv-x="1140" d="M47 707l43 227h385l-100 -569q-11 -64 11.5 -100t76.5 -36q63 0 116.5 32t88.5 79l63 367h-141l41 227h405l-125 -705h133l-43 -229h-133q-83 0 -124 35.5t-50 105.5q-118 -164 -315 -164q-71 0 -124.5 19t-85 52.5t-50.5 78.5t-20 97.5t7 109.5l64 373h-123zM393 1425 h271l81 -342h-239z" />
<glyph unicode="&#xfa;" horiz-adv-x="1140" d="M47 707l43 227h385l-100 -569q-11 -64 11.5 -100t76.5 -36q63 0 116.5 32t88.5 79l63 367h-141l41 227h405l-125 -705h133l-43 -229h-133q-83 0 -124 35.5t-50 105.5q-118 -164 -315 -164q-71 0 -124.5 19t-85 52.5t-50.5 78.5t-20 97.5t7 109.5l64 373h-123zM498 1083 l202 342h269l-234 -342h-237z" />
<glyph unicode="&#xfb;" horiz-adv-x="1140" d="M47 707l43 227h385l-100 -569q-11 -64 11.5 -100t76.5 -36q63 0 116.5 32t88.5 79l63 367h-141l41 227h405l-125 -705h133l-43 -229h-133q-83 0 -124 35.5t-50 105.5q-118 -164 -315 -164q-71 0 -124.5 19t-85 52.5t-50.5 78.5t-20 97.5t7 109.5l64 373h-123zM283 1083 l221 342h344l100 -342h-231l-64 193l-125 -193h-245z" />
<glyph unicode="&#xfc;" horiz-adv-x="1140" d="M47 707l43 227h385l-100 -569q-11 -64 11.5 -100t76.5 -36q63 0 116.5 32t88.5 79l63 367h-141l41 227h405l-125 -705h133l-43 -229h-133q-83 0 -124 35.5t-50 105.5q-118 -164 -315 -164q-71 0 -124.5 19t-85 52.5t-50.5 78.5t-20 97.5t7 109.5l64 373h-123zM281 1196 q0 92 52.5 140t135.5 48q57 0 95 -32.5t38 -94.5q0 -91 -55 -135.5t-131 -44.5q-63 0 -99 29t-36 90zM680 1196q0 93 53 140.5t137 47.5q56 0 93.5 -33t37.5 -94q0 -91 -55 -135.5t-131 -44.5q-63 0 -99 29t-36 90z" />
<glyph unicode="&#xfd;" horiz-adv-x="1134" d="M-70 -420l33 189h252l135 239l-178 697h-135l41 229h428l-41 -229l70 -400l219 400h-172l39 229h563l-41 -229h-119l-541 -936q-73 -127 -158.5 -179.5t-189.5 -52.5q-137 0 -205 43zM512 1083l203 342h268l-233 -342h-238z" />
<glyph unicode="&#xfe;" horiz-adv-x="1044" d="M-154 -442l39 217l97 30l245 1391h-127l41 229h387l-108 -579q100 108 246 108q149 0 228 -94.5t79 -265.5q0 -282 -124 -449.5t-355 -167.5q-136 0 -203 89l-49 -281h184l-41 -227h-539zM328 270q54 -43 141 -43q104 0 163.5 79.5t59.5 236.5q0 162 -139 162 q-93 0 -158 -58z" />
<glyph unicode="&#xff;" horiz-adv-x="1134" d="M-70 -420l33 189h252l135 239l-178 697h-135l41 229h428l-41 -229l70 -400l219 400h-172l39 229h563l-41 -229h-119l-541 -936q-73 -127 -158.5 -179.5t-189.5 -52.5q-137 0 -205 43zM311 1196q0 92 53 140t136 48q57 0 95 -32.5t38 -94.5q0 -91 -55 -135.5t-132 -44.5 q-63 0 -99 29t-36 90zM711 1196q0 93 53 140.5t137 47.5q56 0 93.5 -33t37.5 -94q0 -91 -55 -135.5t-131 -44.5q-63 0 -99 29t-36 90z" />
<glyph unicode="&#x152;" horiz-adv-x="1816" d="M86 496q0 151 27 285t84.5 249.5t141.5 198.5t205 130.5t269 47.5q83 0 186 -23h869l-78 -434h-260l37 207h-359l-61 -350h377l-39 -229h-379l-62 -351h367l37 207h258l-78 -434h-876q-98 -23 -195 -23q-122 0 -215 43t-147.5 117t-81.5 164.5t-27 194.5zM391 512 q0 -287 213 -287q109 0 166 33l152 864q-58 35 -150 35q-94 0 -168 -53.5t-119.5 -144.5t-69.5 -205t-24 -242z" />
<glyph unicode="&#x153;" horiz-adv-x="1597" d="M33 360q0 84 16 165t54.5 160t95.5 137.5t146 95t200 36.5q109 0 179 -42t116 -121q130 163 338 163q98 0 171 -26.5t115.5 -73.5t63 -104.5t20.5 -126.5q0 -122 -53 -246h-565v-15q0 -69 41 -110t123 -41q140 0 305 74l39 -211q-186 -97 -379 -97q-226 0 -324 160 q-66 -77 -142 -118.5t-190 -41.5q-180 0 -275 102.5t-95 280.5zM309 371q0 -150 127 -150q96 0 150.5 93t54.5 247q0 150 -129 150q-94 0 -148.5 -93t-54.5 -247zM967 580h309q8 27 8 53q0 56 -36.5 82t-92.5 26q-69 0 -119.5 -46t-68.5 -115z" />
<glyph unicode="&#x178;" horiz-adv-x="1298" d="M111 1157l39 227h563l-39 -227h-154l148 -391l288 391h-153l41 227h592l-39 -227h-131l-486 -622l-55 -308h152l-39 -227h-598l41 227h161l56 308l-256 622h-131zM461 1616q0 92 52.5 140t135.5 48q57 0 95 -32.5t38 -94.5q0 -91 -55 -135.5t-131 -44.5q-63 0 -99 29 t-36 90zM860 1616q0 92 53.5 140t137.5 48q56 0 93.5 -33t37.5 -94q0 -91 -55 -135.5t-132 -44.5q-63 0 -99 29t-36 90z" />
<glyph unicode="&#x2c6;" horiz-adv-x="1191" d="M455 1083l221 342h344l100 -342h-231l-64 193l-125 -193h-245z" />
<glyph unicode="&#x2dc;" horiz-adv-x="1191" d="M492 1157l34 199q54 -51 123 -51q41 0 96 21.5t120 43t130 21.5q78 0 142 -43l-33 -199q-66 51 -143 51q-45 0 -158 -43t-178 -43q-71 0 -133 43z" />
<glyph unicode="&#x2000;" horiz-adv-x="948" />
<glyph unicode="&#x2001;" horiz-adv-x="1896" />
<glyph unicode="&#x2002;" horiz-adv-x="948" />
<glyph unicode="&#x2003;" horiz-adv-x="1896" />
<glyph unicode="&#x2004;" horiz-adv-x="632" />
<glyph unicode="&#x2005;" horiz-adv-x="474" />
<glyph unicode="&#x2006;" horiz-adv-x="316" />
<glyph unicode="&#x2007;" horiz-adv-x="316" />
<glyph unicode="&#x2008;" horiz-adv-x="237" />
<glyph unicode="&#x2009;" horiz-adv-x="379" />
<glyph unicode="&#x200a;" horiz-adv-x="105" />
<glyph unicode="&#x2010;" d="M184 426v256h768v-256h-768z" />
<glyph unicode="&#x2011;" d="M184 426v256h768v-256h-768z" />
<glyph unicode="&#x2012;" d="M184 426v256h768v-256h-768z" />
<glyph unicode="&#x2013;" horiz-adv-x="1216" d="M96 426v256h1014v-256h-1014z" />
<glyph unicode="&#x2014;" horiz-adv-x="1503" d="M96 426v256h1301v-256h-1301z" />
<glyph unicode="&#x2018;" horiz-adv-x="444" d="M96 844l223 540h199l-135 -540h-287z" />
<glyph unicode="&#x2019;" horiz-adv-x="434" d="M121 844l135 540h287l-221 -540h-201z" />
<glyph unicode="&#x201a;" horiz-adv-x="454" d="M-78 -221l135 540h289l-223 -540h-201z" />
<glyph unicode="&#x201c;" horiz-adv-x="819" d="M96 844l223 540h199l-135 -540h-287zM471 844l223 540h199l-135 -540h-287z" />
<glyph unicode="&#x201d;" horiz-adv-x="808" d="M121 844l135 540h287l-221 -540h-201zM496 844l135 540h287l-224 -540h-198z" />
<glyph unicode="&#x201e;" horiz-adv-x="829" d="M-78 -223l135 540h289l-223 -540h-201zM297 -223l135 540h287l-221 -540h-201z" />
<glyph unicode="&#x2022;" d="M270 551q0 123 84.5 204t214.5 81q129 0 213 -81t84 -204q0 -122 -84 -202.5t-213 -80.5q-130 0 -214.5 80.5t-84.5 202.5z" />
<glyph unicode="&#x2026;" horiz-adv-x="1417" d="M-14 125q0 82 59 137t143 55q65 0 105.5 -39t40.5 -100q0 -81 -60 -135.5t-143 -54.5q-65 0 -105 39t-40 98zM453 125q0 82 59 137t145 55q64 0 104 -39t40 -100q0 -81 -60 -135.5t-143 -54.5q-65 0 -105 39t-40 98zM942 125q0 82 60 137t145 55q64 0 103.5 -39 t39.5 -100q0 -81 -58.5 -135.5t-141.5 -54.5q-65 0 -106.5 39t-41.5 98z" />
<glyph unicode="&#x202f;" horiz-adv-x="379" />
<glyph unicode="&#x2039;" horiz-adv-x="690" d="M39 553l496 481l149 -121l-326 -362l199 -361l-192 -118z" />
<glyph unicode="&#x203a;" horiz-adv-x="690" d="M0 190l326 361l-197 362l190 121l328 -481l-497 -481z" />
<glyph unicode="&#x205f;" horiz-adv-x="474" />
<glyph unicode="&#x20ac;" d="M61 461l31 174h86q3 48 12 102h-79l30 174h84q58 228 213.5 361t401.5 133q191 0 354 -80l-107 -238q-67 31 -126.5 47.5t-135.5 16.5q-102 0 -179 -60t-120 -180h488l-70 -174h-459q-12 -58 -12 -102h442l-61 -174h-381q7 -99 67 -159t148 -60q141 0 277 55l18 -242 q-156 -78 -342 -78q-442 0 -467 484h-113z" />
<glyph unicode="&#x2122;" horiz-adv-x="1372" d="M223 1069l31 174h426l-31 -174h-102l12 78h-51l-51 -293h63l-16 -96h-250l16 96h64l51 293h-45l-14 -78h-103zM637 758l16 96h45l80 293h-43l19 96h223l6 -352l135 352h221l-18 -96h-39l-29 -293h52l-17 -96h-215l19 96h47l28 256l-141 -352h-137l-10 346l-62 -250h47 l-16 -96h-211z" />
</font>
</defs>
</svg>
