<?xml version="1.0" standalone="no"?>
<!DOCTYPE svg PUBLIC "-//W3C//DTD SVG 1.1//EN" "http://www.w3.org/Graphics/SVG/1.1/DTD/svg11.dtd" >
<svg xmlns="http://www.w3.org/2000/svg">
<metadata></metadata>
<defs>
<font id="BrixSlabLightRegular" horiz-adv-x="1146" >
<font-face units-per-em="2048" ascent="1475" descent="-573" />
<missing-glyph horiz-adv-x="409" />
<glyph unicode="&#xfb01;" horiz-adv-x="1337" d="M86 827v107h145v192q0 68 14 123.5t44.5 100.5t84 70.5t126.5 25.5q52 0 110 -14v-113q-53 12 -106 12q-88 0 -122 -52.5t-34 -158.5v-186h750v-825h200v-109h-526v109h209v718h-633v-718h230v-109h-490v96l143 25v706h-145zM932 1282q0 49 26 72.5t70 23.5q40 0 68 -24 t28 -72q0 -46 -28 -70t-68 -24q-44 0 -70 23.5t-26 70.5z" />
<glyph unicode="&#xfb02;" horiz-adv-x="1239" d="M86 827v111h147v131q0 82 22 148.5t68.5 119t128 81t193.5 28.5q177 0 367 -64v-1155q0 -74 21 -105.5t77 -31.5q49 0 92 16l19 -104q-58 -25 -134 -25q-106 0 -149 59t-43 181v1081q-116 37 -256 37q-154 0 -222.5 -68.5t-68.5 -201.5v-127h291v-111h-291v-718h230v-109 h-490v96l145 25v706h-147z" />
<glyph horiz-adv-x="0" />
<glyph horiz-adv-x="0" />
<glyph horiz-adv-x="2048" />
<glyph unicode=" "  horiz-adv-x="409" />
<glyph unicode="&#x09;" horiz-adv-x="409" />
<glyph unicode="&#xa0;" horiz-adv-x="409" />
<glyph unicode="!" horiz-adv-x="493" d="M145 88q0 43 30.5 72.5t74.5 29.5t74 -29.5t30 -72.5q0 -44 -30 -73t-74 -29q-45 0 -75 29t-30 73zM176 1384h146l-27 -964h-96z" />
<glyph unicode="&#x22;" horiz-adv-x="684" d="M123 1384h135l-20 -499h-95zM430 1384h131l-22 -499h-93z" />
<glyph unicode="#" horiz-adv-x="1249" d="M96 436l6 111h217l52 342h-205l8 110h215l60 385h116l-59 -385h311l62 385h114l-59 -385h221l-6 -110h-231l-54 -342h221l-8 -111h-231l-66 -436h-116l67 436h-313l-66 -436h-119l70 436h-207zM436 547h312l53 342h-312z" />
<glyph unicode="$" d="M158 1030q0 138 95.5 245.5t268.5 125.5v153h99v-149q176 -9 346 -82v-297h-103l-26 219q-126 43 -217 47v-544l75 -25q156 -55 236 -144t80 -229q0 -86 -43.5 -165t-134.5 -136.5t-213 -68.5v-191h-99v188q-210 10 -362 95v321h102l23 -250q89 -44 237 -55v561l-67 25 q-99 36 -161 79.5t-99 112.5t-37 164zM287 1034q0 -97 56 -153.5t179 -98.5v504q-113 -16 -174 -87.5t-61 -164.5zM621 90q113 15 186.5 84.5t73.5 171.5q0 174 -230 258l-30 8v-522z" />
<glyph unicode="%" horiz-adv-x="1392" d="M94 1092q0 135 73.5 224t211.5 89q75 0 131.5 -24.5t90.5 -68.5t50.5 -99t16.5 -121q0 -142 -72.5 -230t-216.5 -88q-141 0 -213 88.5t-72 229.5zM203 1092q0 -97 43.5 -155t132.5 -58q92 0 137 58t45 155q0 94 -44.5 150t-137.5 56q-90 0 -133 -55.5t-43 -150.5zM219 0 v14l838 1370h112v-14l-843 -1370h-107zM725 295q0 137 72.5 225t212.5 88q145 0 216.5 -87.5t71.5 -225.5q0 -140 -73 -229t-215 -89t-213.5 88.5t-71.5 229.5zM831 295q0 -96 44 -153.5t135 -57.5q92 0 136 57t44 154q0 95 -44 152t-136 57q-91 0 -135 -57t-44 -152z" />
<glyph unicode="&#x26;" horiz-adv-x="1304" d="M111 377q0 143 75 231t191 117q-45 13 -83 35t-73 58.5t-54.5 93.5t-19.5 130q0 172 103 267.5t305 95.5q176 0 326 -82l-43 -106q-139 75 -279 75q-287 0 -287 -258q0 -134 85 -199t227 -65h284v250l117 24v-274h225v-108h-225v-429q0 -61 29.5 -102t93.5 -41 q46 0 121 31l14 -109q-77 -35 -158 -35q-159 0 -204 148q-61 -70 -147 -109t-183 -39q-211 0 -325.5 108.5t-114.5 291.5zM242 377q0 -134 76.5 -209.5t236.5 -75.5q184 0 313 148v422h-293q-176 0 -254.5 -74t-78.5 -211z" />
<glyph unicode="'" horiz-adv-x="378" d="M125 1384h131l-20 -499h-95z" />
<glyph unicode="(" horiz-adv-x="532" d="M111 492q0 159 20.5 296t61.5 254t84.5 204.5t107.5 193.5l96 -33q-58 -108 -97.5 -197.5t-75.5 -202.5t-54 -241.5t-18 -273.5q0 -258 58.5 -469t182.5 -445l-92 -33q-139 228 -206.5 444t-67.5 503z" />
<glyph unicode=")" horiz-adv-x="530" d="M51 1407l96 33q64 -107 107.5 -194t85 -204t62 -254t20.5 -296q0 -286 -68 -502.5t-207 -444.5l-92 33q123 236 181.5 446.5t58.5 467.5q0 145 -18 273t-54.5 242t-75.5 202.5t-96 197.5z" />
<glyph unicode="*" horiz-adv-x="962" d="M102 1096l39 108l297 -102l-8 323h119l-14 -321l292 94l29 -115l-291 -71l193 -252l-96 -68l-183 266l-203 -266l-81 76l208 248z" />
<glyph unicode="+" d="M113 496v116h397v406h121v-406h401v-116h-401v-406h-121v406h-397z" />
<glyph unicode="," horiz-adv-x="403" d="M90 -233l51 426h142l-97 -426h-96z" />
<glyph unicode="-" d="M242 494v116h663v-116h-663z" />
<glyph unicode="." horiz-adv-x="434" d="M113 88q0 43 30 72.5t74 29.5t74.5 -29.5t30.5 -72.5q0 -44 -30 -73t-75 -29q-44 0 -74 29t-30 73z" />
<glyph unicode="/" horiz-adv-x="712" d="M90 0v25l418 1359h119v-22l-422 -1362h-115z" />
<glyph unicode="0" horiz-adv-x="1234" d="M129 688q0 170 26 299t82.5 224.5t151 144.5t225.5 49q108 0 191 -32.5t140 -92t93 -149.5t52 -198.5t16 -244.5q0 -133 -16 -240.5t-52.5 -196.5t-92.5 -149t-139 -92.5t-190 -32.5q-136 0 -232 49t-151 145t-79.5 222t-24.5 295zM258 688q0 -123 10.5 -215t35 -166.5 t65.5 -121t102.5 -71t144.5 -24.5q199 0 280 144.5t81 453.5t-81.5 456.5t-281.5 147.5q-194 0 -275 -148t-81 -456z" />
<glyph unicode="1" horiz-adv-x="933" d="M78 1237l403 147h113v-1269h305v-115h-776v115h350v1147l-362 -127z" />
<glyph unicode="2" horiz-adv-x="1091" d="M102 0v106q274 277 533 553q97 101 137.5 181t40.5 182q0 120 -68.5 195t-216.5 75q-140 0 -212 -80t-72 -211q0 -21 4 -53l-121 -8q-6 30 -6 61q0 184 108.5 294t296.5 110q105 0 186.5 -30t130.5 -83.5t74 -121.5t25 -148q0 -58 -14.5 -113.5t-33.5 -95.5t-55 -89 t-61.5 -77t-70.5 -76q-3 -4 -435 -456h590v188h109v-303h-869z" />
<glyph unicode="3" horiz-adv-x="1101" d="M96 125l62 102q139 -135 350 -135q332 0 332 277q0 133 -84 201.5t-271 68.5h-145v117h139q147 0 236.5 67t89.5 201q0 268 -291 268q-144 0 -270 -73v-177h-103l-6 238q171 125 383 125q206 0 310 -99t104 -274q0 -137 -70.5 -218.5t-169.5 -106.5q122 -25 199.5 -111 t77.5 -229q0 -180 -118.5 -285t-344.5 -105q-122 0 -229.5 39.5t-180.5 108.5z" />
<glyph unicode="4" horiz-adv-x="1132" d="M47 317v103l541 756q39 56 70.5 108t43.5 76l11 24h131v-956h225v-111h-225v-317h-119v317h-678zM188 428h537v758z" />
<glyph unicode="5" horiz-adv-x="1081" d="M115 92l6 270h106v-202q115 -68 271 -68q165 0 253.5 89.5t88.5 260.5q0 150 -78 234t-232 84q-163 0 -294 -90l-78 6l84 708h690v-114h-588l-59 -482q44 33 117 59.5t157 26.5q195 0 300.5 -114t105.5 -314q0 -217 -122 -343t-347 -126q-220 0 -381 115z" />
<glyph unicode="6" horiz-adv-x="1138" d="M125 657q0 123 16.5 229.5t56 203.5t100 165.5t153.5 109t211 40.5q176 0 333 -82l-49 -109q-76 40 -142.5 59t-146.5 19q-91 0 -163 -35t-117 -92.5t-74.5 -136.5t-41 -161t-11.5 -173q0 -25 2 -41q32 100 131.5 171t239.5 71q102 0 180 -33.5t126.5 -93.5t72.5 -140 t24 -177q0 -218 -113 -346t-325 -128q-235 0 -349 177t-114 503zM256 518q31 -426 336 -426q83 0 145 27.5t98 77t53 111.5t17 138q0 150 -72.5 239t-222.5 89q-91 0 -166 -40t-118 -94.5t-70 -121.5z" />
<glyph unicode="7" horiz-adv-x="970" d="M80 1020v364h862l-6 -100q-44 -55 -129 -276l-391 -1008h-140l510 1276h-591v-256h-115z" />
<glyph unicode="8" horiz-adv-x="1200" d="M139 362q0 120 69 215t171 150q-201 90 -201 299q0 79 26.5 146.5t78 119.5t134.5 81.5t189 29.5q215 0 325.5 -104.5t110.5 -268.5q0 -75 -35 -144.5t-81 -114t-101 -77.5q51 -21 90.5 -47t77 -64.5t58 -94t20.5 -123.5q0 -185 -124.5 -286.5t-342.5 -101.5 q-214 0 -339.5 101t-125.5 284zM266 369q0 -130 89 -204.5t255 -74.5t249 70t83 198q0 91 -49.5 149.5t-151.5 92.5l-262 88q-47 -28 -81 -55.5t-66 -65.5t-49 -88t-17 -110zM305 1034q0 -161 178 -221l240 -82q81 47 136.5 121.5t55.5 173.5q0 123 -75.5 194.5t-237.5 71.5 q-151 0 -224 -69.5t-73 -188.5z" />
<glyph unicode="9" horiz-adv-x="1138" d="M113 932q0 138 47.5 243t149 167.5t245.5 62.5q121 0 209.5 -49t142.5 -141.5t79.5 -217t25.5 -284.5q0 -736 -533 -736q-196 0 -334 86l48 109q142 -80 290 -80q95 0 168 33.5t117 87.5t72 131t38.5 155t10.5 169q0 27 -2 41q-33 -98 -135 -170t-236 -72 q-136 0 -228 60.5t-133.5 163t-41.5 241.5zM236 938q0 -350 294 -350q134 0 220.5 74t130.5 186q-25 442 -328 442q-84 0 -147 -28t-99 -78t-53.5 -111.5t-17.5 -134.5z" />
<glyph unicode=":" horiz-adv-x="479" d="M135 88q0 43 30.5 72.5t74.5 29.5t74 -29.5t30 -72.5q0 -44 -30 -73t-74 -29q-45 0 -75 29t-30 73zM135 852q0 44 30 73t75 29q44 0 74 -29t30 -73t-30 -73t-74 -29q-45 0 -75 29t-30 73z" />
<glyph unicode=";" horiz-adv-x="468" d="M129 -233l51 426h142l-99 -426h-94zM137 852q0 44 29.5 73t73.5 29q46 0 75 -29t29 -73t-29 -73t-75 -29q-44 0 -73.5 29t-29.5 73z" />
<glyph unicode="&#x3c;" d="M164 492v122l770 347v-121l-660 -287l660 -285v-123z" />
<glyph unicode="=" d="M188 264v117h770v-117h-770zM188 725v117h770v-117h-770z" />
<glyph unicode="&#x3e;" d="M213 145v123l659 285l-659 287v121l770 -347v-122z" />
<glyph unicode="?" horiz-adv-x="909" d="M94 1280q150 125 355 125q167 0 265.5 -94.5t98.5 -237.5q0 -266 -321 -401v-252h-121v321q317 102 317 322q0 94 -63.5 160.5t-180.5 66.5q-136 0 -237 -71v-175h-103zM322 88q0 43 30 72.5t74 29.5q45 0 74.5 -29.5t29.5 -72.5q0 -44 -29 -73t-75 -29q-44 0 -74 29 t-30 73z" />
<glyph unicode="@" horiz-adv-x="1808" d="M117 481q0 177 52 330.5t151 271.5t255 186t351 68t347.5 -59.5t247 -163.5t143 -237.5t48.5 -288.5q0 -271 -116.5 -441t-303.5 -170q-159 0 -174 158q-51 -65 -140 -111.5t-194 -46.5t-177 37t-106 103t-42 157t14 199q40 227 158.5 354t324.5 127q165 0 256 -125 l19 105h112l-120 -678q-15 -92 3 -135t79 -43q87 0 155.5 66t107 183t38.5 263q0 109 -24.5 204t-78 176.5t-132.5 140t-192.5 91.5t-252.5 33q-142 0 -259 -39.5t-198 -108.5t-136.5 -164.5t-81.5 -206.5t-26 -235q0 -172 40.5 -306t124 -232t219 -149.5t317.5 -51.5 q200 0 401 84l29 -98q-195 -88 -430 -88q-208 0 -364 59.5t-253 171t-144.5 264t-47.5 346.5zM594 459q-17 -81 -13.5 -150t24.5 -119t73 -78t133 -28q169 0 293 143l86 488q-82 133 -238 133t-240.5 -100t-117.5 -289z" />
<glyph unicode="A" horiz-adv-x="1402" d="M8 0v111h131l449 1163h-125v110h477v-110h-121l445 -1163h129v-111h-463v111h196l-129 344h-594l-133 -344h199v-111h-461zM438 567h527l-260 695z" />
<glyph unicode="B" horiz-adv-x="1239" d="M100 0v111h158v1163h-158v110h555q193 0 292.5 -91.5t99.5 -254.5q0 -127 -62 -212t-158 -99q118 -22 201.5 -113t83.5 -235q0 -85 -24 -151t-65 -108.5t-100.5 -70t-124.5 -38.5t-143 -11h-555zM379 111h258q181 0 265.5 67t84.5 201q0 283 -354 283h-254v-551zM379 772 h242q299 0 299 264q0 115 -68 176.5t-221 61.5h-252v-502z" />
<glyph unicode="C" horiz-adv-x="1208" d="M121 696q0 159 35 288t104 223.5t178.5 146t251.5 51.5q189 0 391 -98l-4 -408h-106l-17 324q-133 65 -266 65q-93 0 -167 -29t-124.5 -81t-83.5 -127t-48 -163t-15 -192q0 -102 13 -188.5t43.5 -164t77 -131t118 -85t162.5 -31.5q231 0 399 125l45 -108 q-186 -136 -453 -136q-272 0 -403 189t-131 530z" />
<glyph unicode="D" horiz-adv-x="1370" d="M98 0v111h158v1163h-158v110h484q157 0 271.5 -30t189 -85t119.5 -142.5t63 -191.5t18 -243q0 -138 -18 -241t-63 -191t-119.5 -143.5t-189.5 -86t-271 -30.5h-484zM377 111h213q155 0 257 33.5t161.5 108t83.5 180t24 263.5q0 154 -24.5 258.5t-84.5 178.5t-162 107.5 t-255 33.5h-213v-1163z" />
<glyph unicode="E" horiz-adv-x="1173" d="M100 0v111h156v1163h-156v110h953v-321h-117v211h-559v-504h506v-113h-506v-546h559v229h123v-340h-959z" />
<glyph unicode="F" horiz-adv-x="1116" d="M100 0v111h156v1163h-156v110h944v-335h-116v225h-551v-563h522v-113h-522v-487h223v-111h-500z" />
<glyph unicode="G" horiz-adv-x="1327" d="M119 711q0 150 37 274.5t109 219t188.5 147.5t267.5 53q106 0 218.5 -20.5t197.5 -53.5l-4 -358h-107l-16 272q-128 43 -293 43q-124 0 -216 -44t-145.5 -123.5t-79.5 -180.5t-26 -225q0 -621 477 -621q85 0 179.5 17t162.5 47v385h-375v112h500v-575 q-208 -103 -467 -103q-304 0 -456 192t-152 542z" />
<glyph unicode="H" horiz-adv-x="1527" d="M111 0v111h135v1163h-135v110h448v-110h-192v-486h794v486h-190v110h446v-110h-135v-1163h135v-111h-446v111h190v563h-794v-563h192v-111h-448z" />
<glyph unicode="I" horiz-adv-x="651" d="M92 0v111h176v1163h-176v110h467v-110h-170v-1163h170v-111h-467z" />
<glyph unicode="J" horiz-adv-x="600" d="M4 -375q128 80 185 175.5t57 230.5v1243h-195v110h451v-110h-133v-1221q0 -183 -72.5 -307.5t-216.5 -208.5z" />
<glyph unicode="K" horiz-adv-x="1304" d="M98 0v111h160v1163h-160v110h449v-110h-168v-1163h168v-111h-449zM442 723l494 551h-152v110h453v-110h-156l-493 -549l532 -614h140v-111h-455v111h160z" />
<glyph unicode="L" horiz-adv-x="1064" d="M100 0v111h156v1163h-156v110h465v-110h-188v-1163h514v282h113v-393h-904z" />
<glyph unicode="M" horiz-adv-x="1886" d="M45 0v111h135l172 1163h-157v110h346l399 -1228l412 1228h340v-110h-158l160 -1163h149v-111h-471v111h201l-148 1138l-426 -1249h-127l-409 1253l-162 -1142h213v-111h-469z" />
<glyph unicode="N" horiz-adv-x="1511" d="M102 0v111h152v1163h-152v110h316l741 -1220v1110h-225v110h496v-110h-150v-1274h-154l-751 1221v-1110h229v-111h-502z" />
<glyph unicode="O" horiz-adv-x="1341" d="M121 690q0 715 553 715q547 0 547 -715q0 -713 -551 -713q-119 0 -212 34.5t-155.5 96.5t-104 152t-59.5 196t-18 234zM254 690q0 -111 12 -199.5t42 -164.5t77.5 -126.5t120 -79t168.5 -28.5q95 0 167 28.5t119.5 79t77 126.5t42 164.5t12.5 199.5q0 112 -12.5 200.5 t-42.5 165t-77.5 127t-120.5 79t-169 28.5q-117 0 -199 -42.5t-129 -124.5t-67.5 -187.5t-20.5 -245.5z" />
<glyph unicode="P" horiz-adv-x="1177" d="M100 0v111h156v1163h-156v110h562q227 0 333.5 -108t106.5 -301q0 -190 -107 -300t-333 -110h-158v113h162q168 0 238.5 78t70.5 219q0 67 -15 119t-49.5 93.5t-96 64t-148.5 22.5h-289v-1163h254v-111h-531z" />
<glyph unicode="Q" horiz-adv-x="1361" d="M121 690q0 715 553 715q547 0 547 -715q0 -262 -76 -430q81 -108 149 -260h-131q-129 255 -315.5 390.5t-421.5 135.5q-87 0 -164 -14q25 -203 122.5 -311.5t289.5 -108.5q174 0 270 96q20 -16 40 -42.5t30 -51.5q-129 -117 -344 -117q-119 0 -212 34.5t-155.5 96.5 t-104 152t-59.5 196t-18 234zM254 625q74 14 174 14q177 0 335.5 -69t287.5 -199q41 127 41 319q0 112 -12.5 200.5t-42.5 165t-77.5 127t-120.5 79t-169 28.5q-117 0 -199 -42.5t-129 -124.5t-67.5 -187.5t-20.5 -245.5v-65z" />
<glyph unicode="R" horiz-adv-x="1304" d="M98 1274v110h582q228 0 333 -94.5t105 -275.5q0 -155 -89 -249t-255 -116q106 -73 197.5 -221.5t140.5 -316.5h174v-111h-450v111h141q-42 156 -134.5 302t-213.5 226h-250v-528h180v-111h-459v111h158v1163h-160zM379 750h283q174 0 251.5 66.5t77.5 195.5 q0 130 -70 196t-241 66h-301v-524z" />
<glyph unicode="S" horiz-adv-x="1085" d="M125 426h100l43 -287q50 -23 126 -37t141 -14q134 0 219.5 70.5t85.5 187.5q0 92 -59 156t-160 102l-191 70q-145 54 -216 136t-71 220q0 70 26 135.5t75.5 120t129.5 87t179 32.5q200 0 373 -80v-332h-101l-26 258q-112 41 -246 41q-133 0 -208 -75t-75 -183 q0 -96 50.5 -151t164.5 -97l177 -65q153 -55 231 -143t78 -228q0 -70 -28.5 -136t-81.5 -119.5t-137.5 -85.5t-188.5 -32q-102 0 -207 22t-183 64z" />
<glyph unicode="T" horiz-adv-x="1144" d="M59 1055v329h1026v-329h-106v219h-352v-1163h200v-111h-526v111h205v1163h-338v-219h-109z" />
<glyph unicode="U" horiz-adv-x="1415" d="M72 1274v110h475v-110h-211v-776q0 -113 27.5 -194t79 -126.5t116.5 -65.5t150 -20q84 0 148.5 20t116 65.5t78.5 126.5t27 194v776h-209v110h476v-110h-146v-768q0 -119 -25.5 -211t-69 -151t-107 -97.5t-134.5 -54t-155 -15.5q-492 0 -492 529v768h-145z" />
<glyph unicode="V" horiz-adv-x="1355" d="M10 1274v110h465v-110h-196l401 -1159l395 1159h-188v110h469v-110h-146l-450 -1274h-164l-451 1274h-135z" />
<glyph unicode="W" horiz-adv-x="2004" d="M8 1274v110h488v-110h-213l317 -1149l346 975l-102 284h137l432 -1257l316 1147h-261v110h527v-110h-146l-356 -1274h-154l-333 948l-336 -948h-154l-360 1274h-148z" />
<glyph unicode="X" horiz-adv-x="1323" d="M47 0v111h160l381 606l-357 557h-168v110h467v-110h-155l287 -471l282 471h-156v110h465v-110h-168l-358 -557l393 -606h164v-111h-467v111h158l-318 510l-307 -510h164v-111h-467z" />
<glyph unicode="Y" horiz-adv-x="1243" d="M12 1274v110h451v-110h-193l353 -604l360 604h-195v110h453v-110h-123l-438 -713v-450h197v-111h-523v111h207v450l-424 713h-125z" />
<glyph unicode="Z" d="M94 0v106l789 1168h-633v-254h-115v364h895v-106l-788 -1167h665v305h115v-416h-928z" />
<glyph unicode="[" horiz-adv-x="589" d="M166 -442v1867h369v-110h-248v-1647h248v-110h-369z" />
<glyph unicode="\" horiz-adv-x="716" d="M86 1362v22h121l420 -1359v-25h-115z" />
<glyph unicode="]" horiz-adv-x="589" d="M55 -332h248v1647h-248v110h369v-1867h-369v110z" />
<glyph unicode="^" horiz-adv-x="1331" d="M197 961l469 469l469 -469l-82 -82l-387 387l-387 -387z" />
<glyph unicode="_" horiz-adv-x="1060" d="M121 -63h819v-101h-819v101z" />
<glyph unicode="`" horiz-adv-x="1228" d="M467 1425h135l160 -309h-117z" />
<glyph unicode="a" horiz-adv-x="993" d="M88 238q0 67 29 117t86.5 82t129 52t171.5 33l188 25v248q-66 51 -211 51q-146 0 -217 -51v-174h-96q-25 73 -25 141q0 89 85.5 140.5t252.5 51.5q80 0 137 -8.5t93 -32.5t56.5 -47t30 -72t11.5 -85.5t2 -108.5v-428q0 -76 59 -76q18 0 80 10v-108q-49 -10 -108 -10 q-63 0 -102 36t-42 101q-52 -59 -134 -103.5t-189 -44.5q-145 0 -216 68t-71 193zM215 242q0 -158 180 -158q93 0 170.5 38.5t126.5 88.5v244l-180 -27q-158 -23 -227.5 -62.5t-69.5 -123.5z" />
<glyph unicode="b" horiz-adv-x="1052" d="M16 1315v110h260v-589q95 118 275 118q401 0 401 -485q0 -228 -100.5 -360t-300.5 -132q-184 0 -281 123l-45 -100h-65v1315h-144zM276 233q35 -60 98 -101.5t158 -41.5q67 0 118 19t84 52t53.5 82t29 103.5t8.5 122.5t-7.5 121.5t-27.5 102t-52.5 80.5t-84.5 50.5 t-121 18.5q-95 0 -158.5 -40.5t-97.5 -96.5v-472z" />
<glyph unicode="c" horiz-adv-x="952" d="M100 469q0 103 25.5 190t75 153.5t130 104t183.5 37.5q188 0 334 -75l-31 -306h-94v238q-90 37 -205 37q-149 0 -219 -102t-70 -273q0 -85 15.5 -152t48.5 -120t91 -82t138 -29q85 0 165 26.5t140 69.5l39 -104q-69 -43 -163 -74t-193 -31q-139 0 -233 65.5t-135.5 173.5 t-41.5 253z" />
<glyph unicode="d" horiz-adv-x="1091" d="M102 469q0 228 99.5 356.5t302.5 128.5q183 0 278 -118v479h-202v110h319v-1316h143v-109h-118q-69 0 -100.5 28.5t-32.5 94.5q-122 -146 -291 -146q-204 0 -301 128.5t-97 363.5zM229 469q0 -85 14 -150.5t46 -119t89.5 -81.5t139.5 -28q159 0 262 143v472 q-32 56 -96.5 96.5t-161.5 40.5q-82 0 -140.5 -27.5t-91 -79t-47 -116.5t-14.5 -150z" />
<glyph unicode="e" horiz-adv-x="966" d="M100 469q0 104 24 191t72 153.5t126 103.5t180 37q90 0 160.5 -32t114 -86.5t65.5 -123t22 -145.5q0 -59 -12 -137h-625q3 -344 287 -344q158 0 307 109l43 -99q-157 -119 -352 -119q-110 0 -191 36t-128.5 103t-70 154.5t-22.5 198.5zM229 530h512q4 24 4 45 q0 124 -63.5 198.5t-181.5 74.5q-72 0 -124 -23.5t-82 -68t-45.5 -99.5t-19.5 -127z" />
<glyph unicode="f" horiz-adv-x="698" d="M86 827v107h145v192q0 68 14 123.5t44.5 100.5t84.5 70.5t128 25.5q50 0 108 -14v-113q-53 12 -106 12q-88 0 -122 -52.5t-34 -158.5v-186h291v-107h-291v-718h230v-109h-490v96l143 25v706h-145z" />
<glyph unicode="g" horiz-adv-x="989" d="M66 -205q0 79 50 139.5t113 81.5q-61 22 -61 101q0 98 94 192q-78 39 -121 115t-43 180q0 164 97 257t284 93q68 0 134 -17t100 -42q112 135 243 135l21 -110l-209 -86q84 -87 84 -232q0 -156 -99 -245t-276 -89q-97 0 -155 21l-39 -187h303q157 0 235 -62.5t78 -178.5 q0 -146 -120.5 -235t-319.5 -89q-204 0 -298.5 68.5t-94.5 189.5zM188 -180q0 -89 65.5 -133.5t209.5 -44.5q136 0 222.5 53t86.5 155q0 142 -197 142h-272q-56 -34 -85.5 -74t-29.5 -98zM219 604q0 -107 62 -171t196 -64q252 0 252 235q0 109 -61.5 175.5t-190.5 66.5 q-258 0 -258 -242z" />
<glyph unicode="h" horiz-adv-x="1153" d="M39 1315v110h276v-585q52 48 144.5 81t187.5 33q176 0 246 -84.5t70 -267.5v-493h143v-109h-432v109h172v487q0 51 -3.5 84t-16 66.5t-36 52.5t-63.5 31t-98 12q-91 0 -177.5 -33.5t-136.5 -77.5v-622h172v-109h-434v109h146v1206h-160z" />
<glyph unicode="i" horiz-adv-x="636" d="M72 0v109h209v716h-209v109h325v-825h201v-109h-526zM231 1282q0 49 26.5 72.5t70.5 23.5q40 0 68 -24t28 -72q0 -46 -28 -70t-68 -24q-44 0 -70.5 23.5t-26.5 70.5z" />
<glyph unicode="j" horiz-adv-x="503" d="M41 825v109h303v-995q0 -78 -10 -136t-35 -111.5t-73 -92t-120 -62.5l-53 98q99 39 136.5 100t37.5 195v895h-186zM176 1282q0 49 26 72.5t70 23.5q41 0 69 -24t28 -72q0 -46 -28.5 -70t-68.5 -24q-44 0 -70 23.5t-26 70.5z" />
<glyph unicode="k" horiz-adv-x="1124" d="M43 1315v110h274v-981l431 381h-160v109h436v-109h-139l-310 -276l318 -440h188v-109h-313v92l-276 393l-175 -153v-223h211v-109h-471v109h144v1206h-158z" />
<glyph unicode="l" horiz-adv-x="503" d="M-20 1315v110h296v-1198q0 -73 22 -105t77 -32q51 0 94 16l18 -104q-61 -25 -133 -25q-106 0 -150 59.5t-44 180.5v1098h-180z" />
<glyph unicode="m" horiz-adv-x="1673" d="M86 0v109h143v716h-141v109h250v-94q48 50 121.5 82t154.5 32q100 0 162.5 -32.5t106.5 -100.5q118 133 313 133q161 0 226 -85t65 -261v-499h139v-109h-393v109h135v493q0 128 -37.5 184t-146.5 56q-80 0 -149.5 -31t-110.5 -80v-622h135v-109h-391v109h137v618 q-57 115 -211 115q-147 0 -250 -111v-622h137v-109h-395z" />
<glyph unicode="n" horiz-adv-x="1169" d="M86 0v109h143v716h-141v109h250v-100q51 49 143 84.5t191 35.5q173 0 241 -84.5t68 -267.5v-493h141v-109h-426v109h168v487q0 64 -6 103t-27 75t-65 52t-115 16q-89 0 -173.5 -33.5t-133.5 -77.5v-622h170v-109h-428z" />
<glyph unicode="o" horiz-adv-x="1032" d="M102 467q0 227 99.5 357t314.5 130q414 0 414 -485q0 -111 -22.5 -198.5t-71 -154.5t-130.5 -103t-194 -36q-109 0 -189 35.5t-128 102t-70.5 154t-22.5 198.5zM227 469q0 -186 66 -283.5t223 -97.5t222 96.5t65 282.5t-64.5 281.5t-222.5 95.5q-157 0 -223 -95.5 t-66 -279.5z" />
<glyph unicode="p" horiz-adv-x="1089" d="M51 825v109h258v-105q92 125 277 125q204 0 302.5 -128t98.5 -361q0 -112 -23 -200t-71 -153.5t-125.5 -100t-181.5 -34.5q-180 0 -273 119v-430h224v-108h-478v98l138 22v1147h-146zM313 229q32 -57 95.5 -98t160.5 -41q83 0 142 27.5t91 79.5t46 117t14 151 q0 85 -14 150.5t-46 118t-91 80.5t-142 28q-95 0 -159 -41.5t-97 -100.5v-471z" />
<glyph unicode="q" horiz-adv-x="1052" d="M102 465q0 233 98 361t304 128q168 0 278 -114l27 176h84v-1340l137 -22v-96h-477v108h223v430q-93 -119 -272 -119q-206 0 -304 129t-98 359zM227 465q0 -86 14 -151t46 -117t91 -79.5t142 -27.5q172 0 256 139v471q-33 59 -97 100.5t-159 41.5q-83 0 -142 -28 t-91 -80.5t-46 -118t-14 -150.5z" />
<glyph unicode="r" horiz-adv-x="800" d="M86 0v96l143 25v704h-143v109h256v-201q34 90 109.5 155.5t160.5 65.5q93 0 154 -14l-16 -149l-148 40q-74 -6 -146.5 -63.5t-109.5 -144.5v-514h232v-109h-492z" />
<glyph unicode="s" horiz-adv-x="884" d="M96 328h94l46 -211q91 -41 200 -41q98 0 159.5 41t61.5 114q0 61 -37 95.5t-112 58.5l-176 57q-205 67 -205 244q0 52 19.5 98.5t57.5 85t102 61.5t147 23q161 0 301 -55v-248h-95l-22 174q-80 29 -182 29q-100 0 -149.5 -47t-49.5 -113q0 -56 30.5 -89t96.5 -54l168 -55 q116 -36 175.5 -96.5t59.5 -161.5q0 -113 -94 -187t-256 -74q-154 0 -315 72z" />
<glyph unicode="t" horiz-adv-x="684" d="M33 825v88l182 21v237l117 25v-262h272v-109h-272v-575q0 -72 32 -116t103 -44q85 0 147 29l23 -107q-79 -35 -195 -35q-114 0 -170.5 70.5t-56.5 194.5v583h-182z" />
<glyph unicode="u" horiz-adv-x="1144" d="M41 825v109h276v-596q0 -63 6.5 -102.5t26.5 -75.5t61 -52t107 -16q97 0 183 48t126 112v573h-200v109h317v-825h146v-109h-250v141q-50 -65 -144.5 -114.5t-201.5 -49.5q-162 0 -227.5 85t-65.5 270v493h-160z" />
<glyph unicode="v" horiz-adv-x="1099" d="M25 825v109h428v-109h-177l275 -721l274 721h-178v109h428v-109h-129l-319 -825h-156l-321 825h-125z" />
<glyph unicode="w" horiz-adv-x="1617" d="M27 825v109h424v-109h-179l226 -704l254 606l-84 207h127l333 -813l211 704h-188v109h440v-109h-127l-262 -825h-141l-248 604l-258 -604h-137l-271 825h-120z" />
<glyph unicode="x" horiz-adv-x="1134" d="M68 0v109h133l284 370l-235 346h-180v109h313v-92l199 -295l204 278h-194v109h455v-109h-138l-264 -350l262 -366h174v-109h-309v92l-221 322l-223 -305h194v-109h-454z" />
<glyph unicode="y" horiz-adv-x="1177" d="M23 825v109h325v-100l268 -674l289 665h-256v109h506v-109h-123l-514 -1157q-32 -73 -79 -102t-115 -29q-91 0 -162 23v100h227l166 369l-332 796h-200z" />
<glyph unicode="z" horiz-adv-x="909" d="M90 0v96l553 738h-416l-20 -179h-90v279h674v-96l-553 -736h456l21 211h90v-313h-715z" />
<glyph unicode="{" horiz-adv-x="577" d="M51 438v107q96 0 137 35t41 127v442q0 151 66.5 213.5t210.5 62.5v-106q-83 -3 -119.5 -39t-36.5 -137v-445q0 -48 -11.5 -85.5t-26 -58t-38 -35t-37.5 -19t-34 -8.5q21 -4 43.5 -16t47 -34.5t40.5 -64t16 -94.5v-447q0 -101 36 -135t120 -37v-106q-143 0 -210 62 t-67 214v440q0 92 -46 128t-132 36z" />
<glyph unicode="|" horiz-adv-x="428" d="M166 -442v1867h96v-1867h-96z" />
<glyph unicode="}" horiz-adv-x="577" d="M72 -336q83 3 119 37t36 135v447q0 53 16 94.5t41 64t47.5 34.5t43.5 16q-20 4 -34.5 8.5t-37.5 19.5t-38 35t-26.5 57.5t-11.5 85.5v445q0 101 -36 137t-119 39v106q144 0 210 -62.5t66 -213.5v-442q0 -92 41 -127t137 -35v-107q-86 0 -132 -36t-46 -128v-440 q0 -152 -66.5 -214t-209.5 -62v106z" />
<glyph unicode="~" horiz-adv-x="954" d="M125 492l18 118q25 -24 42 -37.5t48.5 -27t63.5 -13.5q41 0 86.5 24.5t81 53.5t85.5 53.5t99 24.5q54 0 103.5 -26.5t81.5 -55.5l-25 -112q-89 77 -158 77q-31 0 -66 -16t-67.5 -38.5t-66.5 -45.5t-74 -39t-78 -16q-48 0 -98.5 24.5t-75.5 51.5z" />
<glyph unicode="&#xa1;" horiz-adv-x="460" d="M123 852q0 44 30 73t76 29q44 0 73.5 -29t29.5 -73q0 -43 -29.5 -71.5t-73.5 -28.5q-46 0 -76 28.5t-30 71.5zM156 -444l26 964h97l22 -964h-145z" />
<glyph unicode="&#xa2;" d="M188 469q0 105 26 192t76.5 153t133 103t188.5 37q9 0 29 -1t29 -1l37 154l86 -21l-35 -147q131 -28 221 -94l-41 -105q-93 69 -207 92l-178 -735q29 -6 92 -6q162 3 293 103l41 -105q-68 -47 -164.5 -79t-202.5 -32q-25 0 -86 9l-30 -125l-84 20l28 127 q-126 48 -189 169t-63 292zM317 473q0 -267 152 -348l174 719q-172 -1 -249 -96t-77 -275z" />
<glyph unicode="&#xa3;" d="M113 0v90l141 39v367h-141v100h141v317q0 84 14.5 156t46.5 134.5t80 107t119 69.5t160 25q195 0 358 -76l-28 -287h-95v213q-109 37 -233 37q-297 0 -297 -385v-311h418v-100h-418v-387h633v-109h-899z" />
<glyph unicode="&#xa4;" d="M154 891l84 84l149 -152q67 58 184 58q116 0 187 -58l149 148l80 -80l-158 -162q33 -65 33 -162q0 -100 -35 -172l162 -166l-82 -84l-162 156q-63 -51 -178 -51q-114 0 -178 49l-147 -147l-82 81l153 156q-37 67 -37 176q0 97 35 166zM389 567q0 -207 180 -207 q179 0 179 205t-179 205q-180 0 -180 -203z" />
<glyph unicode="&#xa5;" d="M-14 1274v110h434v-110h-182l331 -598l338 598h-184v110h436v-110h-119l-235 -400h178v-100h-238l-106 -178h344v-100h-356v-385h184v-111h-498v111h193v385h-350v100h338l-103 178h-235v100h178l-228 400h-120z" />
<glyph unicode="&#xa6;" horiz-adv-x="446" d="M176 348h96v-790h-96v790zM176 627v798h96v-798h-96z" />
<glyph unicode="&#xa7;" horiz-adv-x="1128" d="M135 618q0 75 44 145.5t116 113.5q-152 90 -152 233q0 127 105.5 211t316.5 84q98 0 204 -24t192 -64v-227h-95l-26 155q-132 53 -273 53q-144 0 -218.5 -48t-74.5 -132q0 -30 14 -57t36 -47t58.5 -40t70 -34.5t82.5 -32.5l159 -59q60 -23 104 -43.5t85 -48t66 -58.5 t40 -71.5t15 -89.5q0 -76 -46 -144t-122 -114q79 -43 119 -97t40 -129q0 -135 -116.5 -212t-333.5 -77q-109 0 -214.5 29t-183.5 80v250h97l20 -184q46 -29 126 -49.5t153 -20.5q147 0 234 42.5t87 133.5q0 27 -13 51.5t-31.5 42t-52 36.5t-60 31t-70.5 30l-231 92 q-128 50 -199.5 118t-71.5 172zM264 633q0 -69 54 -118t155 -87l258 -100q59 31 101 83t42 115q0 35 -14 64.5t-33.5 49.5t-54.5 39.5t-62 30.5t-71 27l-240 90q-63 -30 -99 -83.5t-36 -110.5z" />
<glyph unicode="&#xa8;" horiz-adv-x="1228" d="M338 1262q0 49 26 72.5t70 23.5q40 0 68 -24t28 -72q0 -47 -28 -71t-68 -24q-43 0 -69.5 24t-26.5 71zM698 1262q0 49 26.5 72.5t70.5 23.5q40 0 68 -24t28 -72q0 -47 -28 -71t-68 -24q-44 0 -70.5 24t-26.5 71z" />
<glyph unicode="&#xa9;" horiz-adv-x="1652" d="M117 692q0 214 93.5 379.5t254.5 253.5t362 88t362 -88t254 -253t93 -380q0 -161 -54.5 -298t-149 -230.5t-225 -146t-280.5 -52.5t-281 52.5t-225.5 146t-149 230.5t-54.5 298zM223 692q0 -284 169.5 -455t434.5 -171q130 0 241 44t191 124t125.5 198t45.5 260 t-45.5 259t-125.5 196t-191 122.5t-241 43.5q-174 0 -310.5 -74t-215 -216t-78.5 -331zM449 688q0 199 96.5 312.5t285.5 113.5q130 0 263 -63v-238h-99v164q-72 35 -164 35q-140 0 -206 -86t-66 -238q0 -326 254 -326q143 0 274 89l29 -99q-152 -92 -307 -92 q-360 0 -360 428z" />
<glyph unicode="&#xaa;" horiz-adv-x="763" d="M102 870q0 179 281 179h100v73q0 101 -125 101q-70 0 -118 -25v-88h-80l-15 143q34 23 94 39.5t119 16.5q226 0 226 -181v-288q0 -22 7 -31.5t27 -9.5q22 0 46 6v-88q-34 -6 -72 -6q-97 0 -103 77q-86 -86 -196 -86q-96 0 -143.5 44.5t-47.5 123.5zM209 877q0 -41 25 -65 t77 -24q50 0 97 21t75 49v119h-96q-178 0 -178 -100z" />
<glyph unicode="&#xab;" horiz-adv-x="972" d="M86 553l346 424l80 -70l-270 -354l270 -354l-80 -70zM446 553l347 424l79 -70l-270 -354l270 -354l-79 -70z" />
<glyph unicode="&#xac;" horiz-adv-x="1228" d="M147 649v117h920v-500h-117v383h-803z" />
<glyph unicode="&#xad;" d="M242 494v116h663v-116h-663z" />
<glyph unicode="&#xae;" horiz-adv-x="1652" d="M117 692q0 214 93.5 379.5t254.5 253.5t362 88t362 -88t254 -253t93 -380q0 -161 -54.5 -298t-149 -230.5t-225 -146t-280.5 -52.5t-281 52.5t-225.5 146t-149 230.5t-54.5 298zM223 692q0 -284 169.5 -455t434.5 -171q130 0 241 44t191 124t125.5 198t45.5 260 t-45.5 259t-125.5 196t-191 122.5t-241 43.5q-174 0 -310.5 -74t-215 -216t-78.5 -331zM465 268v86h100v666h-100v86h391q299 0 299 -240q0 -94 -55.5 -154t-159.5 -75l186 -283h97v-86h-314v86h105l-176 273h-170v-273h112v-86h-315zM668 713h178q205 0 205 151 q0 71 -46 113.5t-149 42.5h-188v-307z" />
<glyph unicode="&#xaf;" horiz-adv-x="1228" d="M338 1192v108h553v-108h-553z" />
<glyph unicode="&#xb0;" horiz-adv-x="743" d="M92 1120q0 124 77 204.5t200 80.5q126 0 203 -80t77 -205q0 -123 -77 -203.5t-203 -80.5q-123 0 -200 80.5t-77 203.5zM178 1120q0 -91 52 -145.5t139 -54.5q90 0 141 54t51 146q0 91 -51.5 146t-140.5 55q-87 0 -139 -55.5t-52 -145.5z" />
<glyph unicode="&#xb1;" d="M113 72v116h919v-116h-919zM113 764v117h397v405h121v-405h401v-117h-401v-381h-121v381h-397z" />
<glyph unicode="&#xb2;" horiz-adv-x="647" d="M72 907v80q13 12 131 118.5t139 127.5q57 52 80.5 90.5t23.5 93.5q0 53 -33 85t-98 32q-64 0 -99.5 -32.5t-35.5 -86.5q0 -24 6 -39l-106 -8q-4 14 -4 47q0 94 62 151.5t177 57.5q119 0 180.5 -58t61.5 -149q0 -69 -40 -127.5t-107 -115.5q-25 -21 -71.5 -63t-84 -75 t-41.5 -37h272v84h88v-176h-501z" />
<glyph unicode="&#xb3;" horiz-adv-x="638" d="M59 973l50 80q77 -66 186 -66q162 0 162 113q0 58 -41 85t-135 27h-82v93h77q72 0 115 28.5t43 83.5q0 115 -135 115q-71 0 -131 -29v-80h-80l-8 136q91 65 221 65q123 0 182.5 -55.5t59.5 -138.5q0 -68 -37 -110.5t-94 -53.5q68 -13 110.5 -54.5t42.5 -113.5 q0 -93 -69 -148t-201 -55q-71 0 -134 22t-102 56z" />
<glyph unicode="&#xb4;" horiz-adv-x="1228" d="M467 1116l160 309h135l-178 -309h-117z" />
<glyph unicode="&#xb5;" horiz-adv-x="1218" d="M86 825v109h276v-596q0 -123 47.5 -184.5t174.5 -61.5q95 0 172 47t118 113v573h-200v109h317v-825h146v-109h-250v141q-52 -67 -137 -115.5t-191 -48.5q-135 0 -197 62v-481h-116v1267h-160z" />
<glyph unicode="&#xb6;" horiz-adv-x="1024" d="M76 641q0 135 80.5 214t242.5 79h207v-1055h-112v467h-95q-163 0 -243 79t-80 216zM565 -373q98 37 135 100.5t37 198.5v1008h111v-995q0 -79 -9 -136t-33 -111t-71 -92.5t-119 -62.5z" />
<glyph unicode="&#xb7;" horiz-adv-x="466" d="M129 551q0 43 30 72.5t74 29.5t74.5 -29.5t30.5 -72.5q0 -44 -30 -73t-75 -29q-44 0 -74 29t-30 73z" />
<glyph unicode="&#xb8;" horiz-adv-x="1228" d="M416 -358l20 84q91 -52 174 -52q97 0 97 74q0 30 -24 50t-58 20q-35 0 -62 -11q-26 11 -51 21l61 172h95l-47 -123q20 8 55 8q56 0 95.5 -38t39.5 -99q0 -67 -50.5 -110.5t-148.5 -43.5q-88 0 -196 48z" />
<glyph unicode="&#xb9;" horiz-adv-x="565" d="M55 1528l228 86h94v-615h162v-92h-459v92h192v510l-192 -65z" />
<glyph unicode="&#xba;" horiz-adv-x="749" d="M100 1008q0 134 68.5 217.5t206.5 83.5q139 0 206.5 -83t67.5 -218q0 -139 -67.5 -222.5t-208.5 -83.5q-138 0 -205.5 84t-67.5 222zM205 1008q0 -213 170 -213q92 0 131 55.5t39 157.5q0 209 -170 209t-170 -209z" />
<glyph unicode="&#xbb;" horiz-adv-x="972" d="M100 199l271 354l-271 354l80 70l346 -424l-346 -424zM461 199l270 354l-270 354l80 70l346 -424l-346 -424z" />
<glyph unicode="&#xbc;" horiz-adv-x="1394" d="M96 1298l228 86h94v-614h162v-92h-459v92h192v510l-192 -66zM283 0v14l837 1370h111v-14l-844 -1370h-104zM705 152v77l282 367q20 27 37.5 55t25.5 42l7 14h119v-469h116v-86h-116v-152h-105v152h-366zM821 238h250v327z" />
<glyph unicode="&#xbd;" horiz-adv-x="1456" d="M96 1298l228 86h94v-614h162v-92h-459v92h192v510l-192 -66zM283 0v14l837 1370h111v-14l-844 -1370h-104zM846 0v80q253 227 270 244q58 56 81.5 94t23.5 92q0 53 -33 85t-98 32t-100.5 -32.5t-35.5 -86.5q0 -4 7 -39l-107 -8q-4 28 -4 47q0 93 62.5 151t177.5 58 q119 0 180 -57.5t61 -149.5q0 -121 -147 -246q-158 -135 -195 -172h271v84h88v-176h-502z" />
<glyph unicode="&#xbe;" horiz-adv-x="1347" d="M98 743l49 80q76 -65 187 -65q162 0 162 112q0 58 -41.5 85.5t-135.5 27.5h-81v92h77q72 0 115 29t43 84q0 115 -135 115q-71 0 -131 -29v-80h-80l-8 135q92 66 221 66q123 0 182.5 -56t59.5 -139q0 -68 -37 -110.5t-94 -53.5q68 -13 110.5 -54.5t42.5 -113.5 q0 -93 -69 -147.5t-201 -54.5q-71 0 -134.5 21.5t-101.5 55.5zM238 0v14l837 1370h111v-14l-844 -1370h-104zM659 152v77l283 367q20 27 37.5 55t24.5 42l8 14h118v-469h117v-86h-117v-152h-104v152h-367zM776 238h250v327z" />
<glyph unicode="&#xbf;" horiz-adv-x="892" d="M88 -133q0 265 322 401v252h120v-321q-317 -102 -317 -322q0 -94 63.5 -160.5t180.5 -66.5q133 0 237 71v177h103l10 -238q-150 -125 -354 -125q-167 0 -266 95t-99 237zM369 852q0 44 29 73t75 29q45 0 75 -29t30 -73q0 -43 -30.5 -71.5t-74.5 -28.5q-45 0 -74.5 28.5 t-29.5 71.5z" />
<glyph unicode="&#xc0;" horiz-adv-x="1402" d="M8 0v111h131l449 1163h-125v110h477v-110h-121l445 -1163h129v-111h-463v111h196l-129 344h-594l-133 -344h199v-111h-461zM438 567h527l-260 695zM487 1841h136l159 -309h-116z" />
<glyph unicode="&#xc1;" horiz-adv-x="1402" d="M8 0v111h131l449 1163h-125v110h477v-110h-121l445 -1163h129v-111h-463v111h196l-129 344h-594l-133 -344h199v-111h-461zM438 567h527l-260 695zM614 1532l160 309h135l-178 -309h-117z" />
<glyph unicode="&#xc2;" horiz-adv-x="1402" d="M8 0v111h131l449 1163h-125v110h477v-110h-121l445 -1163h129v-111h-463v111h196l-129 344h-594l-133 -344h199v-111h-461zM430 1532l195 309h149l197 -309h-117l-156 227l-153 -227h-115zM438 567h527l-260 695z" />
<glyph unicode="&#xc3;" horiz-adv-x="1402" d="M8 0v111h131l449 1163h-125v110h477v-110h-121l445 -1163h129v-111h-463v111h196l-129 344h-594l-133 -344h199v-111h-461zM424 1626l16 100q49 -49 119 -49q48 0 132.5 36t146.5 36q71 0 137 -53l-17 -103q-55 52 -120 52q-43 0 -131 -35t-148 -35q-40 0 -78 15.5 t-57 35.5zM438 567h527l-260 695z" />
<glyph unicode="&#xc4;" horiz-adv-x="1402" d="M8 0v111h131l449 1163h-125v110h477v-110h-121l445 -1163h129v-111h-463v111h196l-129 344h-594l-133 -344h199v-111h-461zM424 1677q0 49 26 73t70 24q40 0 68 -24.5t28 -72.5q0 -46 -28 -70t-68 -24q-44 0 -70 23.5t-26 70.5zM438 567h527l-260 695zM784 1677 q0 49 26.5 73t70.5 24q40 0 68 -24.5t28 -72.5q0 -46 -28 -70t-68 -24q-44 0 -70.5 23.5t-26.5 70.5z" />
<glyph unicode="&#xc5;" horiz-adv-x="1402" d="M8 0v111h131l449 1163h-125v110h477v-110h-121l445 -1163h129v-111h-463v111h196l-129 344h-594l-133 -344h199v-111h-461zM438 567h527l-260 695zM492 1657q0 82 56.5 134t149.5 52q94 0 151.5 -52t57.5 -134q0 -83 -57.5 -136t-151.5 -53q-93 0 -149.5 53t-56.5 136z M582 1657q0 -51 31 -81t85 -30q55 0 86 30t31 81q0 50 -31 80t-86 30q-54 0 -85 -30t-31 -80z" />
<glyph unicode="&#xc6;" horiz-adv-x="2033" d="M-2 0v111h129l860 1163h-123v110h1049v-321h-117v211h-559v-504h506v-113h-506v-546h567v229h115v-340h-997v111h194v344h-592l-258 -344h195v-111h-463zM602 567h514v695z" />
<glyph unicode="&#xc7;" horiz-adv-x="1208" d="M121 696q0 159 35 288t104 223.5t178.5 146t251.5 51.5q189 0 391 -98l-4 -408h-106l-17 324q-133 65 -266 65q-93 0 -167 -29t-124.5 -81t-83.5 -127t-48 -163t-15 -192q0 -102 13 -188.5t43.5 -164t77 -131t118 -85t162.5 -31.5q231 0 399 125l45 -108 q-158 -116 -379 -131l-39 -105q20 8 55 8q56 0 96 -38t40 -99q0 -67 -50.5 -110.5t-148.5 -43.5q-89 0 -197 48l21 84q91 -52 174 -52q96 0 96 74q0 30 -24 50t-58 20q-33 0 -61 -11q-26 11 -51 21l53 149q-133 4 -232.5 56t-160.5 146.5t-91 223.5t-30 293z" />
<glyph unicode="&#xc8;" horiz-adv-x="1173" d="M100 0v111h156v1163h-156v110h953v-321h-117v211h-559v-504h506v-113h-506v-546h559v229h123v-340h-959zM389 1841h135l160 -309h-117z" />
<glyph unicode="&#xc9;" horiz-adv-x="1173" d="M100 0v111h156v1163h-156v110h953v-321h-117v211h-559v-504h506v-113h-506v-546h559v229h123v-340h-959zM514 1532l160 309h135l-178 -309h-117z" />
<glyph unicode="&#xca;" horiz-adv-x="1173" d="M100 0v111h156v1163h-156v110h953v-321h-117v211h-559v-504h506v-113h-506v-546h559v229h123v-340h-959zM340 1532l195 309h149l197 -309h-117l-156 227l-153 -227h-115z" />
<glyph unicode="&#xcb;" horiz-adv-x="1173" d="M100 0v111h156v1163h-156v110h953v-321h-117v211h-559v-504h506v-113h-506v-546h559v229h123v-340h-959zM336 1677q0 49 26 73t70 24q40 0 68 -24.5t28 -72.5q0 -46 -28 -70t-68 -24q-44 0 -70 23.5t-26 70.5zM696 1677q0 49 26.5 73t70.5 24q40 0 68 -24.5t28 -72.5 q0 -46 -28 -70t-68 -24q-44 0 -70.5 23.5t-26.5 70.5z" />
<glyph unicode="&#xcc;" horiz-adv-x="651" d="M92 0v111h176v1163h-176v110h467v-110h-170v-1163h170v-111h-467zM106 1841h136l159 -309h-116z" />
<glyph unicode="&#xcd;" horiz-adv-x="651" d="M92 0v111h176v1163h-176v110h467v-110h-170v-1163h170v-111h-467zM244 1532l159 309h136l-179 -309h-116z" />
<glyph unicode="&#xce;" horiz-adv-x="651" d="M57 1532l195 309h149l197 -309h-117l-155 227l-154 -227h-115zM92 0v111h176v1163h-176v110h467v-110h-170v-1163h170v-111h-467z" />
<glyph unicode="&#xcf;" horiz-adv-x="651" d="M49 1677q0 49 26 73t70 24q40 0 68.5 -24.5t28.5 -72.5q0 -46 -28.5 -70t-68.5 -24q-44 0 -70 23.5t-26 70.5zM92 0v111h176v1163h-176v110h467v-110h-170v-1163h170v-111h-467zM410 1677q0 49 26 73t70 24q40 0 68 -24.5t28 -72.5q0 -46 -28 -70t-68 -24q-44 0 -70 23.5 t-26 70.5z" />
<glyph unicode="&#xd0;" horiz-adv-x="1398" d="M127 647v96h160v531h-158v110h481q157 0 271.5 -30t189.5 -85t120 -142.5t63 -191.5t18 -243q0 -114 -12.5 -204t-41.5 -170t-79 -137t-122.5 -98.5t-174 -62t-232.5 -20.5h-481v111h158v536h-160zM406 111h215q155 0 256.5 33.5t161 108t83 179.5t23.5 264 q0 155 -24.5 259t-84 178t-161 107.5t-254.5 33.5h-215v-531h346v-96h-346v-536z" />
<glyph unicode="&#xd1;" horiz-adv-x="1511" d="M102 0v111h152v1163h-152v110h316l741 -1220v1110h-225v110h496v-110h-150v-1274h-154l-751 1221v-1110h229v-111h-502zM489 1626l17 100q49 -49 119 -49q48 0 132 36t146 36q71 0 137 -53l-16 -103q-55 52 -121 52q-43 0 -130.5 -35t-147.5 -35q-41 0 -79 15.5t-57 35.5 z" />
<glyph unicode="&#xd2;" horiz-adv-x="1341" d="M121 690q0 715 553 715q547 0 547 -715q0 -713 -551 -713q-119 0 -212 34.5t-155.5 96.5t-104 152t-59.5 196t-18 234zM254 690q0 -111 12 -199.5t42 -164.5t77.5 -126.5t120 -79t168.5 -28.5q95 0 167 28.5t119.5 79t77 126.5t42 164.5t12.5 199.5q0 112 -12.5 200.5 t-42.5 165t-77.5 127t-120.5 79t-169 28.5q-117 0 -199 -42.5t-129 -124.5t-67.5 -187.5t-20.5 -245.5zM461 1841h135l160 -309h-117z" />
<glyph unicode="&#xd3;" horiz-adv-x="1341" d="M121 690q0 715 553 715q547 0 547 -715q0 -713 -551 -713q-119 0 -212 34.5t-155.5 96.5t-104 152t-59.5 196t-18 234zM254 690q0 -111 12 -199.5t42 -164.5t77.5 -126.5t120 -79t168.5 -28.5q95 0 167 28.5t119.5 79t77 126.5t42 164.5t12.5 199.5q0 112 -12.5 200.5 t-42.5 165t-77.5 127t-120.5 79t-169 28.5q-117 0 -199 -42.5t-129 -124.5t-67.5 -187.5t-20.5 -245.5zM586 1532l159 309h136l-179 -309h-116z" />
<glyph unicode="&#xd4;" horiz-adv-x="1341" d="M121 690q0 715 553 715q547 0 547 -715q0 -713 -551 -713q-119 0 -212 34.5t-155.5 96.5t-104 152t-59.5 196t-18 234zM254 690q0 -111 12 -199.5t42 -164.5t77.5 -126.5t120 -79t168.5 -28.5q95 0 167 28.5t119.5 79t77 126.5t42 164.5t12.5 199.5q0 112 -12.5 200.5 t-42.5 165t-77.5 127t-120.5 79t-169 28.5q-117 0 -199 -42.5t-129 -124.5t-67.5 -187.5t-20.5 -245.5zM401 1532l195 309h149l197 -309h-117l-155 227l-154 -227h-115z" />
<glyph unicode="&#xd5;" horiz-adv-x="1341" d="M121 690q0 715 553 715q547 0 547 -715q0 -713 -551 -713q-119 0 -212 34.5t-155.5 96.5t-104 152t-59.5 196t-18 234zM254 690q0 -111 12 -199.5t42 -164.5t77.5 -126.5t120 -79t168.5 -28.5q95 0 167 28.5t119.5 79t77 126.5t42 164.5t12.5 199.5q0 112 -12.5 200.5 t-42.5 165t-77.5 127t-120.5 79t-169 28.5q-117 0 -199 -42.5t-129 -124.5t-67.5 -187.5t-20.5 -245.5zM395 1626l17 100q49 -49 118 -49q48 0 132.5 36t146.5 36q71 0 137 -53l-16 -103q-55 52 -121 52q-43 0 -131 -35t-148 -35q-40 0 -78 15.5t-57 35.5z" />
<glyph unicode="&#xd6;" horiz-adv-x="1341" d="M121 690q0 715 553 715q547 0 547 -715q0 -713 -551 -713q-119 0 -212 34.5t-155.5 96.5t-104 152t-59.5 196t-18 234zM254 690q0 -111 12 -199.5t42 -164.5t77.5 -126.5t120 -79t168.5 -28.5q95 0 167 28.5t119.5 79t77 126.5t42 164.5t12.5 199.5q0 112 -12.5 200.5 t-42.5 165t-77.5 127t-120.5 79t-169 28.5q-117 0 -199 -42.5t-129 -124.5t-67.5 -187.5t-20.5 -245.5zM395 1677q0 49 26.5 73t70.5 24q40 0 68 -24.5t28 -72.5q0 -46 -28 -70t-68 -24q-44 0 -70.5 23.5t-26.5 70.5zM756 1677q0 49 26 73t70 24q40 0 68 -24.5t28 -72.5 q0 -46 -28 -70t-68 -24q-44 0 -70 23.5t-26 70.5z" />
<glyph unicode="&#xd7;" d="M156 879l86 88l331 -332l326 328l84 -82l-328 -328l330 -332l-86 -84l-330 330l-323 -324l-82 84l323 322z" />
<glyph unicode="&#xd8;" horiz-adv-x="1341" d="M121 690q0 715 553 715q121 0 219 -39l35 80h106v-23l-47 -106q234 -166 234 -627q0 -713 -551 -713q-132 0 -240 46l-43 -101h-100v25l53 127q-219 165 -219 616zM254 690q0 -357 139 -491l453 1058q-78 33 -176 33q-117 0 -199 -42.5t-129 -124.5t-67.5 -187.5 t-20.5 -245.5zM479 133q80 -41 195 -41q95 0 167 28.5t119.5 79t77 126.5t42 164.5t12.5 199.5q0 370 -156 506z" />
<glyph unicode="&#xd9;" horiz-adv-x="1415" d="M72 1274v110h475v-110h-211v-776q0 -113 27.5 -194t79 -126.5t116.5 -65.5t150 -20q84 0 148.5 20t116 65.5t78.5 126.5t27 194v776h-209v110h476v-110h-146v-768q0 -119 -25.5 -211t-69 -151t-107 -97.5t-134.5 -54t-155 -15.5q-492 0 -492 529v768h-145zM492 1841h135 l159 -309h-116z" />
<glyph unicode="&#xda;" horiz-adv-x="1415" d="M72 1274v110h475v-110h-211v-776q0 -113 27.5 -194t79 -126.5t116.5 -65.5t150 -20q84 0 148.5 20t116 65.5t78.5 126.5t27 194v776h-209v110h476v-110h-146v-768q0 -119 -25.5 -211t-69 -151t-107 -97.5t-134.5 -54t-155 -15.5q-492 0 -492 529v768h-145zM645 1532 l160 309h135l-178 -309h-117z" />
<glyph unicode="&#xdb;" horiz-adv-x="1415" d="M72 1274v110h475v-110h-211v-776q0 -113 27.5 -194t79 -126.5t116.5 -65.5t150 -20q84 0 148.5 20t116 65.5t78.5 126.5t27 194v776h-209v110h476v-110h-146v-768q0 -119 -25.5 -211t-69 -151t-107 -97.5t-134.5 -54t-155 -15.5q-492 0 -492 529v768h-145zM438 1532 l195 309h149l197 -309h-117l-155 227l-154 -227h-115z" />
<glyph unicode="&#xdc;" horiz-adv-x="1415" d="M72 1274v110h475v-110h-211v-776q0 -113 27.5 -194t79 -126.5t116.5 -65.5t150 -20q84 0 148.5 20t116 65.5t78.5 126.5t27 194v776h-209v110h476v-110h-146v-768q0 -119 -25.5 -211t-69 -151t-107 -97.5t-134.5 -54t-155 -15.5q-492 0 -492 529v768h-145zM432 1677 q0 49 26 73t70 24q40 0 68.5 -24.5t28.5 -72.5q0 -46 -28.5 -70t-68.5 -24q-44 0 -70 23.5t-26 70.5zM793 1677q0 49 26 73t70 24q40 0 68 -24.5t28 -72.5q0 -46 -28 -70t-68 -24q-44 0 -70 23.5t-26 70.5z" />
<glyph unicode="&#xdd;" horiz-adv-x="1243" d="M12 1274v110h451v-110h-193l353 -604l360 604h-195v110h453v-110h-123l-438 -713v-450h197v-111h-523v111h207v450l-424 713h-125zM549 1532l160 309h135l-178 -309h-117z" />
<glyph unicode="&#xde;" horiz-adv-x="1179" d="M98 1274v110h455v-110h-176v-180h285q226 0 333 -103.5t107 -290.5q0 -188 -107.5 -291.5t-332.5 -103.5h-285v-194h176v-111h-453v111h156v1163h-158zM377 416h289q166 0 237.5 73.5t71.5 208.5t-71.5 210t-237.5 75h-289v-567z" />
<glyph unicode="&#xdf;" horiz-adv-x="1155" d="M55 0v96l146 25v909q0 88 17.5 160t55.5 131t106.5 92t162.5 33q77 0 138.5 -18t101.5 -48.5t66.5 -72.5t38 -87.5t11.5 -95.5q0 -60 -30 -122t-66 -104.5t-66 -87.5t-30 -73q0 -65 114 -133l84 -51q101 -59 144 -129.5t43 -159.5q0 -122 -90 -204.5t-238 -82.5 q-155 0 -275 60l-18 225h92l39 -162q68 -24 156 -24q96 0 153.5 52t57.5 132q0 60 -29 107.5t-98 91.5l-97 63q-44 30 -66.5 47t-48.5 43.5t-37 55.5t-11 65q0 35 20 72t48 71t56 69.5t48 81t20 91.5q0 108 -60 163.5t-171 55.5q-69 0 -115.5 -22.5t-70 -66t-33 -94.5 t-9.5 -120v-1034h-260z" />
<glyph unicode="&#xe0;" horiz-adv-x="993" d="M88 238q0 67 29 117t86.5 82t129 52t171.5 33l188 25v248q-66 51 -211 51q-146 0 -217 -51v-174h-96q-25 73 -25 141q0 89 85.5 140.5t252.5 51.5q80 0 137 -8.5t93 -32.5t56.5 -47t30 -72t11.5 -85.5t2 -108.5v-428q0 -76 59 -76q18 0 80 10v-108q-49 -10 -108 -10 q-63 0 -102 36t-42 101q-52 -59 -134 -103.5t-189 -44.5q-145 0 -216 68t-71 193zM215 242q0 -158 180 -158q93 0 170.5 38.5t126.5 88.5v244l-180 -27q-158 -23 -227.5 -62.5t-69.5 -123.5zM279 1425h135l159 -309h-116z" />
<glyph unicode="&#xe1;" horiz-adv-x="993" d="M88 238q0 67 29 117t86.5 82t129 52t171.5 33l188 25v248q-66 51 -211 51q-146 0 -217 -51v-174h-96q-25 73 -25 141q0 89 85.5 140.5t252.5 51.5q80 0 137 -8.5t93 -32.5t56.5 -47t30 -72t11.5 -85.5t2 -108.5v-428q0 -76 59 -76q18 0 80 10v-108q-49 -10 -108 -10 q-63 0 -102 36t-42 101q-52 -59 -134 -103.5t-189 -44.5q-145 0 -216 68t-71 193zM215 242q0 -158 180 -158q93 0 170.5 38.5t126.5 88.5v244l-180 -27q-158 -23 -227.5 -62.5t-69.5 -123.5zM408 1116l159 309h135l-178 -309h-116z" />
<glyph unicode="&#xe2;" horiz-adv-x="993" d="M88 238q0 67 29 117t86.5 82t129 52t171.5 33l188 25v248q-66 51 -211 51q-146 0 -217 -51v-174h-96q-25 73 -25 141q0 89 85.5 140.5t252.5 51.5q80 0 137 -8.5t93 -32.5t56.5 -47t30 -72t11.5 -85.5t2 -108.5v-428q0 -76 59 -76q18 0 80 10v-108q-49 -10 -108 -10 q-63 0 -102 36t-42 101q-52 -59 -134 -103.5t-189 -44.5q-145 0 -216 68t-71 193zM215 242q0 -158 180 -158q93 0 170.5 38.5t126.5 88.5v244l-180 -27q-158 -23 -227.5 -62.5t-69.5 -123.5zM223 1116l195 309h149l197 -309h-117l-155 227l-154 -227h-115z" />
<glyph unicode="&#xe3;" horiz-adv-x="993" d="M88 238q0 67 29 117t86.5 82t129 52t171.5 33l188 25v248q-66 51 -211 51q-146 0 -217 -51v-174h-96q-25 73 -25 141q0 89 85.5 140.5t252.5 51.5q80 0 137 -8.5t93 -32.5t56.5 -47t30 -72t11.5 -85.5t2 -108.5v-428q0 -76 59 -76q18 0 80 10v-108q-49 -10 -108 -10 q-63 0 -102 36t-42 101q-52 -59 -134 -103.5t-189 -44.5q-145 0 -216 68t-71 193zM215 242q0 -158 180 -158q93 0 170.5 38.5t126.5 88.5v244l-180 -27q-158 -23 -227.5 -62.5t-69.5 -123.5zM217 1210l16 101q49 -49 119 -49q48 0 132.5 35.5t146.5 35.5q71 0 137 -53 l-16 -102q-54 51 -121 51q-43 0 -131 -35t-148 -35q-40 0 -78 15.5t-57 35.5z" />
<glyph unicode="&#xe4;" horiz-adv-x="993" d="M88 238q0 67 29 117t86.5 82t129 52t171.5 33l188 25v248q-66 51 -211 51q-146 0 -217 -51v-174h-96q-25 73 -25 141q0 89 85.5 140.5t252.5 51.5q80 0 137 -8.5t93 -32.5t56.5 -47t30 -72t11.5 -85.5t2 -108.5v-428q0 -76 59 -76q18 0 80 10v-108q-49 -10 -108 -10 q-63 0 -102 36t-42 101q-52 -59 -134 -103.5t-189 -44.5q-145 0 -216 68t-71 193zM215 242q0 -158 180 -158q93 0 170.5 38.5t126.5 88.5v244l-180 -27q-158 -23 -227.5 -62.5t-69.5 -123.5zM217 1262q0 49 26 72.5t70 23.5q41 0 69 -24t28 -72q0 -46 -28.5 -70.5 t-68.5 -24.5q-43 0 -69.5 24t-26.5 71zM578 1262q0 49 26 72.5t70 23.5q40 0 68 -24t28 -72q0 -47 -28 -71t-68 -24q-43 0 -69.5 24t-26.5 71z" />
<glyph unicode="&#xe5;" horiz-adv-x="993" d="M88 238q0 67 29 117t86.5 82t129 52t171.5 33l188 25v248q-66 51 -211 51q-146 0 -217 -51v-174h-96q-25 73 -25 141q0 89 85.5 140.5t252.5 51.5q80 0 137 -8.5t93 -32.5t56.5 -47t30 -72t11.5 -85.5t2 -108.5v-428q0 -76 59 -76q18 0 80 10v-108q-49 -10 -108 -10 q-63 0 -102 36t-42 101q-52 -59 -134 -103.5t-189 -44.5q-145 0 -216 68t-71 193zM215 242q0 -158 180 -158q93 0 170.5 38.5t126.5 88.5v244l-180 -27q-158 -23 -227.5 -62.5t-69.5 -123.5zM285 1278q0 82 57 134t150 52q94 0 151 -51.5t57 -134.5t-57 -135.5t-151 -52.5 q-93 0 -150 52.5t-57 135.5zM375 1278q0 -51 31.5 -81t85.5 -30q55 0 85.5 29.5t30.5 81.5q0 50 -30.5 80.5t-85.5 30.5q-54 0 -85.5 -30.5t-31.5 -80.5z" />
<glyph unicode="&#xe6;" horiz-adv-x="1558" d="M88 238q0 68 29 118t86.5 82t129.5 51.5t173 32.5l186 25v248q-73 51 -219 51q-143 0 -209 -51v-174h-96q-25 73 -25 141q0 89 86 140.5t252 51.5q270 0 312 -141q93 141 299 141q91 0 161.5 -32t113.5 -86.5t65 -123t22 -145.5q0 -79 -12 -137h-623q2 -167 68.5 -255.5 t218.5 -88.5q155 0 307 109l41 -99q-153 -119 -356 -119q-120 0 -209.5 50.5t-126.5 136.5q-37 -78 -149.5 -132.5t-233.5 -54.5q-148 0 -219.5 68t-71.5 193zM215 242q0 -158 180 -158q93 0 172 38.5t125 88.5v244l-180 -27q-158 -23 -227.5 -62.5t-69.5 -123.5zM819 530 h512q4 24 4 45q0 124 -63.5 198.5t-181.5 74.5q-137 0 -199 -84t-72 -234z" />
<glyph unicode="&#xe7;" horiz-adv-x="952" d="M100 469q0 103 25.5 190t75 153.5t130 104t183.5 37.5q186 0 336 -75l-33 -306h-94v238q-90 37 -205 37q-149 0 -219 -102t-70 -273q0 -85 15.5 -152t48.5 -120t91 -82t138 -29q85 0 165 26.5t140 69.5l39 -104q-138 -89 -311 -102l-37 -103q20 8 53 8q56 0 96 -38 t40 -99q0 -67 -49.5 -110.5t-147.5 -43.5q-89 0 -197 48l19 84q94 -52 174 -52q96 0 96 74q0 31 -23.5 50.5t-58.5 19.5q-28 0 -61 -11l-49 21l53 152q-183 17 -273 148t-90 341z" />
<glyph unicode="&#xe8;" horiz-adv-x="966" d="M100 469q0 104 24 191t72 153.5t126 103.5t180 37q90 0 160.5 -32t114 -86.5t65.5 -123t22 -145.5q0 -59 -12 -137h-625q3 -344 287 -344q158 0 307 109l43 -99q-157 -119 -352 -119q-110 0 -191 36t-128.5 103t-70 154.5t-22.5 198.5zM229 530h512q4 24 4 45 q0 124 -63.5 198.5t-181.5 74.5q-72 0 -124 -23.5t-82 -68t-45.5 -99.5t-19.5 -127zM289 1425h135l160 -309h-117z" />
<glyph unicode="&#xe9;" horiz-adv-x="966" d="M100 469q0 104 24 191t72 153.5t126 103.5t180 37q90 0 160.5 -32t114 -86.5t65.5 -123t22 -145.5q0 -59 -12 -137h-625q3 -344 287 -344q158 0 307 109l43 -99q-157 -119 -352 -119q-110 0 -191 36t-128.5 103t-70 154.5t-22.5 198.5zM229 530h512q4 24 4 45 q0 124 -63.5 198.5t-181.5 74.5q-72 0 -124 -23.5t-82 -68t-45.5 -99.5t-19.5 -127zM406 1116l159 309h135l-178 -309h-116z" />
<glyph unicode="&#xea;" horiz-adv-x="966" d="M100 469q0 104 24 191t72 153.5t126 103.5t180 37q90 0 160.5 -32t114 -86.5t65.5 -123t22 -145.5q0 -59 -12 -137h-625q3 -344 287 -344q158 0 307 109l43 -99q-157 -119 -352 -119q-110 0 -191 36t-128.5 103t-70 154.5t-22.5 198.5zM225 1116l195 309h149l197 -309 h-117l-155 227l-154 -227h-115zM229 530h512q4 24 4 45q0 124 -63.5 198.5t-181.5 74.5q-72 0 -124 -23.5t-82 -68t-45.5 -99.5t-19.5 -127z" />
<glyph unicode="&#xeb;" horiz-adv-x="966" d="M100 469q0 104 24 191t72 153.5t126 103.5t180 37q90 0 160.5 -32t114 -86.5t65.5 -123t22 -145.5q0 -59 -12 -137h-625q3 -344 287 -344q158 0 307 109l43 -99q-157 -119 -352 -119q-110 0 -191 36t-128.5 103t-70 154.5t-22.5 198.5zM217 1262q0 49 26 72.5t70 23.5 q41 0 69 -24t28 -72q0 -46 -28.5 -70.5t-68.5 -24.5q-43 0 -69.5 24t-26.5 71zM229 530h512q4 24 4 45q0 124 -63.5 198.5t-181.5 74.5q-72 0 -124 -23.5t-82 -68t-45.5 -99.5t-19.5 -127zM578 1262q0 49 26 72.5t70 23.5q40 0 68 -24t28 -72q0 -47 -28 -71t-68 -24 q-43 0 -69.5 24t-26.5 71z" />
<glyph unicode="&#xec;" horiz-adv-x="636" d="M72 0v109h209v716h-209v109h325v-825h201v-109h-526zM100 1425h136l159 -309h-116z" />
<glyph unicode="&#xed;" horiz-adv-x="636" d="M72 0v109h209v716h-209v109h325v-825h201v-109h-526zM266 1116l160 309h135l-178 -309h-117z" />
<glyph unicode="&#xee;" horiz-adv-x="636" d="M49 1116l195 309h149l197 -309h-117l-156 227l-153 -227h-115zM72 0v109h209v716h-209v109h325v-825h201v-109h-526z" />
<glyph unicode="&#xef;" horiz-adv-x="636" d="M41 1262q0 49 26 72.5t70 23.5q40 0 68 -24t28 -72q0 -47 -28 -71t-68 -24q-43 0 -69.5 24t-26.5 71zM72 0v109h209v716h-209v109h325v-825h201v-109h-526zM401 1262q0 49 26.5 72.5t70.5 23.5q40 0 68 -24t28 -72q0 -47 -28 -71t-68 -24q-44 0 -70.5 24t-26.5 71z" />
<glyph unicode="&#xf0;" horiz-adv-x="1067" d="M102 451q0 213 94 338.5t281 125.5q126 0 220.5 -71t125.5 -170q0 259 -92 442l-182 -90l-39 86l174 88q-73 120 -209 225h158q96 -76 158 -176l114 56l37 -86l-104 -54q106 -210 106 -522q0 -141 -24.5 -259t-74.5 -210.5t-133.5 -144.5t-193.5 -52q-102 0 -182 36 t-131 100t-77 150t-26 188zM225 444q0 -73 16 -134.5t49 -111.5t90.5 -78t133.5 -28q81 0 140 38t91.5 105t48 139.5t19.5 160.5q-41 112 -119.5 186t-199.5 74q-269 0 -269 -351z" />
<glyph unicode="&#xf1;" horiz-adv-x="1169" d="M86 0v109h143v716h-141v109h250v-100q51 49 143 84.5t191 35.5q173 0 241 -84.5t68 -267.5v-493h141v-109h-426v109h168v487q0 64 -6 103t-27 75t-65 52t-115 16q-89 0 -173.5 -33.5t-133.5 -77.5v-622h170v-109h-428zM330 1210l16 101q49 -49 119 -49q48 0 132 35.5 t146 35.5q72 0 138 -53l-17 -102q-54 51 -121 51q-43 0 -130.5 -35t-147.5 -35q-40 0 -78 15.5t-57 35.5z" />
<glyph unicode="&#xf2;" horiz-adv-x="1032" d="M102 467q0 227 99.5 357t314.5 130q414 0 414 -485q0 -111 -22.5 -198.5t-71 -154.5t-130.5 -103t-194 -36q-109 0 -189 35.5t-128 102t-70.5 154t-22.5 198.5zM227 469q0 -186 66 -283.5t223 -97.5t222 96.5t65 282.5t-64.5 281.5t-222.5 95.5q-157 0 -223 -95.5 t-66 -279.5zM301 1425h135l160 -309h-117z" />
<glyph unicode="&#xf3;" horiz-adv-x="1032" d="M102 467q0 227 99.5 357t314.5 130q414 0 414 -485q0 -111 -22.5 -198.5t-71 -154.5t-130.5 -103t-194 -36q-109 0 -189 35.5t-128 102t-70.5 154t-22.5 198.5zM227 469q0 -186 66 -283.5t223 -97.5t222 96.5t65 282.5t-64.5 281.5t-222.5 95.5q-157 0 -223 -95.5 t-66 -279.5zM426 1116l160 309h135l-178 -309h-117z" />
<glyph unicode="&#xf4;" horiz-adv-x="1032" d="M102 467q0 227 99.5 357t314.5 130q414 0 414 -485q0 -111 -22.5 -198.5t-71 -154.5t-130.5 -103t-194 -36q-109 0 -189 35.5t-128 102t-70.5 154t-22.5 198.5zM227 469q0 -186 66 -283.5t223 -97.5t222 96.5t65 282.5t-64.5 281.5t-222.5 95.5q-157 0 -223 -95.5 t-66 -279.5zM246 1116l194 309h150l196 -309h-116l-156 227l-154 -227h-114z" />
<glyph unicode="&#xf5;" horiz-adv-x="1032" d="M102 467q0 227 99.5 357t314.5 130q414 0 414 -485q0 -111 -22.5 -198.5t-71 -154.5t-130.5 -103t-194 -36q-109 0 -189 35.5t-128 102t-70.5 154t-22.5 198.5zM227 469q0 -186 66 -283.5t223 -97.5t222 96.5t65 282.5t-64.5 281.5t-222.5 95.5q-157 0 -223 -95.5 t-66 -279.5zM240 1210l16 101q49 -49 119 -49q48 0 132 35.5t146 35.5q72 0 138 -53l-17 -102q-54 51 -121 51q-43 0 -130.5 -35t-147.5 -35q-40 0 -78 15.5t-57 35.5z" />
<glyph unicode="&#xf6;" horiz-adv-x="1032" d="M102 467q0 227 99.5 357t314.5 130q414 0 414 -485q0 -111 -22.5 -198.5t-71 -154.5t-130.5 -103t-194 -36q-109 0 -189 35.5t-128 102t-70.5 154t-22.5 198.5zM227 469q0 -186 66 -283.5t223 -97.5t222 96.5t65 282.5t-64.5 281.5t-222.5 95.5q-157 0 -223 -95.5 t-66 -279.5zM240 1262q0 49 26 72.5t70 23.5q40 0 68 -24t28 -72q0 -47 -28 -71t-68 -24q-43 0 -69.5 24t-26.5 71zM600 1262q0 49 26 72.5t70 23.5q41 0 69 -24t28 -72q0 -46 -28.5 -70.5t-68.5 -24.5q-43 0 -69.5 24t-26.5 71z" />
<glyph unicode="&#xf7;" d="M113 496v116h919v-116h-919zM473 184q0 44 30.5 73.5t74.5 29.5q46 0 75 -29.5t29 -73.5q0 -43 -29.5 -71.5t-74.5 -28.5q-44 0 -74.5 28.5t-30.5 71.5zM473 915q0 44 30.5 73.5t74.5 29.5q46 0 75 -29t29 -74q0 -44 -29 -73t-75 -29q-45 0 -75 29t-30 73z" />
<glyph unicode="&#xf8;" horiz-adv-x="1032" d="M102 467q0 227 99.5 357t314.5 130q61 0 105 -8l38 117h99v-23l-45 -125q217 -96 217 -446q0 -111 -22.5 -198.5t-71 -154.5t-130.5 -103t-194 -36q-59 0 -119 13l-39 -121h-90v25l41 126q-203 104 -203 447zM227 469q0 -254 123 -332l232 701q-34 6 -66 6 q-157 0 -223 -95.5t-66 -279.5zM434 96q33 -8 82 -8q157 0 222 96.5t65 282.5q0 264 -133 334z" />
<glyph unicode="&#xf9;" horiz-adv-x="1144" d="M41 825v109h276v-596q0 -63 6.5 -102.5t26.5 -75.5t61 -52t107 -16q97 0 183 48t126 112v573h-200v109h317v-825h146v-109h-250v141q-50 -65 -144.5 -114.5t-201.5 -49.5q-162 0 -227.5 85t-65.5 270v493h-160zM356 1425h136l159 -309h-116z" />
<glyph unicode="&#xfa;" horiz-adv-x="1144" d="M41 825v109h276v-596q0 -63 6.5 -102.5t26.5 -75.5t61 -52t107 -16q97 0 183 48t126 112v573h-200v109h317v-825h146v-109h-250v141q-50 -65 -144.5 -114.5t-201.5 -49.5q-162 0 -227.5 85t-65.5 270v493h-160zM442 1116l160 309h135l-178 -309h-117z" />
<glyph unicode="&#xfb;" horiz-adv-x="1144" d="M41 825v109h276v-596q0 -63 6.5 -102.5t26.5 -75.5t61 -52t107 -16q97 0 183 48t126 112v573h-200v109h317v-825h146v-109h-250v141q-50 -65 -144.5 -114.5t-201.5 -49.5q-162 0 -227.5 85t-65.5 270v493h-160zM289 1116l194 309h150l196 -309h-116l-156 227l-154 -227 h-114z" />
<glyph unicode="&#xfc;" horiz-adv-x="1144" d="M41 825v109h276v-596q0 -63 6.5 -102.5t26.5 -75.5t61 -52t107 -16q97 0 183 48t126 112v573h-200v109h317v-825h146v-109h-250v141q-50 -65 -144.5 -114.5t-201.5 -49.5q-162 0 -227.5 85t-65.5 270v493h-160zM283 1262q0 49 26 72.5t70 23.5q40 0 68 -24t28 -72 q0 -47 -28 -71t-68 -24q-43 0 -69.5 24t-26.5 71zM643 1262q0 49 26 72.5t70 23.5q41 0 69 -24t28 -72q0 -46 -28.5 -70.5t-68.5 -24.5q-43 0 -69.5 24t-26.5 71z" />
<glyph unicode="&#xfd;" horiz-adv-x="1177" d="M23 825v109h325v-100l268 -674l289 665h-256v109h506v-109h-123l-514 -1157q-32 -73 -79 -102t-115 -29q-91 0 -162 23v100h227l166 369l-332 796h-200zM489 1116l160 309h135l-178 -309h-117z" />
<glyph unicode="&#xfe;" horiz-adv-x="1052" d="M16 1317v108h260v-591q92 120 275 120q204 0 302.5 -128t98.5 -361q0 -112 -23 -200t-71 -153.5t-125.5 -100t-181.5 -34.5q-179 0 -275 119v-430h224v-108h-477v98l137 22v1639h-144zM276 229q35 -57 98 -98t158 -41q83 0 142 27.5t91 79.5t46 117t14 151 q0 85 -14 150.5t-46 118t-91 80.5t-142 28q-172 0 -256 -142v-471z" />
<glyph unicode="&#xff;" horiz-adv-x="1177" d="M23 825v109h325v-100l268 -674l289 665h-256v109h506v-109h-123l-514 -1157q-32 -73 -79 -102t-115 -29q-91 0 -162 23v100h227l166 369l-332 796h-200zM344 1262q0 49 26 72.5t70 23.5q41 0 69 -24t28 -72q0 -46 -28.5 -70.5t-68.5 -24.5q-43 0 -69.5 24t-26.5 71z M705 1262q0 49 26 72.5t70 23.5q40 0 68 -24t28 -72q0 -47 -28 -71t-68 -24q-43 0 -69.5 24t-26.5 71z" />
<glyph unicode="&#x152;" horiz-adv-x="1789" d="M123 690q0 130 16.5 235.5t56 196.5t102 152.5t158 96t220.5 34.5q119 0 209 -21h784v-321h-117v211h-559v-504h506v-113h-506v-546h568v229h116v-340h-794q-86 -23 -211 -23q-123 0 -218 34.5t-157 96t-101.5 152.5t-56 195.5t-16.5 234.5zM256 690q0 -116 12.5 -206 t42 -165.5t77 -124t120 -75.5t168.5 -27q118 0 198 29v1139q-82 30 -202 30q-117 0 -199 -40t-129 -120.5t-67.5 -187t-20.5 -252.5z" />
<glyph unicode="&#x153;" horiz-adv-x="1669" d="M102 467q0 227 99.5 357t314.5 130q259 0 352 -204q93 204 334 204q91 0 162 -32t114 -86.5t65 -123t22 -145.5q0 -74 -13 -137h-624q2 -166 69.5 -255t216.5 -89q158 0 310 109l41 -99q-153 -119 -357 -119q-253 0 -346 201q-93 -201 -350 -201q-109 0 -189 35.5 t-128 102t-70.5 154t-22.5 198.5zM227 469q0 -186 66 -283.5t223 -97.5t222 96.5t65 282.5t-65 281.5t-222 95.5t-223 -95.5t-66 -279.5zM930 530h512q4 24 4 45q0 124 -64 198.5t-182 74.5q-137 0 -198.5 -84t-71.5 -234z" />
<glyph unicode="&#x178;" horiz-adv-x="1243" d="M12 1274v110h451v-110h-193l353 -604l360 604h-195v110h453v-110h-123l-438 -713v-450h197v-111h-523v111h207v450l-424 713h-125zM350 1677q0 49 26 73t70 24q40 0 68.5 -24.5t28.5 -72.5q0 -46 -28.5 -70t-68.5 -24q-44 0 -70 23.5t-26 70.5zM711 1677q0 49 26 73 t70 24q40 0 68 -24.5t28 -72.5q0 -46 -28 -70t-68 -24q-44 0 -70 23.5t-26 70.5z" />
<glyph unicode="&#x2c6;" horiz-adv-x="1228" d="M344 1116l195 309h149l197 -309h-117l-156 227l-153 -227h-115z" />
<glyph unicode="&#x2dc;" horiz-adv-x="1228" d="M338 1210l16 101q49 -49 119 -49q48 0 132.5 35.5t146.5 35.5q71 0 137 -53l-17 -102q-54 51 -120 51q-43 0 -131 -35t-148 -35q-40 0 -78 15.5t-57 35.5z" />
<glyph unicode="&#x2000;" horiz-adv-x="921" />
<glyph unicode="&#x2001;" horiz-adv-x="1843" />
<glyph unicode="&#x2002;" horiz-adv-x="921" />
<glyph unicode="&#x2003;" horiz-adv-x="1843" />
<glyph unicode="&#x2004;" horiz-adv-x="614" />
<glyph unicode="&#x2005;" horiz-adv-x="460" />
<glyph unicode="&#x2006;" horiz-adv-x="307" />
<glyph unicode="&#x2007;" horiz-adv-x="307" />
<glyph unicode="&#x2008;" horiz-adv-x="230" />
<glyph unicode="&#x2009;" horiz-adv-x="368" />
<glyph unicode="&#x200a;" horiz-adv-x="102" />
<glyph unicode="&#x2010;" d="M242 494v116h663v-116h-663z" />
<glyph unicode="&#x2011;" d="M242 494v116h663v-116h-663z" />
<glyph unicode="&#x2012;" d="M242 494v116h663v-116h-663z" />
<glyph unicode="&#x2013;" horiz-adv-x="1181" d="M135 494v116h912v-116h-912z" />
<glyph unicode="&#x2014;" horiz-adv-x="1468" d="M135 494v116h1198v-116h-1198z" />
<glyph unicode="&#x2018;" horiz-adv-x="391" d="M96 961l99 423h94l-51 -423h-142z" />
<glyph unicode="&#x2019;" horiz-adv-x="385" d="M111 961l51 423h141l-96 -423h-96z" />
<glyph unicode="&#x201a;" horiz-adv-x="403" d="M90 -233l51 426h142l-97 -426h-96z" />
<glyph unicode="&#x201c;" horiz-adv-x="636" d="M96 961l99 423h94l-51 -423h-142zM342 961l96 423h97l-52 -423h-141z" />
<glyph unicode="&#x201d;" horiz-adv-x="628" d="M111 961l51 423h141l-96 -423h-96zM354 961l52 423h141l-96 -423h-97z" />
<glyph unicode="&#x201e;" horiz-adv-x="649" d="M90 -233l51 423h142l-97 -423h-96zM336 -233l51 423h141l-98 -423h-94z" />
<glyph unicode="&#x2022;" d="M369 551q0 86 58 142.5t146 56.5q89 0 146 -56t57 -143q0 -86 -57 -141.5t-146 -55.5q-88 0 -146 55.5t-58 141.5z" />
<glyph unicode="&#x2026;" horiz-adv-x="1161" d="M113 88q0 43 30 72.5t74 29.5t74.5 -29.5t30.5 -72.5q0 -44 -30 -73t-75 -29q-44 0 -74 29t-30 73zM477 80q0 43 30.5 72.5t74.5 29.5t74 -29.5t30 -72.5q0 -44 -30 -73.5t-74 -29.5t-74.5 29.5t-30.5 73.5zM838 88q0 43 30 72.5t74 29.5t74.5 -29.5t30.5 -72.5 q0 -44 -30 -73t-75 -29q-44 0 -74 29t-30 73z" />
<glyph unicode="&#x202f;" horiz-adv-x="368" />
<glyph unicode="&#x2039;" horiz-adv-x="612" d="M86 553l346 424l80 -70l-270 -354l270 -354l-80 -70z" />
<glyph unicode="&#x203a;" horiz-adv-x="612" d="M100 199l271 354l-271 354l80 70l346 -424l-346 -424z" />
<glyph unicode="&#x205f;" horiz-adv-x="460" />
<glyph unicode="&#x20ac;" d="M82 496v100h104q-2 31 -2 100q0 53 2 78h-104v100h113q32 250 159.5 390.5t350.5 140.5q185 0 352 -92l-47 -111q-142 86 -310 86q-167 0 -259.5 -109.5t-118.5 -304.5h555l-43 -100h-523q-2 -25 -2 -78q0 -38 4 -100h451l-41 -100h-399q64 -400 383 -400q175 0 331 101 l33 -115q-182 -105 -366 -105q-442 0 -508 519h-115z" />
<glyph unicode="&#x2122;" horiz-adv-x="1437" d="M178 1100v143h397v-143h-67v76h-94v-353h69v-65h-221v65h72v353h-88v-76h-68zM621 758v65h51l47 353h-51v67h172l114 -395l119 395h168v-67h-51l45 -353h55v-65h-192v65h61l-37 332l-127 -397h-88l-116 395l-43 -330h65v-65h-192z" />
</font>
</defs>
</svg>
