<?xml version="1.0" standalone="no"?>
<!DOCTYPE svg PUBLIC "-//W3C//DTD SVG 1.1//EN" "http://www.w3.org/Graphics/SVG/1.1/DTD/svg11.dtd" >
<svg xmlns="http://www.w3.org/2000/svg">
<metadata></metadata>
<defs>
<font id="BrixSlabRegularRegular" horiz-adv-x="1146" >
<font-face units-per-em="2048" ascent="1475" descent="-573" />
<missing-glyph horiz-adv-x="409" />
<glyph unicode="&#xfb01;" horiz-adv-x="1355" d="M82 797v137h141v194q0 66 15 121.5t47 100.5t87.5 70.5t129.5 25.5q58 0 125 -16v-142q-70 12 -115 12q-76 0 -106.5 -45t-30.5 -137v-184h753v-797h195v-137h-553v137h205v660h-600v-660h219v-137h-510v123l139 29v645h-141zM928 1274q0 56 31 83t81 27q47 0 79 -27.5 t32 -82.5t-32 -82t-79 -27q-51 0 -81.5 26.5t-30.5 82.5z" />
<glyph unicode="&#xfb02;" horiz-adv-x="1249" d="M82 797v145h141v131q0 82 22.5 147t71 117t134 80.5t202.5 28.5q190 0 381 -66v-1130q0 -68 19.5 -96.5t72.5 -28.5q52 0 93 14l12 -137q-61 -25 -144 -25q-114 0 -160 64t-46 192v1043q-114 31 -236 31q-139 0 -203.5 -60.5t-64.5 -179.5v-125h276v-145h-276v-660h217 v-137h-510v123l139 29v645h-141z" />
<glyph horiz-adv-x="0" />
<glyph horiz-adv-x="0" />
<glyph horiz-adv-x="2048" />
<glyph unicode=" "  horiz-adv-x="409" />
<glyph unicode="&#x09;" horiz-adv-x="409" />
<glyph unicode="&#xa0;" horiz-adv-x="409" />
<glyph unicode="!" horiz-adv-x="509" d="M135 104q0 51 34 84t87 33t88 -33t35 -84t-35 -84.5t-88 -33.5q-52 0 -86.5 33.5t-34.5 84.5zM162 1384h190l-33 -952h-129z" />
<glyph unicode="&#x22;" horiz-adv-x="706" d="M111 1384h165l-22 -499h-121zM434 1384h162l-23 -499h-120z" />
<glyph unicode="#" horiz-adv-x="1280" d="M90 412l16 143h213l48 317h-203l14 144h211l57 368h152l-57 -368h280l58 368h151l-55 -368h217l-16 -144h-224l-49 -317h217l-16 -143h-223l-64 -412h-153l65 412h-280l-64 -412h-154l66 412h-207zM471 555h281l47 317h-281z" />
<glyph unicode="$" d="M141 1024q0 65 23 126.5t67 114.5t117.5 89.5t165.5 46.5v153h115v-149q182 -11 352 -88v-313h-137l-29 219q-108 37 -186 41v-498l76 -25q164 -58 242.5 -149.5t78.5 -233.5q0 -64 -25.5 -126.5t-73.5 -116t-125.5 -90t-172.5 -45.5v-191h-115v188q-213 13 -371 95v336 h136l26 -242q74 -38 209 -49v512l-65 24q-159 57 -233.5 143t-74.5 228zM313 1030q0 -84 48 -135.5t153 -87.5v448q-97 -16 -149 -80t-52 -145zM629 121q98 14 160.5 76t62.5 151q0 81 -54.5 140.5t-146.5 91.5l-22 8v-467z" />
<glyph unicode="%" horiz-adv-x="1456" d="M88 1085q0 138 77.5 229t221.5 91q103 0 173 -44.5t100 -114.5t30 -161q0 -145 -76.5 -235t-226.5 -90q-148 0 -223.5 90t-75.5 235zM225 1085q0 -89 40 -140.5t122 -51.5q84 0 125 51.5t41 140.5q0 84 -41 134.5t-125 50.5q-81 0 -121.5 -50.5t-40.5 -134.5zM240 0v18 l837 1366h133v-18l-843 -1366h-127zM764 301q0 140 77 231t222 91q102 0 172 -44.5t100.5 -115t30.5 -162.5q0 -143 -76.5 -233.5t-226.5 -90.5q-148 0 -223.5 90.5t-75.5 233.5zM901 301q0 -87 40 -138.5t122 -51.5q84 0 125 51t41 139q0 86 -41 136t-125 50 q-82 0 -122 -50t-40 -136z" />
<glyph unicode="&#x26;" horiz-adv-x="1306" d="M98 383q0 141 75 228t189 116q-225 63 -225 313q0 168 103 266.5t317 98.5q173 0 332 -78l-53 -139q-56 31 -130.5 50t-144.5 19q-260 0 -260 -233q0 -123 77.5 -181.5t209.5 -58.5h266v222l154 28v-250h209v-137h-209v-393q0 -58 28.5 -93.5t85.5 -35.5q17 0 35.5 3 t26.5 5t31 9.5t24 7.5l10 -140q-83 -33 -164 -33q-167 0 -215 146q-59 -68 -142.5 -107t-182.5 -39q-212 0 -329.5 110t-117.5 296zM268 383q0 -121 70 -189.5t217 -68.5q170 0 299 133v389h-274q-163 0 -237.5 -67.5t-74.5 -196.5z" />
<glyph unicode="'" horiz-adv-x="382" d="M113 1384h159l-20 -499h-121z" />
<glyph unicode="(" horiz-adv-x="544" d="M96 492q0 155 21 290.5t62.5 252t87 207t112.5 198.5l123 -43q-76 -147 -124 -270t-82 -289.5t-34 -345.5q0 -251 57.5 -460.5t178.5 -441.5l-119 -45q-141 222 -212 443t-71 504z" />
<glyph unicode=")" horiz-adv-x="542" d="M41 1397l125 43q67 -108 112.5 -198.5t87 -207t62.5 -252t21 -290.5q0 -283 -71 -504t-212 -443l-121 45q123 232 180.5 441.5t57.5 460.5q0 260 -62 470t-180 435z" />
<glyph unicode="*" horiz-adv-x="968" d="M96 1069l45 141l285 -98l-12 313h151l-14 -311l285 88l34 -143l-280 -62l186 -241l-123 -84l-174 258l-196 -258l-103 92l203 237z" />
<glyph unicode="+" d="M100 477v152h389v401h160v-401h395v-152h-395v-399h-160v399h-389z" />
<glyph unicode="," horiz-adv-x="415" d="M80 -229l51 452h178l-106 -452h-123z" />
<glyph unicode="-" d="M227 477v152h691v-152h-691z" />
<glyph unicode="." horiz-adv-x="440" d="M98 104q0 51 35 84t88 33t87 -33t34 -84t-34.5 -84.5t-86.5 -33.5q-53 0 -88 33.5t-35 84.5z" />
<glyph unicode="/" horiz-adv-x="739" d="M84 0v27l416 1357h159v-22l-423 -1362h-152z" />
<glyph unicode="0" horiz-adv-x="1241" d="M119 688q0 136 17 245t54.5 198t95.5 149t142 92.5t193 32.5q137 0 234.5 -49t155.5 -144t84.5 -223.5t26.5 -300.5q0 -169 -26.5 -296.5t-85 -222.5t-157 -143.5t-235.5 -48.5q-138 0 -235.5 48.5t-155 143t-83 221.5t-25.5 298zM291 688q0 -295 72.5 -429t257.5 -134 q183 0 257 135t74 428t-75 431t-259 138q-180 0 -253.5 -138.5t-73.5 -430.5z" />
<glyph unicode="1" horiz-adv-x="952" d="M72 1229l407 155h146v-1237h295v-147h-801v147h344v1074l-352 -123z" />
<glyph unicode="2" horiz-adv-x="1097" d="M100 0v131q229 226 502 516q99 103 141.5 182.5t42.5 180.5q0 111 -64 180.5t-192 69.5q-125 0 -190.5 -71.5t-65.5 -191.5q0 -11 3.5 -36.5t3.5 -28.5l-162 -10q-8 46 -8 77q0 183 110.5 294.5t308.5 111.5q209 0 317.5 -110.5t108.5 -282.5q0 -71 -19 -135.5t-57 -122 t-71.5 -98t-84.5 -95.5q-13 -13 -19 -20q-111 -118 -377 -394h520v177h137v-324h-885z" />
<glyph unicode="3" horiz-adv-x="1097" d="M84 125l78 131q138 -131 344 -131q301 0 301 250q0 122 -76 182.5t-250 60.5h-149v148h141q135 0 217 62.5t82 185.5q0 243 -262 243q-138 0 -248 -63v-166h-127l-10 252q171 125 389 125q215 0 319.5 -103t104.5 -272q0 -138 -66.5 -220t-166.5 -108 q119 -26 196.5 -108.5t77.5 -224.5q0 -182 -121.5 -287t-353.5 -105q-126 0 -236.5 40.5t-183.5 107.5z" />
<glyph unicode="4" horiz-adv-x="1138" d="M43 307v127l516 740q38 54 70 106.5t45 77.5l12 26h180v-938h215v-139h-215v-307h-159v307h-664zM223 446h484v701z" />
<glyph unicode="5" horiz-adv-x="1083" d="M102 94l13 281h137v-191q103 -59 242 -59q154 0 235.5 81.5t81.5 235.5q0 136 -73 212.5t-220 76.5q-148 0 -291 -80l-77 15l86 718h704v-147h-571l-54 -430q42 29 110 51.5t146 22.5q194 0 301 -117t107 -318q0 -218 -126.5 -343.5t-360.5 -125.5q-223 0 -390 117z" />
<glyph unicode="6" d="M117 657q0 128 17.5 236.5t58.5 204.5t103.5 163t157.5 105.5t216 38.5q176 0 344 -84l-60 -139q-141 75 -288 75q-85 0 -152.5 -31.5t-110 -82.5t-70.5 -122.5t-39 -145.5t-11 -156q0 -25 2 -37q31 86 123.5 149.5t224.5 63.5q200 0 305.5 -121t105.5 -323 q0 -218 -117 -346t-337 -128q-238 0 -355.5 175.5t-117.5 504.5zM289 516q23 -391 307 -391q100 0 165.5 43.5t92.5 112.5t27 161q0 136 -67 215.5t-204 79.5q-118 0 -199.5 -63.5t-121.5 -157.5z" />
<glyph unicode="7" horiz-adv-x="985" d="M76 993v391h885l-5 -122q-48 -67 -139 -291l-381 -971h-184l508 1245h-533v-252h-151z" />
<glyph unicode="8" horiz-adv-x="1196" d="M125 367q0 116 65 207.5t160 142.5q-186 97 -186 303q0 168 114 275.5t324 107.5q218 0 332.5 -105.5t114.5 -269.5q0 -105 -60.5 -189t-144.5 -137q235 -105 235 -329q0 -186 -128 -291t-351 -105q-217 0 -346 102.5t-129 287.5zM291 379q0 -118 81.5 -187t237.5 -69 q151 0 225 63.5t74 173.5q0 84 -47 136.5t-143 85.5l-252 84q-82 -53 -129 -120.5t-47 -166.5zM328 1032q0 -147 168 -205l221 -75q72 43 120 109t48 155q0 110 -71 178t-220 68q-132 0 -199 -62t-67 -168z" />
<glyph unicode="9" d="M104 930q0 212 118 343.5t339 131.5q124 0 215.5 -51.5t146 -146t80 -218t25.5 -278.5q0 -734 -549 -734q-195 0 -346 93l57 139q146 -84 291 -84q89 0 157.5 29.5t110.5 78t68.5 117.5t36.5 139.5t10 153.5q0 27 -2 39q-34 -87 -128.5 -151t-221.5 -64 q-199 0 -303.5 125.5t-104.5 337.5zM268 940q0 -147 65 -231t204 -84q120 0 198.5 63t120.5 160q-3 82 -19 150.5t-48.5 129t-91.5 95t-140 34.5q-77 0 -134 -25t-90 -70t-49 -100.5t-16 -121.5z" />
<glyph unicode=":" horiz-adv-x="493" d="M125 104q0 51 35 84t88 33t87 -33t34 -84t-34.5 -84.5t-86.5 -33.5q-53 0 -88 33.5t-35 84.5zM125 836q0 52 35 85t88 33t87 -33t34 -85q0 -51 -34 -84t-87 -33t-88 33t-35 84z" />
<glyph unicode=";" horiz-adv-x="483" d="M121 -229l51 452h178l-106 -452h-123zM131 836q0 52 34 85t87 33q54 0 88.5 -33t34.5 -85q0 -51 -34.5 -84t-88.5 -33q-53 0 -87 33t-34 84z" />
<glyph unicode="&#x3c;" d="M150 467v172l802 340v-158l-661 -268l661 -268v-158z" />
<glyph unicode="=" d="M172 248v151h801v-151h-801zM172 709v151h801v-151h-801z" />
<glyph unicode="&#x3e;" d="M195 127v158l661 268l-661 268v158l802 -340v-172z" />
<glyph unicode="?" horiz-adv-x="927" d="M88 1274q152 131 369 131q177 0 278 -95t101 -237q0 -69 -22 -129t-53 -100.5t-78 -77t-82 -56.5t-79 -40v-238h-160v318q67 24 119.5 51t98 63.5t70 84.5t24.5 104q0 85 -57.5 144.5t-167.5 59.5q-123 0 -213 -63v-172h-127zM317 104q0 51 34 84t87 33q54 0 88.5 -33 t34.5 -84t-34.5 -84.5t-88.5 -33.5q-52 0 -86.5 33.5t-34.5 84.5z" />
<glyph unicode="@" horiz-adv-x="1828" d="M111 479q0 178 54 333t155.5 273.5t261 187t358.5 68.5q157 0 288.5 -39t225 -108t158.5 -163.5t96 -205.5t31 -235q0 -274 -117 -443.5t-313 -169.5q-167 0 -193 156q-51 -65 -137 -110.5t-186 -45.5q-106 0 -179 37t-107.5 103t-43 158t13.5 202q39 224 156.5 350.5 t320.5 126.5q152 0 246 -116l19 96h147l-115 -649q-19 -92 -1.5 -137.5t77.5 -45.5q125 0 201 134.5t76 355.5q0 133 -38.5 243.5t-116 196.5t-207.5 134t-302 48q-143 0 -259.5 -39t-196.5 -107t-134 -161.5t-79 -200.5t-25 -227q0 -715 688 -715q208 0 399 78l33 -118 q-194 -86 -432 -86q-171 0 -307.5 39t-232.5 111t-159.5 176.5t-93.5 232.5t-30 282zM631 461q-17 -106 -10 -183t58 -121t146 -44q152 0 269 125l84 469q-86 112 -222 112q-138 0 -215.5 -90.5t-109.5 -267.5z" />
<glyph unicode="A" horiz-adv-x="1409" d="M8 0v139h127l422 1106h-121v139h537v-139h-119l418 -1106h125v-139h-488v139h185l-111 301h-559l-115 -301h187v-139h-488zM465 582h479l-237 641z" />
<glyph unicode="B" horiz-adv-x="1251" d="M94 0v139h154v1106h-154v139h578q199 0 298 -93t99 -259q0 -121 -58 -204.5t-149 -98.5q112 -24 192.5 -115.5t80.5 -230.5q0 -106 -36 -182.5t-101.5 -119.5t-145.5 -62t-180 -19h-578zM410 139h245q163 0 238.5 63t75.5 185q0 260 -318 260h-241v-508zM410 786h225 q268 0 268 238q0 106 -61 163.5t-201 57.5h-231v-459z" />
<glyph unicode="C" horiz-adv-x="1214" d="M109 696q0 214 62.5 371t196 247.5t328.5 90.5q190 0 404 -96l-8 -422h-142l-12 313q-125 53 -246 53q-109 0 -190 -41t-129 -117t-71 -175.5t-23 -223.5q0 -121 21.5 -220t67.5 -177.5t124.5 -122t185.5 -43.5q220 0 395 113l47 -142q-198 -127 -452 -127 q-281 0 -420 188.5t-139 530.5z" />
<glyph unicode="D" horiz-adv-x="1374" d="M94 0v139h154v1106h-154v139h486q158 0 274.5 -29t193.5 -82.5t123.5 -140t66 -192.5t19.5 -248q0 -141 -19.5 -246t-66 -192t-123.5 -141t-193.5 -83.5t-274.5 -29.5h-486zM408 139h190q144 0 239.5 31.5t152 102t79.5 171.5t23 252q0 148 -24 248t-81.5 169.5 t-152.5 100.5t-236 31h-190v-1106z" />
<glyph unicode="E" horiz-adv-x="1187" d="M94 0v139h154v1106h-154v139h979v-350h-151v211h-514v-467h477v-141h-477v-498h514v223h159v-362h-987z" />
<glyph unicode="F" horiz-adv-x="1120" d="M94 0v139h152v1106h-152v139h963v-364h-152v225h-497v-522h491v-143h-491v-441h231v-139h-545z" />
<glyph unicode="G" horiz-adv-x="1333" d="M109 707q0 151 37.5 276.5t112 220.5t194.5 148t276 53q213 0 426 -76l-8 -375h-143l-13 263q-121 36 -268 36q-116 0 -203 -41t-138.5 -115.5t-76 -170.5t-24.5 -215q0 -582 452 -582q190 0 316 53v342h-359v144h518v-590q-220 -101 -477 -101q-307 0 -464.5 190.5 t-157.5 539.5z" />
<glyph unicode="H" horiz-adv-x="1531" d="M102 0v139h136v1106h-136v139h486v-139h-189v-446h736v446h-189v139h484v-139h-136v-1106h136v-139h-484v139h189v514h-736v-514h189v-139h-486z" />
<glyph unicode="I" horiz-adv-x="671" d="M86 0v139h172v1106h-172v139h500v-139h-166v-1106h166v-139h-500z" />
<glyph unicode="J" horiz-adv-x="616" d="M10 -352q118 76 172 164.5t54 218.5v1214h-191v139h485v-139h-135v-1192q0 -180 -71 -306t-215 -210z" />
<glyph unicode="K" horiz-adv-x="1323" d="M94 0v139h154v1106h-154v139h471v-139h-155v-1106h155v-139h-471zM461 721l463 524h-150v139h488v-139h-154l-459 -520l492 -586h143v-139h-496v139h158z" />
<glyph unicode="L" horiz-adv-x="1077" d="M96 0v139h150v1106h-150v139h488v-139h-176v-1106h464v279h148v-418h-924z" />
<glyph unicode="M" horiz-adv-x="1884" d="M41 0v139h135l156 1106h-152v139h395l363 -1189l377 1189h387v-139h-150l144 -1106h147v-139h-491v139h188l-131 1067l-389 -1206h-172l-371 1206l-143 -1067h198v-139h-491z" />
<glyph unicode="N" horiz-adv-x="1517" d="M98 0v139h146v1106h-146v139h346l691 -1144v1005h-215v139h522v-139h-146v-1245h-192l-698 1147v-1008h223v-139h-531z" />
<glyph unicode="O" horiz-adv-x="1341" d="M111 690q0 128 18 234t60 196.5t106 152.5t159.5 97t217.5 35q151 0 261 -52.5t174 -150.5t94 -224.5t30 -287.5q0 -128 -18.5 -233.5t-60.5 -196t-106 -152t-160 -96.5t-218 -35q-150 0 -259.5 52.5t-173.5 150t-94 223.5t-30 287zM285 690q0 -105 11 -188t38.5 -155.5 t71 -120t110.5 -74.5t156 -27q110 0 186.5 40t119 117.5t61 176t18.5 231.5q0 106 -11 189.5t-38.5 155.5t-71 120t-110.5 75t-156 27q-108 0 -184 -40t-119.5 -117.5t-62.5 -177.5t-19 -232z" />
<glyph unicode="P" horiz-adv-x="1191" d="M94 0v139h152v1106h-152v139h574q235 0 345.5 -110t110.5 -307q0 -196 -111 -308t-345 -112h-142v143h150q80 0 136.5 20.5t87.5 59.5t44.5 86.5t13.5 108.5q0 129 -64 204.5t-218 75.5h-268v-1106h251v-139h-565z" />
<glyph unicode="Q" horiz-adv-x="1370" d="M111 690q0 128 18 234t60 196.5t106 152.5t159.5 97t217.5 35q151 0 261 -52.5t174 -150.5t94 -224.5t30 -287.5q0 -242 -68 -405q100 -137 158 -285h-170q-110 237 -291 378.5t-418 141.5q-65 0 -147 -10q25 -187 113.5 -286t263.5 -99q160 0 246 86q58 -47 86 -121 q-125 -113 -336 -113q-150 0 -259.5 52.5t-173.5 150t-94 223.5t-30 287zM285 651q106 13 164 13q325 0 581 -232q27 111 27 258q0 106 -11 189.5t-38.5 155.5t-71 120t-110.5 75t-156 27q-108 0 -184 -40t-119.5 -117.5t-62.5 -177.5t-19 -232v-39z" />
<glyph unicode="R" horiz-adv-x="1316" d="M94 1245v139h594q238 0 346.5 -96t108.5 -282q0 -151 -84 -244t-242 -121q99 -71 184 -212.5t127 -289.5h170v-139h-483v139h137q-35 135 -122.5 276t-194.5 210h-225v-486h165v-139h-479v139h152v1106h-154zM410 762h260q161 0 234 62t73 180q0 117 -66 179t-223 62 h-278v-483z" />
<glyph unicode="S" horiz-adv-x="1095" d="M113 432h135l47 -270q44 -21 115 -34t133 -13q124 0 200 64t76 169q0 81 -51.5 140.5t-138.5 91.5l-201 73q-155 57 -226 142.5t-71 228.5q0 71 26 137t76.5 121.5t135 89t190.5 33.5q210 0 389 -86v-340h-135l-31 250q-103 35 -223 35q-121 0 -188.5 -68t-67.5 -166 q0 -83 44.5 -134.5t144.5 -88.5l184 -68q163 -58 240 -148.5t77 -232.5q0 -71 -28.5 -137.5t-82 -121.5t-141 -88.5t-196.5 -33.5q-238 0 -412 91z" />
<glyph unicode="T" horiz-adv-x="1159" d="M55 1024v360h1051v-360h-137v221h-316v-1106h197v-139h-557v139h201v1106h-299v-221h-140z" />
<glyph unicode="U" horiz-adv-x="1411" d="M63 1245v139h500v-139h-201v-741q0 -203 90 -290t255 -87q162 0 251 87t89 290v741h-199v139h500v-139h-142v-735q0 -145 -37.5 -250.5t-107.5 -166t-157.5 -88.5t-198.5 -28q-110 0 -197.5 28t-157 88t-107.5 166t-38 251v735h-142z" />
<glyph unicode="V" horiz-adv-x="1368" d="M10 1245v139h498v-139h-189l367 -1091l361 1091h-181v139h502v-139h-145l-430 -1245h-218l-430 1245h-135z" />
<glyph unicode="W" horiz-adv-x="2004" d="M10 1245v139h508v-139h-196l280 -1079l326 936l-103 282h187l399 -1216l281 1077h-246v139h547v-139h-140l-335 -1245h-201l-311 905l-312 -905h-202l-340 1245h-142z" />
<glyph unicode="X" horiz-adv-x="1335" d="M45 0v139h152l372 576l-348 530h-162v139h494v-139h-145l260 -422l256 422h-146v139h490v-139h-160l-350 -530l385 -576h155v-139h-493v139h145l-286 455l-281 -455h154v-139h-492z" />
<glyph unicode="Y" horiz-adv-x="1265" d="M12 1245v139h484v-139h-183l322 -551l328 551h-187v139h488v-139h-127l-424 -690v-416h186v-139h-545v139h197v416l-412 690h-127z" />
<glyph unicode="Z" horiz-adv-x="1167" d="M92 0v131l762 1112h-580v-248h-149v389h930v-131l-764 -1114h608v310h152v-449h-959z" />
<glyph unicode="[" horiz-adv-x="614" d="M156 -442v1867h409v-139h-248v-1589h248v-139h-409z" />
<glyph unicode="\" horiz-adv-x="745" d="M80 1362v22h158l424 -1357v-27h-152z" />
<glyph unicode="]" horiz-adv-x="614" d="M49 -303h248v1589h-248v139h410v-1867h-410v139z" />
<glyph unicode="^" horiz-adv-x="1331" d="M178 944l488 488l487 -488l-106 -108l-381 381l-381 -379z" />
<glyph unicode="_" horiz-adv-x="1093" d="M137 -63h819v-119h-819v119z" />
<glyph unicode="`" horiz-adv-x="1228" d="M453 1425h168l155 -317h-145z" />
<glyph unicode="a" horiz-adv-x="997" d="M76 240q0 57 20.5 101t55.5 74.5t90.5 53t118.5 35.5t145 22l164 21v229q-58 37 -189 37q-122 0 -192 -37v-162h-131q-27 69 -27 138q0 93 88.5 147.5t261.5 54.5q77 0 133 -8.5t94 -29t61.5 -46.5t36.5 -69t17 -87.5t4 -111.5v-405q0 -70 58 -70q25 0 71 8v-137 q-49 -10 -116 -10q-71 0 -113.5 36.5t-46.5 102.5q-50 -62 -131 -106t-189 -44q-140 0 -212 69.5t-72 193.5zM242 250q0 -137 157 -137q83 0 154.5 33.5t116.5 78.5v211l-160 -22q-144 -21 -206 -56.5t-62 -107.5z" />
<glyph unicode="b" horiz-adv-x="1054" d="M8 1286v139h295v-583q90 112 262 112q398 0 398 -485q0 -227 -100.5 -359.5t-297.5 -132.5q-180 0 -278 113l-70 -90h-67v1286h-142zM303 246q81 -121 229 -121q77 0 130.5 25.5t82.5 74t41.5 107.5t12.5 137q0 79 -12 137t-40.5 105t-81.5 71.5t-130 24.5 q-156 0 -232 -113v-448z" />
<glyph unicode="c" horiz-adv-x="946" d="M88 469q0 102 26.5 188.5t78 153.5t134.5 105t189 38q182 0 340 -77l-35 -318h-125v229q-77 29 -178 29q-133 0 -196.5 -92t-63.5 -246q0 -356 266 -356q164 0 301 86l45 -133q-171 -99 -362 -99q-108 0 -190.5 38t-131.5 106t-73.5 155.5t-24.5 192.5z" />
<glyph unicode="d" horiz-adv-x="1099" d="M92 469q0 229 99 357t298 128q181 0 271 -112v444h-193v139h346v-1288h142v-137h-133q-138 0 -144 129q-118 -152 -295 -152q-196 0 -293.5 128.5t-97.5 363.5zM254 469q0 -161 60.5 -252.5t205.5 -91.5q77 0 139 36t101 87v446q-81 113 -238 113q-145 0 -206.5 -89 t-61.5 -249z" />
<glyph unicode="e" horiz-adv-x="964" d="M90 469q0 103 25 190t74 153.5t128.5 104t182.5 37.5q94 0 167 -33t117 -89t66 -124.5t22 -146.5q0 -65 -12 -143h-606q7 -301 264 -301q153 0 299 100l53 -127q-165 -113 -354 -113q-113 0 -196.5 36t-133 103t-73 154.5t-23.5 198.5zM256 541h461q4 24 4 41 q0 108 -59 172.5t-162 64.5q-227 0 -244 -278z" />
<glyph unicode="f" horiz-adv-x="708" d="M82 797v137h141v194q0 66 15 121.5t47 100.5t88 70.5t131 25.5q56 0 123 -16v-142q-70 12 -115 12q-76 0 -106.5 -45t-30.5 -137v-184h278v-137h-278v-660h219v-137h-510v123l139 29v645h-141z" />
<glyph unicode="g" horiz-adv-x="997" d="M55 -209q0 77 50.5 134.5t111.5 74.5q-32 14 -49.5 45.5t-17.5 67.5q0 97 102 190q-78 40 -121 116t-43 179q0 164 101.5 260t293.5 96q68 0 135 -18t103 -45q106 134 250 131l14 -148l-197 -65q35 -36 54.5 -93.5t19.5 -121.5q0 -157 -101.5 -244.5t-279.5 -87.5 q-102 0 -157 21l-29 -166h307q154 0 233.5 -64.5t79.5 -185.5q0 -150 -123.5 -240t-332.5 -90q-210 0 -307 67.5t-97 186.5zM213 -174q0 -78 59 -119t191 -41q128 0 208.5 46t80.5 136q0 127 -174 127h-269q-47 -31 -71.5 -65.5t-24.5 -83.5zM244 598q0 -98 56 -155.5 t179 -57.5q230 0 230 213q0 99 -56 158t-174 59q-235 0 -235 -217z" />
<glyph unicode="h" horiz-adv-x="1155" d="M41 1284v141h301v-583q50 46 136.5 79t183.5 33q170 0 242.5 -87t72.5 -271v-459h135v-137h-448v137h159v447q0 57 -7 93.5t-27.5 68.5t-62 46.5t-105.5 14.5q-80 0 -157 -29t-122 -67v-574h160v-137h-451v137h137v1147h-147z" />
<glyph unicode="i" horiz-adv-x="655" d="M70 0v137h204v658h-204v139h358v-797h195v-137h-553zM227 1274q0 56 31 83t82 27q47 0 79 -27.5t32 -82.5t-32 -82t-79 -27q-51 0 -82 26.5t-31 82.5z" />
<glyph unicode="j" horiz-adv-x="518" d="M37 795v139h334v-979q0 -75 -11 -133.5t-37 -114t-75 -98.5t-121 -72l-82 119q94 44 133 104.5t39 178.5v856h-180zM168 1274q0 56 31 83t82 27q47 0 78.5 -27.5t31.5 -82.5t-31.5 -82t-78.5 -27q-51 0 -82 26.5t-31 82.5z" />
<glyph unicode="k" horiz-adv-x="1138" d="M41 1286v139h303v-966l391 336h-155v139h467v-139h-140l-286 -248l290 -410h185v-137h-351v125l-235 342l-166 -141v-189h197v-137h-490v137h142v1149h-152z" />
<glyph unicode="l" horiz-adv-x="514" d="M-25 1286v139h324v-1175q0 -68 20.5 -96.5t73.5 -28.5q51 0 92 14l13 -137q-64 -25 -144 -25q-114 0 -160.5 64t-46.5 192v1053h-172z" />
<glyph unicode="m" horiz-adv-x="1665" d="M82 0v137h135v658h-133v139h274v-98q43 51 114.5 84.5t156.5 33.5q98 0 158 -33t102 -100q114 133 307 133q159 0 226 -86t67 -262v-469h131v-137h-410v137h123v459q0 110 -35 160.5t-133 50.5q-71 0 -132.5 -26.5t-96.5 -69.5v-574h123v-137h-404v137h125v565 q-52 105 -188 105q-132 0 -221 -96v-574h123v-137h-412z" />
<glyph unicode="n" horiz-adv-x="1173" d="M82 0v137h135v658h-133v139h274v-105q49 52 134.5 88.5t193.5 36.5q168 0 239.5 -87t71.5 -271v-459h133v-137h-444v137h158v447q0 57 -7 93.5t-28 68.5t-61.5 46.5t-104.5 14.5q-79 0 -154 -29t-118 -67v-574h155v-137h-444z" />
<glyph unicode="o" horiz-adv-x="1030" d="M90 467q0 228 102.5 357.5t323.5 129.5q114 0 197 -35.5t132 -101.5t72 -152t23 -196q0 -492 -428 -492q-90 0 -161 23.5t-119.5 66t-80.5 104t-46.5 135t-14.5 161.5zM254 469q0 -174 60 -261t202 -87q143 0 201.5 87t58.5 259q0 173 -59 258.5t-203 85.5 q-142 0 -201 -85.5t-59 -256.5z" />
<glyph unicode="p" horiz-adv-x="1093" d="M47 795v139h285v-105q94 125 270 125q201 0 300 -128t99 -361q0 -231 -98 -359.5t-301 -128.5q-168 0 -260 111v-391h215v-139h-496v127l127 24v1086h-141zM342 240q77 -115 231 -115q75 0 128 24.5t82.5 72t42 106.5t12.5 137t-12.5 137t-41.5 107t-82 73t-129 25 q-84 0 -142 -35t-89 -84v-448z" />
<glyph unicode="q" horiz-adv-x="1052" d="M92 465q0 234 98.5 361.5t298.5 127.5q163 0 281 -114l29 176h106v-1311l133 -24v-123h-506v139h220v391q-92 -111 -263 -111q-203 0 -300 128t-97 360zM254 465q0 -62 7.5 -111.5t26 -93t48.5 -72.5t76.5 -46t107.5 -17q155 0 232 115v448q-31 49 -90 84t-142 35 q-76 0 -129.5 -25t-82.5 -73t-41.5 -107t-12.5 -137z" />
<glyph unicode="r" horiz-adv-x="817" d="M82 0v123l139 29v643h-139v139h285v-201q32 86 107.5 153.5t160.5 67.5q77 0 151 -12l-18 -188l-154 39q-70 -6 -136.5 -55.5t-102.5 -125.5v-475h223v-137h-516z" />
<glyph unicode="s" horiz-adv-x="888" d="M88 322h123l43 -189q87 -37 182 -37q87 0 140 36t53 101q0 52 -33 84t-98 52l-168 55q-217 70 -217 256q0 52 19 98.5t57.5 87t107 64.5t158.5 24q177 0 311 -57v-248h-123l-22 158q-74 27 -166 27q-86 0 -129 -41.5t-43 -98.5q0 -49 27 -79.5t87 -49.5l160 -53 q121 -37 182.5 -100t61.5 -166q0 -115 -94 -192t-269 -77q-171 0 -327 70z" />
<glyph unicode="t" horiz-adv-x="694" d="M31 795v118l178 21v235l153 29v-264h254v-139h-254v-529q0 -66 30.5 -103.5t94.5 -37.5q87 0 146 22l16 -137q-83 -33 -200 -33q-122 0 -181 73.5t-59 199.5v545h-178z" />
<glyph unicode="u" horiz-adv-x="1153" d="M37 797v137h305v-584q0 -56 7 -93.5t26.5 -69t58 -46t98.5 -14.5q86 0 162.5 42t112.5 101v527h-191v137h345v-795h143v-139h-273v150q-51 -69 -141.5 -121t-204.5 -52q-159 0 -228 88t-69 273v459h-151z" />
<glyph unicode="v" horiz-adv-x="1107" d="M23 795v139h450v-139h-162l246 -654l246 654h-162v139h446v-139h-124l-310 -795h-200l-308 795h-122z" />
<glyph unicode="w" horiz-adv-x="1613" d="M25 795v139h444v-139h-166l197 -643l235 573l-80 209h162l307 -780l185 641h-174v139h454v-139h-121l-245 -795h-183l-227 567l-240 -567h-178l-256 795h-114z" />
<glyph unicode="x" horiz-adv-x="1140" d="M63 0v137h125l269 344l-228 314h-161v139h350v-127l182 -254l178 242h-178v139h459v-139h-131l-250 -322l254 -336h155v-137h-348v125l-198 278l-197 -266h180v-137h-461z" />
<glyph unicode="y" horiz-adv-x="1175" d="M20 795v139h353v-133l241 -606l258 600h-239v139h520v-139h-123l-481 -1102q-36 -86 -91.5 -121t-133.5 -35q-108 0 -174 29v121h235l152 333l-332 775h-185z" />
<glyph unicode="z" horiz-adv-x="917" d="M84 0v117l524 692h-362l-21 -170h-119v295h701v-117l-524 -692h401l21 197h116v-322h-737z" />
<glyph unicode="{" horiz-adv-x="593" d="M39 426v131q89 0 136.5 37t47.5 129v422q0 154 71.5 217t231.5 63v-131q-75 -2 -109 -35t-34 -126v-424q0 -184 -166 -217q23 -4 48 -16t53.5 -36t46.5 -67.5t18 -98.5v-434q0 -91 32.5 -119.5t110.5 -31.5v-131q-160 0 -231.5 62.5t-71.5 217.5v422q0 166 -184 166z" />
<glyph unicode="|" horiz-adv-x="421" d="M156 -442v1867h112v-1867h-112z" />
<glyph unicode="}" horiz-adv-x="593" d="M68 -311q79 3 111 31t32 120v434q0 55 18 98.5t46.5 67.5t53.5 36t48 16q-166 33 -166 217v424q0 93 -33.5 126t-109.5 35v131q160 0 232.5 -63.5t72.5 -216.5v-422q0 -92 47.5 -129t134.5 -37v-131q-182 0 -182 -166v-422q0 -154 -72.5 -217t-232.5 -63v131z" />
<glyph unicode="~" horiz-adv-x="952" d="M115 473l14 156q39 -35 74.5 -54.5t81.5 -19.5q41 0 88 23t84 50.5t90.5 50.5t105.5 23q92 0 187 -73l-21 -152q-94 74 -164 74q-39 0 -86.5 -23t-86 -51t-91 -51t-100.5 -23q-50 0 -98.5 21.5t-77.5 48.5z" />
<glyph unicode="&#xa1;" horiz-adv-x="475" d="M115 838q0 51 34 83.5t87 32.5t86.5 -32.5t33.5 -83.5t-34 -85t-86 -34t-86.5 34t-34.5 85zM141 -444l33 952h129l29 -952h-191z" />
<glyph unicode="&#xa2;" d="M180 469q0 103 26 189.5t78 153t136 104.5t192 38q10 0 32 -1t32 -1l37 154l98 -23l-37 -145q116 -27 211 -86l-47 -133q-86 57 -197 80l-163 -670q31 -4 94 -4q147 6 266 88l47 -131q-73 -46 -170.5 -75.5t-202.5 -29.5q-29 0 -69 7l-29 -125l-96 22l28 125 q-134 45 -200 168t-66 295zM348 479q0 -240 135 -319l158 649q-293 -3 -293 -330z" />
<glyph unicode="&#xa3;" d="M106 0v115l138 51v321h-138v119h138v305q0 106 24 192.5t73.5 155.5t134 107.5t198.5 38.5q199 0 366 -76l-32 -313h-121v215q-103 31 -207 31q-272 0 -272 -355v-301h395v-119h-395v-350h608v-137h-910z" />
<glyph unicode="&#xa4;" d="M133 887l111 108l149 -153q71 49 178 49q115 0 181 -51l151 151l105 -104l-160 -162q31 -70 31 -160q0 -95 -31 -168l164 -168l-109 -108l-164 158q-68 -46 -172 -46t-172 46l-149 -150l-107 104l156 158q-33 70 -33 172q0 97 31 160zM406 565q0 -188 165 -188 q164 0 164 186q0 185 -166 185q-163 0 -163 -183z" />
<glyph unicode="&#xa5;" d="M-14 1245v139h460v-139h-170l293 -545l299 545h-172v139h463v-139h-119l-211 -360h181v-119h-248l-92 -160h340v-119h-363v-348h172v-139h-514v139h180v348h-356v119h336l-90 160h-246v119h180l-205 360h-118z" />
<glyph unicode="&#xa6;" horiz-adv-x="440" d="M164 348h112v-790h-112v790zM164 627v798h112v-798h-112z" />
<glyph unicode="&#xa7;" horiz-adv-x="1132" d="M127 608q0 73 39 142t108 114q-141 88 -141 232q0 60 24.5 113.5t74.5 98.5t136.5 71t200.5 26q102 0 210.5 -24.5t193.5 -65.5v-242h-123l-27 152q-128 47 -254 47q-129 0 -197.5 -43t-68.5 -117q0 -63 58 -102.5t178 -83.5l163 -60q158 -57 236 -130t78 -189 q0 -72 -41.5 -139t-112.5 -115q74 -43 111 -96t37 -127q0 -137 -118 -221.5t-345 -84.5q-113 0 -219.5 28.5t-186.5 76.5v262h123l25 -174q40 -25 115 -43t143 -18q136 0 213.5 37.5t77.5 117.5q0 25 -13 48t-30 38.5t-50 33t-55 27t-63 25.5l-219 86q-135 50 -208 120.5 t-73 178.5zM293 635q0 -66 54 -111.5t153 -83.5l229 -86q49 28 84 73.5t35 98.5q0 34 -14 62.5t-32.5 47t-52.5 37t-57.5 28.5t-62.5 24l-223 80q-53 -27 -83 -74t-30 -96z" />
<glyph unicode="&#xa8;" horiz-adv-x="1228" d="M315 1253q0 56 31.5 83.5t81.5 27.5q47 0 79 -28t32 -83t-32 -81.5t-79 -26.5q-51 0 -82 26.5t-31 81.5zM688 1253q0 56 31.5 83.5t81.5 27.5q47 0 78.5 -28t31.5 -83t-31.5 -81.5t-78.5 -26.5q-51 0 -82 26.5t-31 81.5z" />
<glyph unicode="&#xa9;" horiz-adv-x="1671" d="M111 690q0 215 95 382.5t260 258t372 90.5q154 0 288 -53t230 -147.5t151.5 -232t55.5 -298.5t-55.5 -299t-151.5 -233.5t-230 -149t-288 -53.5q-155 0 -289 53.5t-230.5 149t-152 233.5t-55.5 299zM240 690q0 -278 167 -445t431 -167q129 0 239 43.5t189 121.5 t123.5 193.5t44.5 253.5q0 277 -166.5 442.5t-429.5 165.5q-174 0 -309 -73t-212 -212t-77 -323zM455 686q0 195 100 307.5t289 112.5q123 0 262 -62v-253h-117v159q-67 29 -145 29q-126 0 -186 -77t-60 -216q0 -61 11 -111t36 -92.5t71.5 -66t110.5 -23.5q137 0 269 80 l37 -115q-149 -92 -308 -92q-370 0 -370 420z" />
<glyph unicode="&#xaa;" horiz-adv-x="751" d="M92 870q0 99 74 141t211 42h88v63q0 90 -111 90q-64 0 -106 -20v-80h-101l-12 147q38 23 98.5 39.5t120.5 16.5q234 0 234 -185v-270q0 -21 7 -30t26 -9q3 0 20.5 2t20.5 2v-102q-38 -6 -78 -6q-98 0 -111 80q-76 -89 -192 -89q-93 0 -141 44.5t-48 123.5zM221 881 q0 -35 22 -55.5t66 -20.5t86.5 18t69.5 43v103h-86q-158 0 -158 -88z" />
<glyph unicode="&#xab;" horiz-adv-x="1019" d="M74 553l364 438l103 -82l-271 -356l271 -356l-103 -82zM459 553l364 438l103 -82l-269 -356l271 -356l-105 -82z" />
<glyph unicode="&#xac;" horiz-adv-x="1228" d="M131 655v152h944v-528h-153v376h-791z" />
<glyph unicode="&#xad;" d="M227 477v152h691v-152h-691z" />
<glyph unicode="&#xae;" horiz-adv-x="1671" d="M111 690q0 215 95 382.5t260 258t372 90.5q154 0 288 -53t230 -147.5t151.5 -232t55.5 -298.5t-55.5 -299t-151.5 -233.5t-230 -149t-288 -53.5q-155 0 -289 53.5t-230.5 149t-152 233.5t-55.5 299zM240 690q0 -278 167 -445t431 -167q129 0 239 43.5t189 121.5 t123.5 193.5t44.5 253.5q0 277 -166.5 442.5t-429.5 165.5q-174 0 -309 -73t-212 -212t-77 -323zM473 995v101h389q303 0 303 -240q0 -88 -51.5 -147t-146.5 -78l170 -258h94v-101h-326v101h96l-155 245h-152v-245h101v-101h-320v101h94v622h-96zM694 719h160q96 0 140 37.5 t44 99.5q0 63 -41.5 101t-134.5 38h-168v-276z" />
<glyph unicode="&#xaf;" horiz-adv-x="1228" d="M328 1176v135h571v-135h-571z" />
<glyph unicode="&#xb0;" horiz-adv-x="720" d="M82 1118q0 123 75 205t201 82q127 0 204 -82t77 -205q0 -120 -77 -201t-204 -81q-126 0 -201 80.5t-75 201.5zM182 1118q0 -81 47 -132.5t129 -51.5q83 0 130 51t47 133t-47.5 135.5t-129.5 53.5q-81 0 -128.5 -53.5t-47.5 -135.5z" />
<glyph unicode="&#xb1;" d="M100 66v151h944v-151h-944zM100 750v151h389v402h160v-402h395v-151h-395v-351h-160v351h-389z" />
<glyph unicode="&#xb2;" horiz-adv-x="663" d="M72 893v94q230 204 258 232q59 57 83.5 95.5t24.5 92.5q0 51 -29.5 80t-86.5 29t-89 -28.5t-32 -78.5q0 -21 8 -45l-131 -10q-6 24 -6 55q0 95 64.5 155t185.5 60q124 0 187.5 -59.5t63.5 -155.5q0 -124 -157 -256l-172 -149h241v79h107v-190h-520z" />
<glyph unicode="&#xb3;" horiz-adv-x="651" d="M53 961l62 94q76 -62 186 -62q145 0 145 101q0 52 -37.5 76t-123.5 24h-86v109h80q68 0 107.5 27.5t39.5 78.5q0 49 -31 76.5t-94 27.5q-62 0 -119 -24v-76h-96l-10 143q99 68 229 68q68 0 119 -17.5t79 -47t41 -63t13 -71.5q0 -69 -36 -112.5t-93 -57.5q66 -12 110 -53 t44 -115q0 -95 -72.5 -150.5t-208.5 -55.5q-75 0 -141 22.5t-107 57.5z" />
<glyph unicode="&#xb4;" horiz-adv-x="1228" d="M453 1108l155 317h168l-178 -317h-145z" />
<glyph unicode="&#xb5;" horiz-adv-x="1230" d="M84 797v137h305v-584q0 -111 45 -167t162 -56q84 0 153.5 41.5t106.5 101.5v527h-190v137h344v-795h143v-139h-274v150q-50 -71 -134.5 -122t-197.5 -51q-104 0 -158 48v-467h-153v1239h-152z" />
<glyph unicode="&#xb6;" horiz-adv-x="1058" d="M72 633q0 140 83.5 220.5t254.5 80.5h215v-1024h-144v424h-71q-171 0 -254.5 80t-83.5 219zM582 -356q92 42 129 104t37 182v1004h143v-979q0 -77 -9 -134.5t-33 -114t-72 -99t-120 -70.5z" />
<glyph unicode="&#xb7;" horiz-adv-x="468" d="M113 551q0 51 35 84t88 33q52 0 86 -33t34 -84t-34 -85t-86 -34q-53 0 -88 34t-35 85z" />
<glyph unicode="&#xb8;" horiz-adv-x="1228" d="M410 -360l18 92q96 -51 174 -51q90 0 90 69q0 29 -21 47.5t-53 18.5q-35 0 -61 -13q-36 15 -61 25l63 172h107l-48 -119q20 8 60 8q57 0 98 -39t41 -100q0 -71 -52.5 -114.5t-154.5 -43.5q-84 0 -200 48z" />
<glyph unicode="&#xb9;" horiz-adv-x="587" d="M53 1524l234 90h112v-610h162v-111h-483v111h192v483l-188 -66z" />
<glyph unicode="&#xba;" horiz-adv-x="733" d="M88 1006q0 137 69.5 220t211.5 83q140 0 208 -83t68 -218q0 -139 -68.5 -222.5t-211.5 -83.5q-140 0 -208.5 83.5t-68.5 220.5zM213 1008q0 -195 154 -195q153 0 153 193q0 93 -35.5 142.5t-117.5 49.5q-154 0 -154 -190z" />
<glyph unicode="&#xbb;" horiz-adv-x="1019" d="M92 197l270 356l-268 356l103 82l364 -438l-364 -438zM479 197l271 356l-271 356l103 82l364 -438l-364 -438z" />
<glyph unicode="&#xbc;" horiz-adv-x="1443" d="M90 1294l234 90h112v-610h162v-110h-483v110h192v483l-188 -65zM297 0v18l838 1366h133v-18l-844 -1366h-127zM741 147v93l275 366q20 27 37 56t25 44l7 15h150v-471h113v-103h-113v-147h-127v147h-367zM883 250h225v307z" />
<glyph unicode="&#xbd;" horiz-adv-x="1511" d="M90 1294l234 90h112v-610h162v-110h-483v110h192v483l-188 -65zM297 0v18l838 1366h133v-18l-844 -1366h-127zM889 0v94q159 135 260 232q58 55 83 94t25 94q0 49 -30 78t-86 29q-58 0 -89.5 -28.5t-31.5 -76.5q0 -30 6 -45l-131 -10q-6 24 -6 55q0 95 65.5 155t186.5 60 q124 0 188 -60.5t64 -156.5q0 -121 -158 -254l-174 -149h244v79h106v-190h-522z" />
<glyph unicode="&#xbe;" horiz-adv-x="1398" d="M92 731l62 94q75 -61 186 -61q145 0 145 100q0 52 -37.5 76.5t-123.5 24.5h-86v108h79q68 0 108 28t40 79q0 49 -31 76.5t-94 27.5q-62 0 -119 -24v-76h-96l-10 143q99 68 229 68q68 0 119 -17.5t79 -47t41 -63t13 -71.5q0 -69 -36 -112.5t-93 -57.5q66 -12 110 -53 t44 -115q0 -95 -72.5 -151t-208.5 -56q-75 0 -141 22.5t-107 57.5zM252 0v18l838 1366h133v-18l-844 -1366h-127zM694 147v93l275 366q20 27 37 56t24 44l8 15h150v-471h112v-103h-112v-147h-127v147h-367zM836 250h225v307z" />
<glyph unicode="&#xbf;" horiz-adv-x="909" d="M84 -131q0 69 22 129t52.5 100.5t76.5 77t81 56.5t79 40v236h162v-318q-67 -24 -119.5 -51t-97.5 -63.5t-69.5 -84.5t-24.5 -104q0 -84 56.5 -143t166.5 -59q116 0 215 61v172h127l18 -250q-151 -133 -368 -133q-175 0 -276 96t-101 238zM356 838q0 51 34.5 83.5 t88.5 32.5q53 0 87 -32.5t34 -83.5t-34.5 -85t-86.5 -34q-54 0 -88.5 34t-34.5 85z" />
<glyph unicode="&#xc0;" horiz-adv-x="1409" d="M8 0v139h127l422 1106h-121v139h537v-139h-119l418 -1106h125v-139h-488v139h185l-111 301h-559l-115 -301h187v-139h-488zM465 582h479l-237 641zM471 1843h168l156 -317h-146z" />
<glyph unicode="&#xc1;" horiz-adv-x="1409" d="M8 0v139h127l422 1106h-121v139h537v-139h-119l418 -1106h125v-139h-488v139h185l-111 301h-559l-115 -301h187v-139h-488zM465 582h479l-237 641zM602 1526l156 317h168l-178 -317h-146z" />
<glyph unicode="&#xc2;" horiz-adv-x="1409" d="M8 0v139h127l422 1106h-121v139h537v-139h-119l418 -1106h125v-139h-488v139h185l-111 301h-559l-115 -301h187v-139h-488zM416 1526l188 317h199l188 -317h-145l-144 223l-139 -223h-147zM465 582h479l-237 641z" />
<glyph unicode="&#xc3;" horiz-adv-x="1409" d="M8 0v139h127l422 1106h-121v139h537v-139h-119l418 -1106h125v-139h-488v139h185l-111 301h-559l-115 -301h187v-139h-488zM420 1616l12 123q49 -49 125 -49q48 0 135 37.5t154 37.5q79 0 143 -51l-12 -125q-64 51 -131 51q-45 0 -136.5 -37.5t-152.5 -37.5 q-42 0 -80 15.5t-57 35.5zM465 582h479l-237 641z" />
<glyph unicode="&#xc4;" horiz-adv-x="1409" d="M8 0v139h127l422 1106h-121v139h537v-139h-119l418 -1106h125v-139h-488v139h185l-111 301h-559l-115 -301h187v-139h-488zM403 1671q0 56 31.5 83.5t81.5 27.5q47 0 79 -28t32 -83t-32 -81.5t-79 -26.5q-51 0 -82 26.5t-31 81.5zM465 582h479l-237 641zM776 1671 q0 56 31.5 83.5t81.5 27.5q47 0 78.5 -28t31.5 -83t-31.5 -81.5t-78.5 -26.5q-51 0 -82 26.5t-31 81.5z" />
<glyph unicode="&#xc5;" horiz-adv-x="1409" d="M8 0v139h127l422 1106h-121v139h537v-139h-119l418 -1106h125v-139h-488v139h185l-111 301h-559l-115 -301h187v-139h-488zM465 582h479l-237 641zM492 1659q0 84 56 139t152 55q99 0 157 -55t58 -139q0 -81 -58.5 -137t-156.5 -56q-95 0 -151.5 56t-56.5 137zM596 1659 q0 -44 28 -72t76 -28q51 0 80 28t29 72q0 45 -29 73.5t-80 28.5q-48 0 -76 -28.5t-28 -73.5z" />
<glyph unicode="&#xc6;" horiz-adv-x="2023" d="M-4 0v139h125l803 1106h-123v139h1108v-350h-152v211h-514v-467h477v-141h-477v-498h522v223h152v-362h-1018v139h182v301h-557l-221 -301h184v-139h-491zM616 582h467v641z" />
<glyph unicode="&#xc7;" horiz-adv-x="1214" d="M109 696q0 214 62.5 371t196 247.5t328.5 90.5q190 0 404 -96l-8 -422h-142l-12 313q-125 53 -246 53q-109 0 -190 -41t-129 -117t-71 -175.5t-23 -223.5q0 -121 21.5 -220t67.5 -177.5t124.5 -122t185.5 -43.5q220 0 395 113l47 -142q-175 -111 -387 -122l-37 -101 q20 8 60 8q57 0 98 -39t41 -100q0 -71 -52.5 -114.5t-154.5 -43.5q-85 0 -201 48l19 92q96 -51 174 -51q90 0 90 69q0 29 -21 47.5t-53 18.5q-35 0 -61 -13q-37 15 -62 25l56 152q-262 12 -391 199t-129 517z" />
<glyph unicode="&#xc8;" horiz-adv-x="1187" d="M94 0v139h154v1106h-154v139h979v-350h-151v211h-514v-467h477v-141h-477v-498h514v223h159v-362h-987zM379 1843h168l155 -317h-145z" />
<glyph unicode="&#xc9;" horiz-adv-x="1187" d="M94 0v139h154v1106h-154v139h979v-350h-151v211h-514v-467h477v-141h-477v-498h514v223h159v-362h-987zM508 1526l156 317h167l-178 -317h-145z" />
<glyph unicode="&#xca;" horiz-adv-x="1187" d="M94 0v139h154v1106h-154v139h979v-350h-151v211h-514v-467h477v-141h-477v-498h514v223h159v-362h-987zM330 1526l188 317h199l188 -317h-145l-144 223l-139 -223h-147z" />
<glyph unicode="&#xcb;" horiz-adv-x="1187" d="M94 0v139h154v1106h-154v139h979v-350h-151v211h-514v-467h477v-141h-477v-498h514v223h159v-362h-987zM322 1671q0 56 31 83.5t81 27.5q47 0 79 -28t32 -83t-32 -81.5t-79 -26.5q-51 0 -81.5 26.5t-30.5 81.5zM694 1671q0 56 31.5 83.5t81.5 27.5q47 0 79 -28t32 -83 t-32 -81.5t-79 -26.5q-51 0 -82 26.5t-31 81.5z" />
<glyph unicode="&#xcc;" horiz-adv-x="671" d="M86 0v139h172v1106h-172v139h500v-139h-166v-1106h166v-139h-500zM104 1843h168l156 -317h-145z" />
<glyph unicode="&#xcd;" horiz-adv-x="671" d="M86 0v139h172v1106h-172v139h500v-139h-166v-1106h166v-139h-500zM244 1526l155 317h168l-178 -317h-145z" />
<glyph unicode="&#xce;" horiz-adv-x="671" d="M49 1526l189 317h198l189 -317h-146l-143 223l-139 -223h-148zM86 0v139h172v1106h-172v139h500v-139h-166v-1106h166v-139h-500z" />
<glyph unicode="&#xcf;" horiz-adv-x="671" d="M37 1671q0 56 31.5 83.5t81.5 27.5q47 0 78.5 -28t31.5 -83t-31.5 -81.5t-78.5 -26.5q-51 0 -82 26.5t-31 81.5zM86 0v139h172v1106h-172v139h500v-139h-166v-1106h166v-139h-500zM410 1671q0 56 31 83.5t81 27.5q47 0 79 -28t32 -83t-32 -81.5t-79 -26.5 q-51 0 -81.5 26.5t-30.5 81.5z" />
<glyph unicode="&#xd0;" horiz-adv-x="1400" d="M121 0v139h153v504h-153v111h153v491h-153v139h485q132 0 235 -19t178 -59t126.5 -96t82.5 -135.5t44.5 -172t13.5 -210.5q0 -140 -19.5 -245.5t-66.5 -192t-124.5 -141t-194.5 -84t-275 -29.5h-485zM436 139h189q144 0 239.5 31.5t152.5 102t80 171.5t23 252 q0 148 -24.5 248t-82 169.5t-152.5 100.5t-236 31h-189v-491h334v-111h-334v-504z" />
<glyph unicode="&#xd1;" horiz-adv-x="1517" d="M98 0v139h146v1106h-146v139h346l691 -1144v1005h-215v139h522v-139h-146v-1245h-192l-698 1147v-1008h223v-139h-531zM483 1616l13 123q49 -49 125 -49q48 0 134.5 37.5t153.5 37.5q80 0 144 -51l-13 -125q-64 51 -131 51q-45 0 -136 -37.5t-152 -37.5q-42 0 -80.5 15.5 t-57.5 35.5z" />
<glyph unicode="&#xd2;" horiz-adv-x="1341" d="M111 690q0 128 18 234t60 196.5t106 152.5t159.5 97t217.5 35q151 0 261 -52.5t174 -150.5t94 -224.5t30 -287.5q0 -128 -18.5 -233.5t-60.5 -196t-106 -152t-160 -96.5t-218 -35q-150 0 -259.5 52.5t-173.5 150t-94 223.5t-30 287zM285 690q0 -105 11 -188t38.5 -155.5 t71 -120t110.5 -74.5t156 -27q110 0 186.5 40t119 117.5t61 176t18.5 231.5q0 106 -11 189.5t-38.5 155.5t-71 120t-110.5 75t-156 27q-108 0 -184 -40t-119.5 -117.5t-62.5 -177.5t-19 -232zM444 1843h168l156 -317h-145z" />
<glyph unicode="&#xd3;" horiz-adv-x="1341" d="M111 690q0 128 18 234t60 196.5t106 152.5t159.5 97t217.5 35q151 0 261 -52.5t174 -150.5t94 -224.5t30 -287.5q0 -128 -18.5 -233.5t-60.5 -196t-106 -152t-160 -96.5t-218 -35q-150 0 -259.5 52.5t-173.5 150t-94 223.5t-30 287zM285 690q0 -105 11 -188t38.5 -155.5 t71 -120t110.5 -74.5t156 -27q110 0 186.5 40t119 117.5t61 176t18.5 231.5q0 106 -11 189.5t-38.5 155.5t-71 120t-110.5 75t-156 27q-108 0 -184 -40t-119.5 -117.5t-62.5 -177.5t-19 -232zM575 1526l156 317h168l-178 -317h-146z" />
<glyph unicode="&#xd4;" horiz-adv-x="1341" d="M111 690q0 128 18 234t60 196.5t106 152.5t159.5 97t217.5 35q151 0 261 -52.5t174 -150.5t94 -224.5t30 -287.5q0 -128 -18.5 -233.5t-60.5 -196t-106 -152t-160 -96.5t-218 -35q-150 0 -259.5 52.5t-173.5 150t-94 223.5t-30 287zM285 690q0 -105 11 -188t38.5 -155.5 t71 -120t110.5 -74.5t156 -27q110 0 186.5 40t119 117.5t61 176t18.5 231.5q0 106 -11 189.5t-38.5 155.5t-71 120t-110.5 75t-156 27q-108 0 -184 -40t-119.5 -117.5t-62.5 -177.5t-19 -232zM383 1526l188 317h199l188 -317h-145l-143 223l-140 -223h-147z" />
<glyph unicode="&#xd5;" horiz-adv-x="1341" d="M111 690q0 128 18 234t60 196.5t106 152.5t159.5 97t217.5 35q151 0 261 -52.5t174 -150.5t94 -224.5t30 -287.5q0 -128 -18.5 -233.5t-60.5 -196t-106 -152t-160 -96.5t-218 -35q-150 0 -259.5 52.5t-173.5 150t-94 223.5t-30 287zM285 690q0 -105 11 -188t38.5 -155.5 t71 -120t110.5 -74.5t156 -27q110 0 186.5 40t119 117.5t61 176t18.5 231.5q0 106 -11 189.5t-38.5 155.5t-71 120t-110.5 75t-156 27q-108 0 -184 -40t-119.5 -117.5t-62.5 -177.5t-19 -232zM387 1616l12 123q49 -49 125 -49q48 0 135 37.5t154 37.5q79 0 143 -51l-12 -125 q-64 51 -131 51q-45 0 -136.5 -37.5t-152.5 -37.5q-42 0 -80 15.5t-57 35.5z" />
<glyph unicode="&#xd6;" horiz-adv-x="1341" d="M111 690q0 128 18 234t60 196.5t106 152.5t159.5 97t217.5 35q151 0 261 -52.5t174 -150.5t94 -224.5t30 -287.5q0 -128 -18.5 -233.5t-60.5 -196t-106 -152t-160 -96.5t-218 -35q-150 0 -259.5 52.5t-173.5 150t-94 223.5t-30 287zM285 690q0 -105 11 -188t38.5 -155.5 t71 -120t110.5 -74.5t156 -27q110 0 186.5 40t119 117.5t61 176t18.5 231.5q0 106 -11 189.5t-38.5 155.5t-71 120t-110.5 75t-156 27q-108 0 -184 -40t-119.5 -117.5t-62.5 -177.5t-19 -232zM373 1671q0 56 31 83.5t81 27.5q47 0 79 -28t32 -83t-32 -81.5t-79 -26.5 q-51 0 -81.5 26.5t-30.5 81.5zM745 1671q0 56 31.5 83.5t81.5 27.5q47 0 79 -28t32 -83t-32 -81.5t-79 -26.5q-51 0 -82 26.5t-31 81.5z" />
<glyph unicode="&#xd7;" d="M133 874l113 115l327 -327l322 321l109 -106l-324 -322l328 -328l-115 -112l-326 327l-319 -319l-107 106l320 320z" />
<glyph unicode="&#xd8;" horiz-adv-x="1341" d="M111 690q0 128 18 234t60 196.5t106 152.5t159.5 97t217.5 35q116 0 209 -35l32 76h134v-23l-48 -110q232 -169 232 -623q0 -128 -18.5 -233.5t-60.5 -196t-106 -152t-160 -96.5t-218 -35q-128 0 -228 41l-39 -96h-129v27l56 129q-217 168 -217 612zM285 690 q0 -317 114 -442l420 983q-67 26 -149 26q-108 0 -184 -40t-119.5 -117.5t-62.5 -177.5t-19 -232zM504 160q68 -35 168 -35q110 0 186.5 40t119 117.5t61 176t18.5 231.5q0 333 -129 459z" />
<glyph unicode="&#xd9;" horiz-adv-x="1411" d="M63 1245v139h500v-139h-201v-741q0 -203 90 -290t255 -87q162 0 251 87t89 290v741h-199v139h500v-139h-142v-735q0 -145 -37.5 -250.5t-107.5 -166t-157.5 -88.5t-198.5 -28q-110 0 -197.5 28t-157 88t-107.5 166t-38 251v735h-142zM475 1843h168l156 -317h-146z" />
<glyph unicode="&#xda;" horiz-adv-x="1411" d="M63 1245v139h500v-139h-201v-741q0 -203 90 -290t255 -87q162 0 251 87t89 290v741h-199v139h500v-139h-142v-735q0 -145 -37.5 -250.5t-107.5 -166t-157.5 -88.5t-198.5 -28q-110 0 -197.5 28t-157 88t-107.5 166t-38 251v735h-142zM631 1526l155 317h168l-178 -317 h-145z" />
<glyph unicode="&#xdb;" horiz-adv-x="1411" d="M63 1245v139h500v-139h-201v-741q0 -203 90 -290t255 -87q162 0 251 87t89 290v741h-199v139h500v-139h-142v-735q0 -145 -37.5 -250.5t-107.5 -166t-157.5 -88.5t-198.5 -28q-110 0 -197.5 28t-157 88t-107.5 166t-38 251v735h-142zM416 1526l188 317h199l188 -317h-145 l-144 223l-139 -223h-147z" />
<glyph unicode="&#xdc;" horiz-adv-x="1411" d="M63 1245v139h500v-139h-201v-741q0 -203 90 -290t255 -87q162 0 251 87t89 290v741h-199v139h500v-139h-142v-735q0 -145 -37.5 -250.5t-107.5 -166t-157.5 -88.5t-198.5 -28q-110 0 -197.5 28t-157 88t-107.5 166t-38 251v735h-142zM408 1671q0 56 31 83.5t81 27.5 q47 0 79 -28t32 -83t-32 -81.5t-79 -26.5q-51 0 -81.5 26.5t-30.5 81.5zM780 1671q0 56 31.5 83.5t81.5 27.5q47 0 79 -28t32 -83t-32 -81.5t-79 -26.5q-51 0 -82 26.5t-31 81.5z" />
<glyph unicode="&#xdd;" horiz-adv-x="1265" d="M12 1245v139h484v-139h-183l322 -551l328 551h-187v139h488v-139h-127l-424 -690v-416h186v-139h-545v139h197v416l-412 690h-127zM551 1526l156 317h167l-178 -317h-145z" />
<glyph unicode="&#xde;" horiz-adv-x="1191" d="M94 0v139h152v1106h-152v139h490v-139h-176v-158h260q456 0 456 -389q0 -391 -456 -391h-260v-168h178v-139h-492zM408 449h268q152 0 217 63.5t65 183.5q0 121 -65 186.5t-217 65.5h-268v-499z" />
<glyph unicode="&#xdf;" horiz-adv-x="1175" d="M51 0v123l139 29v868q0 93 21 169t64 134.5t115.5 90.5t168.5 32q98 0 172 -28t117.5 -76t64.5 -106t21 -124q0 -57 -28.5 -118t-62.5 -103t-62.5 -86t-28.5 -70q0 -63 104 -125l80 -53q186 -115 186 -291q0 -126 -93 -207.5t-243 -81.5q-158 0 -284 60l-15 235h119 l35 -153q64 -23 131 -23q86 0 136 44.5t50 115.5q0 110 -112 182l-98 72q-46 33 -66.5 49.5t-47 44.5t-36.5 56.5t-10 64.5q0 35 18.5 72.5t45.5 71t54 68t45.5 78t18.5 87.5q0 98 -57.5 150.5t-157.5 52.5q-63 0 -106 -20.5t-65 -60t-31 -86.5t-9 -112v-1026h-293z" />
<glyph unicode="&#xe0;" horiz-adv-x="997" d="M76 240q0 57 20.5 101t55.5 74.5t90.5 53t118.5 35.5t145 22l164 21v229q-58 37 -189 37q-122 0 -192 -37v-162h-131q-27 69 -27 138q0 93 88.5 147.5t261.5 54.5q77 0 133 -8.5t94 -29t61.5 -46.5t36.5 -69t17 -87.5t4 -111.5v-405q0 -70 58 -70q25 0 71 8v-137 q-49 -10 -116 -10q-71 0 -113.5 36.5t-46.5 102.5q-50 -62 -131 -106t-189 -44q-140 0 -212 69.5t-72 193.5zM242 250q0 -137 157 -137q83 0 154.5 33.5t116.5 78.5v211l-160 -22q-144 -21 -206 -56.5t-62 -107.5zM268 1425h168l156 -317h-146z" />
<glyph unicode="&#xe1;" horiz-adv-x="997" d="M76 240q0 57 20.5 101t55.5 74.5t90.5 53t118.5 35.5t145 22l164 21v229q-58 37 -189 37q-122 0 -192 -37v-162h-131q-27 69 -27 138q0 93 88.5 147.5t261.5 54.5q77 0 133 -8.5t94 -29t61.5 -46.5t36.5 -69t17 -87.5t4 -111.5v-405q0 -70 58 -70q25 0 71 8v-137 q-49 -10 -116 -10q-71 0 -113.5 36.5t-46.5 102.5q-50 -62 -131 -106t-189 -44q-140 0 -212 69.5t-72 193.5zM242 250q0 -137 157 -137q83 0 154.5 33.5t116.5 78.5v211l-160 -22q-144 -21 -206 -56.5t-62 -107.5zM395 1108l156 317h168l-178 -317h-146z" />
<glyph unicode="&#xe2;" horiz-adv-x="997" d="M76 240q0 57 20.5 101t55.5 74.5t90.5 53t118.5 35.5t145 22l164 21v229q-58 37 -189 37q-122 0 -192 -37v-162h-131q-27 69 -27 138q0 93 88.5 147.5t261.5 54.5q77 0 133 -8.5t94 -29t61.5 -46.5t36.5 -69t17 -87.5t4 -111.5v-405q0 -70 58 -70q25 0 71 8v-137 q-49 -10 -116 -10q-71 0 -113.5 36.5t-46.5 102.5q-50 -62 -131 -106t-189 -44q-140 0 -212 69.5t-72 193.5zM205 1108l188 317h199l188 -317h-145l-143 223l-140 -223h-147zM242 250q0 -137 157 -137q83 0 154.5 33.5t116.5 78.5v211l-160 -22q-144 -21 -206 -56.5 t-62 -107.5z" />
<glyph unicode="&#xe3;" horiz-adv-x="997" d="M76 240q0 57 20.5 101t55.5 74.5t90.5 53t118.5 35.5t145 22l164 21v229q-58 37 -189 37q-122 0 -192 -37v-162h-131q-27 69 -27 138q0 93 88.5 147.5t261.5 54.5q77 0 133 -8.5t94 -29t61.5 -46.5t36.5 -69t17 -87.5t4 -111.5v-405q0 -70 58 -70q25 0 71 8v-137 q-49 -10 -116 -10q-71 0 -113.5 36.5t-46.5 102.5q-50 -62 -131 -106t-189 -44q-140 0 -212 69.5t-72 193.5zM207 1198l12 123q49 -49 125 -49q48 0 135 38t154 38q77 0 143 -52l-12 -125q-65 52 -131 52q-45 0 -136.5 -38t-152.5 -38q-42 0 -80 15.5t-57 35.5zM242 250 q0 -137 157 -137q83 0 154.5 33.5t116.5 78.5v211l-160 -22q-144 -21 -206 -56.5t-62 -107.5z" />
<glyph unicode="&#xe4;" horiz-adv-x="997" d="M76 240q0 57 20.5 101t55.5 74.5t90.5 53t118.5 35.5t145 22l164 21v229q-58 37 -189 37q-122 0 -192 -37v-162h-131q-27 69 -27 138q0 93 88.5 147.5t261.5 54.5q77 0 133 -8.5t94 -29t61.5 -46.5t36.5 -69t17 -87.5t4 -111.5v-405q0 -70 58 -70q25 0 71 8v-137 q-49 -10 -116 -10q-71 0 -113.5 36.5t-46.5 102.5q-50 -62 -131 -106t-189 -44q-140 0 -212 69.5t-72 193.5zM195 1253q0 56 31 83.5t81 27.5q47 0 79 -28t32 -83t-32 -81.5t-79 -26.5q-51 0 -81.5 26.5t-30.5 81.5zM242 250q0 -137 157 -137q83 0 154.5 33.5t116.5 78.5 v211l-160 -22q-144 -21 -206 -56.5t-62 -107.5zM567 1253q0 56 31.5 83.5t81.5 27.5q47 0 79 -28t32 -83t-32 -81.5t-79 -26.5q-51 0 -82 26.5t-31 81.5z" />
<glyph unicode="&#xe5;" horiz-adv-x="997" d="M76 240q0 57 20.5 101t55.5 74.5t90.5 53t118.5 35.5t145 22l164 21v229q-58 37 -189 37q-122 0 -192 -37v-162h-131q-27 69 -27 138q0 93 88.5 147.5t261.5 54.5q77 0 133 -8.5t94 -29t61.5 -46.5t36.5 -69t17 -87.5t4 -111.5v-405q0 -70 58 -70q25 0 71 8v-137 q-49 -10 -116 -10q-71 0 -113.5 36.5t-46.5 102.5q-50 -62 -131 -106t-189 -44q-140 0 -212 69.5t-72 193.5zM242 250q0 -137 157 -137q83 0 154.5 33.5t116.5 78.5v211l-160 -22q-144 -21 -206 -56.5t-62 -107.5zM281 1274q0 84 56 139t152 55q99 0 157.5 -55t58.5 -139 q0 -81 -59 -137t-157 -56q-95 0 -151.5 56t-56.5 137zM385 1274q0 -44 28 -72t76 -28q51 0 80 28t29 72q0 45 -29 73.5t-80 28.5q-48 0 -76 -28.5t-28 -73.5z" />
<glyph unicode="&#xe6;" horiz-adv-x="1544" d="M76 240q0 57 20.5 101.5t56 75t91.5 52.5t118 35t144 22l164 21v229q-73 37 -203 37q-122 0 -178 -37v-162h-131q-27 69 -27 138q0 93 89 147.5t263 54.5q246 0 305 -127q98 127 291 127q76 0 139 -21.5t106 -58.5t72 -87.5t42.5 -107t13.5 -118.5q0 -85 -12 -143h-604 q6 -301 262 -301q153 0 299 100l53 -127q-161 -113 -365 -113q-115 0 -203 48t-128 129q-43 -75 -153.5 -126t-231.5 -51q-147 0 -220 69t-73 194zM244 250q0 -137 157 -137q82 0 153 33.5t116 78.5v211l-158 -22q-145 -21 -206.5 -56.5t-61.5 -107.5zM838 541h458 q2 12 2 41q0 108 -58.5 172.5t-160.5 64.5q-63 0 -109 -20.5t-73 -59t-41 -87t-18 -111.5z" />
<glyph unicode="&#xe7;" horiz-adv-x="948" d="M90 469q0 102 26 188.5t77 153.5t134 105t189 38q186 0 340 -77l-35 -318h-125v229q-77 29 -178 29q-132 0 -196 -92t-64 -246q0 -356 268 -356q80 0 159.5 24t139.5 62l45 -133q-148 -85 -315 -96l-37 -99q24 8 60 8q57 0 98 -39t41 -100q0 -71 -52.5 -114.5 t-154.5 -43.5q-82 0 -201 48l19 92q96 -51 174 -51q90 0 90 69q0 29 -21 47.5t-53 18.5q-35 0 -61 -13q-35 15 -60 25l56 154q-183 18 -273 150t-90 337z" />
<glyph unicode="&#xe8;" horiz-adv-x="964" d="M90 469q0 103 25 190t74 153.5t128.5 104t182.5 37.5q94 0 167 -33t117 -89t66 -124.5t22 -146.5q0 -65 -12 -143h-606q7 -301 264 -301q153 0 299 100l53 -127q-165 -113 -354 -113q-113 0 -196.5 36t-133 103t-73 154.5t-23.5 198.5zM256 541h461q4 24 4 41 q0 108 -59 172.5t-162 64.5q-227 0 -244 -278zM274 1425h168l156 -317h-145z" />
<glyph unicode="&#xe9;" horiz-adv-x="964" d="M90 469q0 103 25 190t74 153.5t128.5 104t182.5 37.5q94 0 167 -33t117 -89t66 -124.5t22 -146.5q0 -65 -12 -143h-606q7 -301 264 -301q153 0 299 100l53 -127q-165 -113 -354 -113q-113 0 -196.5 36t-133 103t-73 154.5t-23.5 198.5zM256 541h461q4 24 4 41 q0 108 -59 172.5t-162 64.5q-227 0 -244 -278zM399 1108l156 317h168l-178 -317h-146z" />
<glyph unicode="&#xea;" horiz-adv-x="964" d="M90 469q0 103 25 190t74 153.5t128.5 104t182.5 37.5q94 0 167 -33t117 -89t66 -124.5t22 -146.5q0 -65 -12 -143h-606q7 -301 264 -301q153 0 299 100l53 -127q-165 -113 -354 -113q-113 0 -196.5 36t-133 103t-73 154.5t-23.5 198.5zM213 1108l188 317h199l188 -317 h-145l-143 223l-140 -223h-147zM256 541h461q4 24 4 41q0 108 -59 172.5t-162 64.5q-227 0 -244 -278z" />
<glyph unicode="&#xeb;" horiz-adv-x="964" d="M90 469q0 103 25 190t74 153.5t128.5 104t182.5 37.5q94 0 167 -33t117 -89t66 -124.5t22 -146.5q0 -65 -12 -143h-606q7 -301 264 -301q153 0 299 100l53 -127q-165 -113 -354 -113q-113 0 -196.5 36t-133 103t-73 154.5t-23.5 198.5zM201 1253q0 56 31 83.5t81 27.5 q47 0 79 -28t32 -83t-32 -81.5t-79 -26.5q-51 0 -81.5 26.5t-30.5 81.5zM256 541h461q4 24 4 41q0 108 -59 172.5t-162 64.5q-227 0 -244 -278zM573 1253q0 56 31.5 83.5t81.5 27.5q47 0 79 -28t32 -83t-32 -81.5t-79 -26.5q-51 0 -82 26.5t-31 81.5z" />
<glyph unicode="&#xec;" horiz-adv-x="655" d="M70 0v137h204v658h-204v139h358v-797h195v-137h-553zM98 1425h168l156 -317h-146z" />
<glyph unicode="&#xed;" horiz-adv-x="655" d="M70 0v137h204v658h-204v139h358v-797h195v-137h-553zM262 1108l156 317h168l-178 -317h-146z" />
<glyph unicode="&#xee;" horiz-adv-x="655" d="M39 1108l188 317h199l188 -317h-145l-143 223l-140 -223h-147zM70 0v137h204v658h-204v139h358v-797h195v-137h-553z" />
<glyph unicode="&#xef;" horiz-adv-x="655" d="M27 1253q0 56 31 83.5t81 27.5q47 0 79 -28t32 -83t-32 -81.5t-79 -26.5q-51 0 -81.5 26.5t-30.5 81.5zM70 0v137h204v658h-204v139h358v-797h195v-137h-553zM399 1253q0 56 31.5 83.5t81.5 27.5q47 0 79 -28t32 -83t-32 -81.5t-79 -26.5q-51 0 -82 26.5t-31 81.5z" />
<glyph unicode="&#xf0;" horiz-adv-x="1075" d="M92 453q0 212 97.5 337t283.5 125q120 0 209.5 -64t122.5 -153q0 223 -86 402l-172 -84l-47 110l162 78q-79 119 -205 221h198q84 -66 146 -161l119 53l47 -107l-107 -51q107 -219 107 -516q0 -138 -24.5 -254.5t-75.5 -210.5t-138.5 -147.5t-204.5 -53.5q-141 0 -240 63 t-145.5 168.5t-46.5 244.5zM254 442q0 -139 65 -228t201 -89q59 0 106 23.5t77 62t50.5 93t29.5 110.5t12 121q-93 223 -293 223q-128 0 -188 -84.5t-60 -231.5z" />
<glyph unicode="&#xf1;" horiz-adv-x="1173" d="M82 0v137h135v658h-133v139h274v-105q49 52 134.5 88.5t193.5 36.5q168 0 239.5 -87t71.5 -271v-459h133v-137h-444v137h158v447q0 57 -7 93.5t-28 68.5t-61.5 46.5t-104.5 14.5q-79 0 -154 -29t-118 -67v-574h155v-137h-444zM322 1198l12 123q49 -49 125 -49 q48 0 135 38t154 38q77 0 143 -52l-12 -125q-65 52 -131 52q-45 0 -136.5 -38t-152.5 -38q-42 0 -80 15.5t-57 35.5z" />
<glyph unicode="&#xf2;" horiz-adv-x="1030" d="M90 467q0 228 102.5 357.5t323.5 129.5q114 0 197 -35.5t132 -101.5t72 -152t23 -196q0 -492 -428 -492q-90 0 -161 23.5t-119.5 66t-80.5 104t-46.5 135t-14.5 161.5zM254 469q0 -174 60 -261t202 -87q143 0 201.5 87t58.5 259q0 173 -59 258.5t-203 85.5 q-142 0 -201 -85.5t-59 -256.5zM287 1425h168l155 -317h-145z" />
<glyph unicode="&#xf3;" horiz-adv-x="1030" d="M90 467q0 228 102.5 357.5t323.5 129.5q114 0 197 -35.5t132 -101.5t72 -152t23 -196q0 -492 -428 -492q-90 0 -161 23.5t-119.5 66t-80.5 104t-46.5 135t-14.5 161.5zM254 469q0 -174 60 -261t202 -87q143 0 201.5 87t58.5 259q0 173 -59 258.5t-203 85.5 q-142 0 -201 -85.5t-59 -256.5zM412 1108l155 317h168l-178 -317h-145z" />
<glyph unicode="&#xf4;" horiz-adv-x="1030" d="M90 467q0 228 102.5 357.5t323.5 129.5q114 0 197 -35.5t132 -101.5t72 -152t23 -196q0 -492 -428 -492q-90 0 -161 23.5t-119.5 66t-80.5 104t-46.5 135t-14.5 161.5zM227 1108l189 317h198l189 -317h-146l-143 223l-139 -223h-148zM254 469q0 -174 60 -261t202 -87 q143 0 201.5 87t58.5 259q0 173 -59 258.5t-203 85.5q-142 0 -201 -85.5t-59 -256.5z" />
<glyph unicode="&#xf5;" horiz-adv-x="1030" d="M90 467q0 228 102.5 357.5t323.5 129.5q114 0 197 -35.5t132 -101.5t72 -152t23 -196q0 -492 -428 -492q-90 0 -161 23.5t-119.5 66t-80.5 104t-46.5 135t-14.5 161.5zM231 1198l13 123q49 -49 125 -49q48 0 134.5 38t153.5 38q78 0 144 -52l-13 -125q-65 52 -131 52 q-45 0 -136 -38t-152 -38q-42 0 -80.5 15.5t-57.5 35.5zM254 469q0 -174 60 -261t202 -87q143 0 201.5 87t58.5 259q0 173 -59 258.5t-203 85.5q-142 0 -201 -85.5t-59 -256.5z" />
<glyph unicode="&#xf6;" horiz-adv-x="1030" d="M90 467q0 228 102.5 357.5t323.5 129.5q114 0 197 -35.5t132 -101.5t72 -152t23 -196q0 -492 -428 -492q-90 0 -161 23.5t-119.5 66t-80.5 104t-46.5 135t-14.5 161.5zM217 1253q0 56 31.5 83.5t81.5 27.5q47 0 78.5 -28t31.5 -83t-31.5 -81.5t-78.5 -26.5 q-51 0 -82 26.5t-31 81.5zM254 469q0 -174 60 -261t202 -87q143 0 201.5 87t58.5 259q0 173 -59 258.5t-203 85.5q-142 0 -201 -85.5t-59 -256.5zM590 1253q0 56 31 83.5t81 27.5q47 0 79 -28t32 -83t-32 -81.5t-79 -26.5q-51 0 -81.5 26.5t-30.5 81.5z" />
<glyph unicode="&#xf7;" d="M100 477v152h944v-152h-944zM457 182q0 51 34 84t87 33q52 0 86 -33t34 -84t-33.5 -83.5t-86.5 -32.5t-87 32.5t-34 83.5zM457 920q0 52 34 85t87 33t86.5 -33t33.5 -85q0 -51 -34 -84t-86 -33q-53 0 -87 33t-34 84z" />
<glyph unicode="&#xf8;" horiz-adv-x="1030" d="M90 467q0 228 102.5 357.5t323.5 129.5q70 0 111 -10l41 111h112v-23l-47 -125q207 -102 207 -438q0 -492 -428 -492q-66 0 -125 15l-39 -115h-108v27l47 125q-197 108 -197 438zM254 469q0 -214 96 -287l219 623q-27 6 -55 6q-142 0 -201 -85.5t-59 -256.5zM446 127 q30 -6 70 -6q143 0 201.5 87t58.5 259q0 224 -106 289z" />
<glyph unicode="&#xf9;" horiz-adv-x="1153" d="M37 797v137h305v-584q0 -56 7 -93.5t26.5 -69t58 -46t98.5 -14.5q86 0 162.5 42t112.5 101v527h-191v137h345v-795h143v-139h-273v150q-51 -69 -141.5 -121t-204.5 -52q-159 0 -228 88t-69 273v459h-151zM342 1425h168l156 -317h-146z" />
<glyph unicode="&#xfa;" horiz-adv-x="1153" d="M37 797v137h305v-584q0 -56 7 -93.5t26.5 -69t58 -46t98.5 -14.5q86 0 162.5 42t112.5 101v527h-191v137h345v-795h143v-139h-273v150q-51 -69 -141.5 -121t-204.5 -52q-159 0 -228 88t-69 273v459h-151zM432 1108l156 317h168l-178 -317h-146z" />
<glyph unicode="&#xfb;" horiz-adv-x="1153" d="M37 797v137h305v-584q0 -56 7 -93.5t26.5 -69t58 -46t98.5 -14.5q86 0 162.5 42t112.5 101v527h-191v137h345v-795h143v-139h-273v150q-51 -69 -141.5 -121t-204.5 -52q-159 0 -228 88t-69 273v459h-151zM270 1108l189 317h198l189 -317h-146l-143 223l-139 -223h-148z " />
<glyph unicode="&#xfc;" horiz-adv-x="1153" d="M37 797v137h305v-584q0 -56 7 -93.5t26.5 -69t58 -46t98.5 -14.5q86 0 162.5 42t112.5 101v527h-191v137h345v-795h143v-139h-273v150q-51 -69 -141.5 -121t-204.5 -52q-159 0 -228 88t-69 273v459h-151zM258 1253q0 56 31.5 83.5t81.5 27.5q47 0 78.5 -28t31.5 -83 t-31.5 -81.5t-78.5 -26.5q-51 0 -82 26.5t-31 81.5zM631 1253q0 56 31 83.5t81 27.5q47 0 79 -28t32 -83t-32 -81.5t-79 -26.5q-51 0 -81.5 26.5t-30.5 81.5z" />
<glyph unicode="&#xfd;" horiz-adv-x="1175" d="M20 795v139h353v-133l241 -606l258 600h-239v139h520v-139h-123l-481 -1102q-36 -86 -91.5 -121t-133.5 -35q-108 0 -174 29v121h235l152 333l-332 775h-185zM477 1108l156 317h168l-178 -317h-146z" />
<glyph unicode="&#xfe;" horiz-adv-x="1054" d="M8 1286v139h295v-587q87 116 262 116q199 0 298.5 -128t99.5 -361q0 -231 -98.5 -359.5t-299.5 -128.5q-170 0 -262 111v-391h215v-139h-495v127l127 24v1577h-142zM303 240q77 -115 232 -115q75 0 128 24.5t82 72t41.5 106.5t12.5 137t-12 137t-41 107t-82 73t-129 25 q-152 0 -232 -119v-448z" />
<glyph unicode="&#xff;" horiz-adv-x="1175" d="M20 795v139h353v-133l241 -606l258 600h-239v139h520v-139h-123l-481 -1102q-36 -86 -91.5 -121t-133.5 -35q-108 0 -174 29v121h235l152 333l-332 775h-185zM309 1253q0 56 31.5 83.5t81.5 27.5q47 0 78.5 -28t31.5 -83t-31.5 -81.5t-78.5 -26.5q-51 0 -82 26.5 t-31 81.5zM682 1253q0 56 31.5 83.5t81.5 27.5q47 0 78.5 -28t31.5 -83t-31.5 -81.5t-78.5 -26.5q-51 0 -82 26.5t-31 81.5z" />
<glyph unicode="&#x152;" horiz-adv-x="1804" d="M113 690q0 129 17 234t57 196t103.5 153t160.5 97t223 35q112 0 207 -21h811v-350h-154v211h-514v-467h479v-141h-479v-498h522v223h152v-362h-819q-90 -23 -209 -23q-125 0 -220.5 35t-159 96.5t-103.5 152.5t-57 195.5t-17 233.5zM287 690q0 -109 11 -193t38.5 -155.5 t71 -118t110.5 -72.5t156 -26q121 0 190 31v1069q-80 32 -192 32q-108 0 -184 -38.5t-119.5 -114.5t-62.5 -176.5t-19 -237.5z" />
<glyph unicode="&#x153;" horiz-adv-x="1650" d="M90 467q0 228 102.5 357.5t323.5 129.5q246 0 346 -182q100 182 324 182q94 0 167.5 -33t117 -88.5t66 -124.5t22.5 -147q0 -70 -15 -143h-604q7 -301 264 -301q150 0 299 100l51 -127q-161 -113 -362 -113q-237 0 -338 181q-101 -181 -342 -181q-90 0 -161 23.5 t-119.5 66t-80.5 104t-46.5 135t-14.5 161.5zM254 469q0 -174 60 -261t202 -87q143 0 201.5 87t58.5 259q0 173 -59.5 258.5t-202.5 85.5q-142 0 -201 -85.5t-59 -256.5zM942 541h459q4 24 4 41q0 108 -59 172.5t-162 64.5q-225 0 -242 -278z" />
<glyph unicode="&#x178;" horiz-adv-x="1265" d="M12 1245v139h484v-139h-183l322 -551l328 551h-187v139h488v-139h-127l-424 -690v-416h186v-139h-545v139h197v416l-412 690h-127zM338 1671q0 56 31.5 83.5t81.5 27.5q47 0 78.5 -28t31.5 -83t-31.5 -81.5t-78.5 -26.5q-51 0 -82 26.5t-31 81.5zM711 1671q0 56 31 83.5 t81 27.5q47 0 79 -28t32 -83t-32 -81.5t-79 -26.5q-51 0 -81.5 26.5t-30.5 81.5z" />
<glyph unicode="&#x2c6;" horiz-adv-x="1228" d="M326 1108l188 317h199l188 -317h-145l-144 223l-139 -223h-147z" />
<glyph unicode="&#x2dc;" horiz-adv-x="1228" d="M330 1198l12 123q49 -49 125 -49q48 0 135 38t154 38q77 0 143 -52l-12 -125q-65 52 -131 52q-45 0 -136.5 -38t-152.5 -38q-42 0 -80 15.5t-57 35.5z" />
<glyph unicode="&#x2000;" horiz-adv-x="926" />
<glyph unicode="&#x2001;" horiz-adv-x="1853" />
<glyph unicode="&#x2002;" horiz-adv-x="926" />
<glyph unicode="&#x2003;" horiz-adv-x="1853" />
<glyph unicode="&#x2004;" horiz-adv-x="617" />
<glyph unicode="&#x2005;" horiz-adv-x="463" />
<glyph unicode="&#x2006;" horiz-adv-x="308" />
<glyph unicode="&#x2007;" horiz-adv-x="308" />
<glyph unicode="&#x2008;" horiz-adv-x="231" />
<glyph unicode="&#x2009;" horiz-adv-x="370" />
<glyph unicode="&#x200a;" horiz-adv-x="102" />
<glyph unicode="&#x2010;" d="M227 477v152h691v-152h-691z" />
<glyph unicode="&#x2011;" d="M227 477v152h691v-152h-691z" />
<glyph unicode="&#x2012;" d="M227 477v152h691v-152h-691z" />
<glyph unicode="&#x2013;" horiz-adv-x="1185" d="M125 477v152h936v-152h-936z" />
<glyph unicode="&#x2014;" horiz-adv-x="1472" d="M125 477v152h1223v-152h-1223z" />
<glyph unicode="&#x2018;" horiz-adv-x="405" d="M84 932l106 452h123l-51 -452h-178z" />
<glyph unicode="&#x2019;" horiz-adv-x="397" d="M100 932l52 452h178l-107 -452h-123z" />
<glyph unicode="&#x201a;" horiz-adv-x="415" d="M80 -229l51 452h178l-106 -452h-123z" />
<glyph unicode="&#x201c;" horiz-adv-x="684" d="M84 932l106 452h123l-51 -452h-178zM362 932l107 452h123l-51 -452h-179z" />
<glyph unicode="&#x201d;" horiz-adv-x="675" d="M100 932l52 452h178l-107 -452h-123zM379 932l51 452h178l-108 -452h-121z" />
<glyph unicode="&#x201e;" horiz-adv-x="694" d="M80 -231l51 454h178l-106 -454h-123zM358 -231l52 454h178l-107 -454h-123z" />
<glyph unicode="&#x2022;" d="M346 551q0 95 64.5 157t162.5 62q100 0 164 -62t64 -157t-64 -157t-164 -62q-98 0 -162.5 62t-64.5 157z" />
<glyph unicode="&#x2026;" horiz-adv-x="1226" d="M98 104q0 51 35 84t88 33t87 -33t34 -84t-34.5 -84.5t-86.5 -33.5q-53 0 -88 33.5t-35 84.5zM475 100q0 51 35 84t88 33t87 -33t34 -84t-34.5 -84.5t-86.5 -33.5q-53 0 -88 33.5t-35 84.5zM854 104q0 51 35 84t88 33t87 -33t34 -84t-34.5 -84.5t-86.5 -33.5 q-53 0 -88 33.5t-35 84.5z" />
<glyph unicode="&#x202f;" horiz-adv-x="370" />
<glyph unicode="&#x2039;" horiz-adv-x="632" d="M74 553l364 438l103 -82l-271 -356l271 -356l-103 -82z" />
<glyph unicode="&#x203a;" horiz-adv-x="632" d="M92 197l270 356l-268 356l103 82l364 -438l-364 -438z" />
<glyph unicode="&#x205f;" horiz-adv-x="463" />
<glyph unicode="&#x20ac;" d="M76 487v119h102v160h-102v119h112q33 245 163.5 382.5t359.5 137.5q181 0 354 -88l-57 -143q-138 79 -301 79q-297 0 -349 -368h537l-47 -119h-502v-70q0 -63 2 -90h440l-45 -119h-381q66 -354 353 -354q167 0 319 88l39 -145q-172 -99 -362 -99q-450 0 -521 510h-114z " />
<glyph unicode="&#x2122;" horiz-adv-x="1427" d="M168 1092v151h407v-151h-77v77h-84v-338h69v-73h-231v73h72v338h-80v-77h-76zM621 758v73h49l43 338h-49v74h184l104 -385l111 385h180v-74h-47l39 -338h55v-73h-200v73h59l-33 314l-115 -387h-100l-108 383l-37 -310h63v-73h-198z" />
</font>
</defs>
</svg>
